M48
; DRILL file {KiCad (5.1.5)-3} date 2020-05-09 6:25:57 PM
; FORMAT={-:-/ absolute / inch / decimal}
; #@! TF.CreationDate,2020-05-09T18:25:57-04:00
; #@! TF.GenerationSoftware,Kicad,Pcbnew,(5.1.5)-3
; #@! TF.FileFunction,Plated,1,2,PTH
FMAT,2
INCH
T1C0.0157
T2C0.0295
T3C0.0394
T4C0.0866
%
G90
G05
T1
X1.8346Y-3.1063
X1.9528Y-3.0866
X1.9528Y-3.378
X1.9882Y-3.4094
X1.9889Y-3.0711
X2.254Y-3.051
X2.2835Y-3.1496
X2.2953Y-3.053
X2.2953Y-3.0923
X2.3113Y-3.1774
X2.3414Y-3.1495
X2.3465Y-3.6142
X2.3465Y-3.7323
X2.374Y-2.9715
X2.374Y-3.0866
X2.4331Y-2.8031
X2.436Y-2.3976
X2.4646Y-2.7008
X2.4685Y-2.3583
X2.4685Y-3.248
X2.563Y-2.6024
X2.563Y-2.7717
X2.6063Y-2.7165
X2.6102Y-2.5079
X2.6457Y-3.1024
X2.752Y-3.374
X2.7533Y-3.0934
X2.7913Y-3.4055
X2.7921Y-3.0726
X2.874Y-2.5472
X2.9088Y-2.6298
X2.9094Y-2.8031
X2.9173Y-2.3346
X2.918Y-2.5584
X2.941Y-2.3032
X2.9459Y-2.4724
X2.9724Y-2.5039
X2.9724Y-3.0148
X2.9803Y-2.3061
X3.0199Y-2.4917
X3.0226Y-2.4055
X3.0236Y-2.3661
X3.0467Y-3.1494
X3.0512Y-3.053
X3.0591Y-2.4961
X3.0839Y-3.1624
X3.1024Y-3.053
X3.1024Y-3.0923
X3.1211Y-3.1494
X3.122Y-2.8071
X3.1236Y-2.6608
X3.1339Y-3.6102
X3.1339Y-3.7037
X3.1496Y-3.0945
X3.1565Y-2.6825
X3.185Y-2.6142
X3.185Y-3.0
X3.2136Y-2.642
X3.2136Y-2.9685
X3.2402Y-3.1063
X3.2421Y-2.7008
X3.248Y-3.252
X3.2707Y-2.7332
X3.2717Y-2.9449
X3.3031Y-2.7598
X3.3031Y-2.9734
X3.4646Y-3.1024
X3.5787Y-3.3701
X3.5825Y-3.0923
X3.6181Y-3.4055
X3.6193Y-3.0726
X3.6339Y-2.2884
X3.6339Y-2.8071
X3.7913Y-2.9803
X3.7913Y-3.4252
X3.811Y-2.6299
X3.8667Y-3.1506
X3.8858Y-3.0512
X3.9055Y-3.1575
X3.9291Y-3.0541
X3.9291Y-3.0935
X3.9488Y-3.2756
X3.9518Y-3.1565
X3.9528Y-2.9449
X3.9528Y-3.4252
X3.9547Y-2.815
X3.9646Y-2.4449
X3.9764Y-2.7559
X3.9833Y-3.5787
X4.0118Y-2.5945
X4.0118Y-3.6969
X4.0433Y-3.7323
X4.0512Y-2.3898
X1.835Y-2.385
X1.8541Y-2.3391
X1.8541Y-2.431
X1.9Y-2.3201
X1.9Y-2.45
X1.9459Y-2.3391
X1.9459Y-2.431
X1.965Y-2.385
X1.8232Y-2.8276
X1.8423Y-2.7816
X1.8423Y-2.8735
X1.8882Y-2.7626
X1.8882Y-2.8925
X1.9341Y-2.7816
X1.9341Y-2.8735
X1.9531Y-2.8276
X1.8299Y-2.6075
X1.8489Y-2.5615
X1.8489Y-2.6534
X1.8949Y-2.5425
X1.8949Y-2.6724
X1.9408Y-2.5615
X1.9408Y-2.6534
X1.9598Y-2.6075
T2
X1.8268Y-3.2638
X1.8268Y-3.4488
X1.8504Y-3.5945
X2.4843Y-3.3583
X2.5197Y-2.8976
X2.5433Y-2.4567
X2.626Y-3.2559
X2.626Y-3.5039
X2.626Y-3.5906
X2.9449Y-3.4331
X2.9764Y-2.9173
X3.4449Y-3.5945
X3.4488Y-3.252
X3.4488Y-3.4882
T3
X2.2945Y-2.4028
X2.2945Y-2.5028
X2.2945Y-2.6028
X2.2945Y-2.7028
X2.2945Y-2.8028
T4
X1.9Y-2.385
X1.8882Y-2.8276
X1.8949Y-2.6075
T0
M30
