G04 #@! TF.GenerationSoftware,KiCad,Pcbnew,(5.1.5)-3*
G04 #@! TF.CreationDate,2020-05-09T18:25:29-04:00*
G04 #@! TF.ProjectId,motor_arm,6d6f746f-725f-4617-926d-2e6b69636164,rev?*
G04 #@! TF.SameCoordinates,Original*
G04 #@! TF.FileFunction,Copper,L2,Bot*
G04 #@! TF.FilePolarity,Positive*
%FSLAX46Y46*%
G04 Gerber Fmt 4.6, Leading zero omitted, Abs format (unit mm)*
G04 Created by KiCad (PCBNEW (5.1.5)-3) date 2020-05-09 18:25:29*
%MOMM*%
%LPD*%
G04 APERTURE LIST*
%ADD10O,1.700000X1.700000*%
%ADD11R,1.700000X1.700000*%
%ADD12C,0.700000*%
%ADD13C,4.400000*%
%ADD14C,0.800000*%
%ADD15C,1.500000*%
%ADD16C,1.000000*%
%ADD17C,0.250000*%
%ADD18C,0.254000*%
G04 APERTURE END LIST*
D10*
X58280000Y-61030000D03*
X58280000Y-63570000D03*
X58280000Y-66110000D03*
X58280000Y-68650000D03*
D11*
X58280000Y-71190000D03*
D12*
X47093274Y-59413274D03*
X46610000Y-60580000D03*
X47093274Y-61746726D03*
X48260000Y-62230000D03*
X49426726Y-61746726D03*
X49910000Y-60580000D03*
X49426726Y-59413274D03*
X48260000Y-58930000D03*
D13*
X48260000Y-60580000D03*
D12*
X46963274Y-65063274D03*
X46480000Y-66230000D03*
X46963274Y-67396726D03*
X48130000Y-67880000D03*
X49296726Y-67396726D03*
X49780000Y-66230000D03*
X49296726Y-65063274D03*
X48130000Y-64580000D03*
D13*
X48130000Y-66230000D03*
D12*
X46793274Y-70653274D03*
X46310000Y-71820000D03*
X46793274Y-72986726D03*
X47960000Y-73470000D03*
X49126726Y-72986726D03*
X49610000Y-71820000D03*
X49126726Y-70653274D03*
X47960000Y-70170000D03*
D13*
X47960000Y-71820000D03*
D14*
X58300000Y-77544997D03*
X58707108Y-80707108D03*
X78330720Y-80324149D03*
X78800000Y-77544997D03*
X99200000Y-80200000D03*
X99800000Y-77574997D03*
X66300000Y-63700000D03*
X66200000Y-69000000D03*
X79339834Y-67585000D03*
X73000000Y-64700000D03*
X46600000Y-78900000D03*
X62700000Y-82500000D03*
X67200000Y-78800000D03*
X82500000Y-82600000D03*
X88000000Y-78800000D03*
X100700000Y-62100000D03*
X96800000Y-66800000D03*
X100450000Y-71500000D03*
X79300000Y-71300000D03*
D15*
X63100000Y-85300000D03*
X64000000Y-73600000D03*
X75600000Y-74100000D03*
X74800000Y-87200000D03*
D14*
X75500000Y-76575010D03*
D15*
X64600000Y-62400000D03*
D14*
X73882400Y-66797659D03*
X73900000Y-71200000D03*
X65100000Y-66100000D03*
X65100000Y-70400000D03*
X102900000Y-60700000D03*
D15*
X46400000Y-82900000D03*
X47000000Y-91300000D03*
X46400000Y-87600000D03*
D14*
X59600000Y-91800000D03*
X59600000Y-94800000D03*
X102700000Y-94800000D03*
X50519147Y-78006080D03*
X50500000Y-86600000D03*
X101900000Y-65900000D03*
D15*
X66700000Y-82700000D03*
X66700000Y-91200000D03*
X66700000Y-89000000D03*
D14*
X79600000Y-91700000D03*
X79600000Y-94075000D03*
X101900000Y-93900000D03*
X70919350Y-78045000D03*
X70900000Y-86500000D03*
X101175000Y-90900000D03*
X101000000Y-70000000D03*
D15*
X87600000Y-82600000D03*
X87500000Y-91300000D03*
X87600000Y-88600000D03*
D14*
X91929231Y-78045000D03*
X91900000Y-86500000D03*
X62600000Y-68600000D03*
X62700000Y-59900000D03*
X76800000Y-60100000D03*
X77700000Y-63400000D03*
X61800000Y-71200000D03*
X61875000Y-60900000D03*
X76775000Y-61100003D03*
X76706114Y-63289569D03*
X49600000Y-78400000D03*
X49600000Y-85800000D03*
X92300000Y-71300000D03*
X92300000Y-58124990D03*
X74702667Y-58502005D03*
X74825000Y-62800000D03*
X74100000Y-59300000D03*
X74117683Y-64982317D03*
X75700000Y-58575000D03*
X75500000Y-63600000D03*
X57250846Y-77495847D03*
X58000000Y-80000000D03*
X69935037Y-78572975D03*
X69900000Y-85700000D03*
X77500000Y-77545000D03*
X77386441Y-79995000D03*
X90994855Y-78545147D03*
X90900000Y-85600000D03*
X98700000Y-77500000D03*
X98215430Y-80025000D03*
X59472347Y-79997653D03*
X58300000Y-78545000D03*
X80900000Y-66400000D03*
X80900000Y-76200000D03*
X81625000Y-67107870D03*
X81625000Y-75400000D03*
X60300000Y-75475000D03*
X60300000Y-78400000D03*
X78800000Y-78545000D03*
X79275000Y-79995000D03*
X80175000Y-68135000D03*
X80000000Y-78600000D03*
X82350000Y-68600000D03*
X82300000Y-78900000D03*
X100375000Y-80175153D03*
X99800000Y-78575000D03*
X83075000Y-69424043D03*
X83100000Y-74800000D03*
X100400000Y-74800000D03*
X83900000Y-70100000D03*
X83900000Y-75525000D03*
X96300000Y-75700000D03*
X96300000Y-87000000D03*
X100400000Y-87000000D03*
X100300000Y-83200000D03*
D16*
X63100000Y-85300000D02*
X64000000Y-84400000D01*
X64000000Y-84400000D02*
X64000000Y-73600000D01*
X75600000Y-74100000D02*
X74800000Y-74900000D01*
X74800000Y-74900000D02*
X74800000Y-87200000D01*
D17*
X75500000Y-74200000D02*
X75600000Y-74100000D01*
X75500000Y-76575010D02*
X75500000Y-74200000D01*
D16*
X64000000Y-73600000D02*
X64000000Y-63000000D01*
X64000000Y-63000000D02*
X64600000Y-62400000D01*
D17*
X73882400Y-66797659D02*
X73882400Y-71182400D01*
X73882400Y-71182400D02*
X73900000Y-71200000D01*
X65100000Y-66100000D02*
X65100000Y-70400000D01*
X102900003Y-60700003D02*
X102900000Y-60700000D01*
D16*
X46400000Y-91000000D02*
X46700000Y-91300000D01*
X46700000Y-91300000D02*
X47000000Y-91300000D01*
X46400000Y-82900000D02*
X46400000Y-87600000D01*
X46400000Y-87600000D02*
X46400000Y-91000000D01*
D17*
X59600000Y-91800000D02*
X59600000Y-94800000D01*
X102700000Y-60900000D02*
X102900000Y-60700000D01*
X102700000Y-94800000D02*
X102700000Y-60900000D01*
X50519147Y-78006080D02*
X50519147Y-86580853D01*
X50519147Y-86580853D02*
X50500000Y-86600000D01*
D16*
X66700000Y-82700000D02*
X66700000Y-89000000D01*
X66700000Y-89000000D02*
X66700000Y-91200000D01*
D17*
X79600000Y-91700000D02*
X79600000Y-94075000D01*
X101900000Y-93900000D02*
X101900000Y-65900000D01*
X70919350Y-78045000D02*
X70919350Y-86480650D01*
X70919350Y-86480650D02*
X70900000Y-86500000D01*
X101175000Y-90900000D02*
X101175000Y-70175000D01*
X101175000Y-70175000D02*
X101000000Y-70000000D01*
D16*
X87600000Y-91200000D02*
X87500000Y-91300000D01*
X87600000Y-82600000D02*
X87600000Y-88600000D01*
X87600000Y-88600000D02*
X87600000Y-91200000D01*
D17*
X91929231Y-78045000D02*
X91929231Y-86470769D01*
X91929231Y-86470769D02*
X91900000Y-86500000D01*
X62600000Y-68600000D02*
X62600000Y-60000000D01*
X62600000Y-60000000D02*
X62700000Y-59900000D01*
X77365685Y-60100000D02*
X77500000Y-60234315D01*
X76800000Y-60100000D02*
X77365685Y-60100000D01*
X77500000Y-60234315D02*
X77500000Y-63200000D01*
X77500000Y-63200000D02*
X77700000Y-63400000D01*
X61800000Y-71200000D02*
X61800000Y-60975000D01*
X61800000Y-60975000D02*
X61875000Y-60900000D01*
X76775000Y-61100003D02*
X76775000Y-63220683D01*
X76775000Y-63220683D02*
X76706114Y-63289569D01*
X49600000Y-78400000D02*
X49600000Y-85800000D01*
X92300000Y-71300000D02*
X92300000Y-70734315D01*
X92300000Y-70734315D02*
X92300000Y-58124990D01*
X74825001Y-62799999D02*
X74825000Y-62800000D01*
X74702667Y-58502005D02*
X74825001Y-58624339D01*
X74825001Y-58624339D02*
X74825001Y-62799999D01*
X74100000Y-59300000D02*
X74100000Y-64964634D01*
X74100000Y-64964634D02*
X74117683Y-64982317D01*
X75700000Y-58575000D02*
X75700000Y-63400000D01*
X75700000Y-63400000D02*
X75500000Y-63600000D01*
X57250846Y-77495847D02*
X57250846Y-79250846D01*
X57250846Y-79250846D02*
X58000000Y-80000000D01*
X69935037Y-78572975D02*
X69935037Y-85664963D01*
X69935037Y-85664963D02*
X69900000Y-85700000D01*
X77500000Y-77545000D02*
X77500000Y-79881441D01*
X77500000Y-79881441D02*
X77386441Y-79995000D01*
X90994855Y-78545147D02*
X90994855Y-85505145D01*
X90994855Y-85505145D02*
X90900000Y-85600000D01*
X98700000Y-77500000D02*
X98700000Y-79540430D01*
X98700000Y-79540430D02*
X98215430Y-80025000D01*
X59472347Y-79997653D02*
X59472347Y-79717347D01*
X59472347Y-79717347D02*
X58300000Y-78545000D01*
X80900000Y-66400000D02*
X80900000Y-66965685D01*
X80900000Y-66965685D02*
X80900000Y-75500000D01*
X80900000Y-75500000D02*
X80900000Y-76200000D01*
X81625000Y-67107870D02*
X81625000Y-75400000D01*
X60300000Y-75475000D02*
X60300000Y-78400000D01*
X78800000Y-78545000D02*
X78800000Y-79520000D01*
X78800000Y-79520000D02*
X79275000Y-79995000D01*
X80175000Y-68135000D02*
X80175000Y-78425000D01*
X80175000Y-78425000D02*
X80000000Y-78600000D01*
X82350000Y-68600000D02*
X82350000Y-78850000D01*
X82350000Y-78850000D02*
X82300000Y-78900000D01*
X100375000Y-80175153D02*
X100375000Y-79150000D01*
X100375000Y-79150000D02*
X99800000Y-78575000D01*
X83075000Y-69989728D02*
X83100000Y-70014728D01*
X83075000Y-69424043D02*
X83075000Y-69989728D01*
X83100000Y-70014728D02*
X83100000Y-74800000D01*
X100365685Y-78575000D02*
X99800000Y-78575000D01*
X100525001Y-78415684D02*
X100365685Y-78575000D01*
X100400000Y-75365685D02*
X100525001Y-75490686D01*
X100525001Y-75490686D02*
X100525001Y-78415684D01*
X100400000Y-74800000D02*
X100400000Y-75365685D01*
X83900000Y-70100000D02*
X83900000Y-75500000D01*
X83900000Y-75500000D02*
X83900000Y-75525000D01*
X96300000Y-75700000D02*
X96300000Y-87000000D01*
X100400000Y-87000000D02*
X100400000Y-83300000D01*
X100400000Y-83300000D02*
X100300000Y-83200000D01*
D18*
G36*
X91478504Y-57685891D02*
G01*
X91408624Y-57854594D01*
X91373000Y-58033689D01*
X91373000Y-58216291D01*
X91408624Y-58395386D01*
X91478504Y-58564089D01*
X91579952Y-58715918D01*
X91648001Y-58783967D01*
X91648000Y-70641024D01*
X91579952Y-70709072D01*
X91478504Y-70860901D01*
X91408624Y-71029604D01*
X91373000Y-71208699D01*
X91373000Y-71391301D01*
X91408624Y-71570396D01*
X91478504Y-71739099D01*
X91579952Y-71890928D01*
X91709072Y-72020048D01*
X91860901Y-72121496D01*
X92029604Y-72191376D01*
X92208699Y-72227000D01*
X92391301Y-72227000D01*
X92570396Y-72191376D01*
X92739099Y-72121496D01*
X92890928Y-72020048D01*
X93020048Y-71890928D01*
X93121496Y-71739099D01*
X93191376Y-71570396D01*
X93227000Y-71391301D01*
X93227000Y-71208699D01*
X93191376Y-71029604D01*
X93121496Y-70860901D01*
X93020048Y-70709072D01*
X92952000Y-70641024D01*
X92952000Y-58783966D01*
X93020048Y-58715918D01*
X93121496Y-58564089D01*
X93191376Y-58395386D01*
X93227000Y-58216291D01*
X93227000Y-58033689D01*
X93191376Y-57854594D01*
X93121496Y-57685891D01*
X93032034Y-57552000D01*
X103448000Y-57552000D01*
X103448000Y-59951269D01*
X103339099Y-59878504D01*
X103170396Y-59808624D01*
X102991301Y-59773000D01*
X102808699Y-59773000D01*
X102629604Y-59808624D01*
X102460901Y-59878504D01*
X102309072Y-59979952D01*
X102179952Y-60109072D01*
X102078504Y-60260901D01*
X102008624Y-60429604D01*
X101973000Y-60608699D01*
X101973000Y-60791301D01*
X102008624Y-60970396D01*
X102048001Y-61065459D01*
X102048001Y-64984278D01*
X101991301Y-64973000D01*
X101808699Y-64973000D01*
X101629604Y-65008624D01*
X101460901Y-65078504D01*
X101309072Y-65179952D01*
X101179952Y-65309072D01*
X101078504Y-65460901D01*
X101008624Y-65629604D01*
X100973000Y-65808699D01*
X100973000Y-65991301D01*
X101008624Y-66170396D01*
X101078504Y-66339099D01*
X101179952Y-66490928D01*
X101248001Y-66558977D01*
X101248001Y-69104169D01*
X101091301Y-69073000D01*
X100908699Y-69073000D01*
X100729604Y-69108624D01*
X100560901Y-69178504D01*
X100409072Y-69279952D01*
X100279952Y-69409072D01*
X100178504Y-69560901D01*
X100108624Y-69729604D01*
X100073000Y-69908699D01*
X100073000Y-70091301D01*
X100108624Y-70270396D01*
X100178504Y-70439099D01*
X100279952Y-70590928D01*
X100409072Y-70720048D01*
X100523001Y-70796172D01*
X100523001Y-73879305D01*
X100491301Y-73873000D01*
X100308699Y-73873000D01*
X100129604Y-73908624D01*
X99960901Y-73978504D01*
X99809072Y-74079952D01*
X99679952Y-74209072D01*
X99578504Y-74360901D01*
X99508624Y-74529604D01*
X99473000Y-74708699D01*
X99473000Y-74891301D01*
X99508624Y-75070396D01*
X99578504Y-75239099D01*
X99679952Y-75390928D01*
X99754694Y-75465670D01*
X99757435Y-75493499D01*
X99794717Y-75616402D01*
X99855259Y-75729669D01*
X99873001Y-75751288D01*
X99873002Y-77648000D01*
X99708699Y-77648000D01*
X99611892Y-77667256D01*
X99627000Y-77591301D01*
X99627000Y-77408699D01*
X99591376Y-77229604D01*
X99521496Y-77060901D01*
X99420048Y-76909072D01*
X99290928Y-76779952D01*
X99139099Y-76678504D01*
X98970396Y-76608624D01*
X98791301Y-76573000D01*
X98608699Y-76573000D01*
X98429604Y-76608624D01*
X98260901Y-76678504D01*
X98109072Y-76779952D01*
X97979952Y-76909072D01*
X97878504Y-77060901D01*
X97808624Y-77229604D01*
X97773000Y-77408699D01*
X97773000Y-77591301D01*
X97808624Y-77770396D01*
X97878504Y-77939099D01*
X97979952Y-78090928D01*
X98048000Y-78158976D01*
X98048001Y-79113143D01*
X97945034Y-79133624D01*
X97776331Y-79203504D01*
X97624502Y-79304952D01*
X97495382Y-79434072D01*
X97393934Y-79585901D01*
X97324054Y-79754604D01*
X97288430Y-79933699D01*
X97288430Y-80116301D01*
X97324054Y-80295396D01*
X97393934Y-80464099D01*
X97495382Y-80615928D01*
X97624502Y-80745048D01*
X97776331Y-80846496D01*
X97945034Y-80916376D01*
X98124129Y-80952000D01*
X98306731Y-80952000D01*
X98485826Y-80916376D01*
X98654529Y-80846496D01*
X98806358Y-80745048D01*
X98935478Y-80615928D01*
X99036926Y-80464099D01*
X99106806Y-80295396D01*
X99142430Y-80116301D01*
X99142430Y-80020792D01*
X99163264Y-80003694D01*
X99244741Y-79904414D01*
X99305283Y-79791147D01*
X99324664Y-79727257D01*
X99342565Y-79668245D01*
X99345970Y-79633676D01*
X99352000Y-79572452D01*
X99352000Y-79572445D01*
X99355153Y-79540431D01*
X99352000Y-79508416D01*
X99352000Y-79390549D01*
X99360901Y-79396496D01*
X99529604Y-79466376D01*
X99708699Y-79502000D01*
X99723001Y-79502000D01*
X99723001Y-79516176D01*
X99654952Y-79584225D01*
X99553504Y-79736054D01*
X99483624Y-79904757D01*
X99448000Y-80083852D01*
X99448000Y-80266454D01*
X99483624Y-80445549D01*
X99553504Y-80614252D01*
X99654952Y-80766081D01*
X99784072Y-80895201D01*
X99935901Y-80996649D01*
X100104604Y-81066529D01*
X100283699Y-81102153D01*
X100466301Y-81102153D01*
X100523000Y-81090875D01*
X100523000Y-82299196D01*
X100391301Y-82273000D01*
X100208699Y-82273000D01*
X100029604Y-82308624D01*
X99860901Y-82378504D01*
X99709072Y-82479952D01*
X99579952Y-82609072D01*
X99478504Y-82760901D01*
X99408624Y-82929604D01*
X99373000Y-83108699D01*
X99373000Y-83291301D01*
X99408624Y-83470396D01*
X99478504Y-83639099D01*
X99579952Y-83790928D01*
X99709072Y-83920048D01*
X99748001Y-83946059D01*
X99748000Y-86341024D01*
X99679952Y-86409072D01*
X99578504Y-86560901D01*
X99508624Y-86729604D01*
X99473000Y-86908699D01*
X99473000Y-87091301D01*
X99508624Y-87270396D01*
X99578504Y-87439099D01*
X99679952Y-87590928D01*
X99809072Y-87720048D01*
X99960901Y-87821496D01*
X100129604Y-87891376D01*
X100308699Y-87927000D01*
X100491301Y-87927000D01*
X100523000Y-87920695D01*
X100523000Y-90241024D01*
X100454952Y-90309072D01*
X100353504Y-90460901D01*
X100283624Y-90629604D01*
X100248000Y-90808699D01*
X100248000Y-90991301D01*
X100283624Y-91170396D01*
X100353504Y-91339099D01*
X100454952Y-91490928D01*
X100584072Y-91620048D01*
X100735901Y-91721496D01*
X100904604Y-91791376D01*
X101083699Y-91827000D01*
X101248000Y-91827000D01*
X101248000Y-93241024D01*
X101179952Y-93309072D01*
X101078504Y-93460901D01*
X101008624Y-93629604D01*
X100973000Y-93808699D01*
X100973000Y-93991301D01*
X101008624Y-94170396D01*
X101078504Y-94339099D01*
X101179952Y-94490928D01*
X101309072Y-94620048D01*
X101460901Y-94721496D01*
X101629604Y-94791376D01*
X101773000Y-94819899D01*
X101773000Y-94891301D01*
X101808624Y-95070396D01*
X101878504Y-95239099D01*
X101979952Y-95390928D01*
X102037024Y-95448000D01*
X60262976Y-95448000D01*
X60320048Y-95390928D01*
X60421496Y-95239099D01*
X60491376Y-95070396D01*
X60527000Y-94891301D01*
X60527000Y-94708699D01*
X60491376Y-94529604D01*
X60421496Y-94360901D01*
X60320048Y-94209072D01*
X60252000Y-94141024D01*
X60252000Y-92458976D01*
X60320048Y-92390928D01*
X60421496Y-92239099D01*
X60491376Y-92070396D01*
X60527000Y-91891301D01*
X60527000Y-91708699D01*
X60491376Y-91529604D01*
X60421496Y-91360901D01*
X60320048Y-91209072D01*
X60190928Y-91079952D01*
X60039099Y-90978504D01*
X59870396Y-90908624D01*
X59691301Y-90873000D01*
X59508699Y-90873000D01*
X59329604Y-90908624D01*
X59160901Y-90978504D01*
X59009072Y-91079952D01*
X58879952Y-91209072D01*
X58778504Y-91360901D01*
X58708624Y-91529604D01*
X58673000Y-91708699D01*
X58673000Y-91891301D01*
X58708624Y-92070396D01*
X58778504Y-92239099D01*
X58879952Y-92390928D01*
X58948000Y-92458976D01*
X58948001Y-94141023D01*
X58879952Y-94209072D01*
X58778504Y-94360901D01*
X58708624Y-94529604D01*
X58673000Y-94708699D01*
X58673000Y-94891301D01*
X58708624Y-95070396D01*
X58778504Y-95239099D01*
X58879952Y-95390928D01*
X58937024Y-95448000D01*
X42552000Y-95448000D01*
X42552000Y-82774226D01*
X45123000Y-82774226D01*
X45123000Y-83025774D01*
X45172074Y-83272487D01*
X45268337Y-83504886D01*
X45373000Y-83661526D01*
X45373001Y-86838473D01*
X45268337Y-86995114D01*
X45172074Y-87227513D01*
X45123000Y-87474226D01*
X45123000Y-87725774D01*
X45172074Y-87972487D01*
X45268337Y-88204886D01*
X45373000Y-88361526D01*
X45373001Y-90949549D01*
X45368032Y-91000000D01*
X45373001Y-91050451D01*
X45387861Y-91201327D01*
X45446586Y-91394917D01*
X45541950Y-91573331D01*
X45670289Y-91729712D01*
X45709476Y-91761872D01*
X45900247Y-91952643D01*
X46008089Y-92114040D01*
X46185960Y-92291911D01*
X46395114Y-92431663D01*
X46627513Y-92527926D01*
X46874226Y-92577000D01*
X47125774Y-92577000D01*
X47372487Y-92527926D01*
X47604886Y-92431663D01*
X47814040Y-92291911D01*
X47991911Y-92114040D01*
X48131663Y-91904886D01*
X48227926Y-91672487D01*
X48277000Y-91425774D01*
X48277000Y-91174226D01*
X48227926Y-90927513D01*
X48131663Y-90695114D01*
X47991911Y-90485960D01*
X47814040Y-90308089D01*
X47604886Y-90168337D01*
X47427000Y-90094654D01*
X47427000Y-88361526D01*
X47531663Y-88204886D01*
X47627926Y-87972487D01*
X47677000Y-87725774D01*
X47677000Y-87474226D01*
X47627926Y-87227513D01*
X47531663Y-86995114D01*
X47427000Y-86838474D01*
X47427000Y-83661526D01*
X47531663Y-83504886D01*
X47627926Y-83272487D01*
X47677000Y-83025774D01*
X47677000Y-82774226D01*
X47627926Y-82527513D01*
X47531663Y-82295114D01*
X47391911Y-82085960D01*
X47214040Y-81908089D01*
X47004886Y-81768337D01*
X46772487Y-81672074D01*
X46525774Y-81623000D01*
X46274226Y-81623000D01*
X46027513Y-81672074D01*
X45795114Y-81768337D01*
X45585960Y-81908089D01*
X45408089Y-82085960D01*
X45268337Y-82295114D01*
X45172074Y-82527513D01*
X45123000Y-82774226D01*
X42552000Y-82774226D01*
X42552000Y-78308699D01*
X48673000Y-78308699D01*
X48673000Y-78491301D01*
X48708624Y-78670396D01*
X48778504Y-78839099D01*
X48879952Y-78990928D01*
X48948000Y-79058976D01*
X48948001Y-85141023D01*
X48879952Y-85209072D01*
X48778504Y-85360901D01*
X48708624Y-85529604D01*
X48673000Y-85708699D01*
X48673000Y-85891301D01*
X48708624Y-86070396D01*
X48778504Y-86239099D01*
X48879952Y-86390928D01*
X49009072Y-86520048D01*
X49160901Y-86621496D01*
X49329604Y-86691376D01*
X49508699Y-86727000D01*
X49580101Y-86727000D01*
X49608624Y-86870396D01*
X49678504Y-87039099D01*
X49779952Y-87190928D01*
X49909072Y-87320048D01*
X50060901Y-87421496D01*
X50229604Y-87491376D01*
X50408699Y-87527000D01*
X50591301Y-87527000D01*
X50770396Y-87491376D01*
X50939099Y-87421496D01*
X51090928Y-87320048D01*
X51220048Y-87190928D01*
X51321496Y-87039099D01*
X51391376Y-86870396D01*
X51427000Y-86691301D01*
X51427000Y-86508699D01*
X51391376Y-86329604D01*
X51321496Y-86160901D01*
X51220048Y-86009072D01*
X51171147Y-85960171D01*
X51171147Y-78665056D01*
X51239195Y-78597008D01*
X51340643Y-78445179D01*
X51410523Y-78276476D01*
X51446147Y-78097381D01*
X51446147Y-77914779D01*
X51410523Y-77735684D01*
X51340643Y-77566981D01*
X51239195Y-77415152D01*
X51228589Y-77404546D01*
X56323846Y-77404546D01*
X56323846Y-77587148D01*
X56359470Y-77766243D01*
X56429350Y-77934946D01*
X56530798Y-78086775D01*
X56598846Y-78154823D01*
X56598847Y-79218814D01*
X56595692Y-79250846D01*
X56608281Y-79378660D01*
X56645563Y-79501562D01*
X56659160Y-79527000D01*
X56706106Y-79614830D01*
X56787583Y-79714110D01*
X56812460Y-79734526D01*
X57073000Y-79995066D01*
X57073000Y-80091301D01*
X57108624Y-80270396D01*
X57178504Y-80439099D01*
X57279952Y-80590928D01*
X57409072Y-80720048D01*
X57560901Y-80821496D01*
X57729604Y-80891376D01*
X57908699Y-80927000D01*
X58091301Y-80927000D01*
X58270396Y-80891376D01*
X58439099Y-80821496D01*
X58590928Y-80720048D01*
X58720048Y-80590928D01*
X58736958Y-80565621D01*
X58752299Y-80588581D01*
X58881419Y-80717701D01*
X59033248Y-80819149D01*
X59201951Y-80889029D01*
X59381046Y-80924653D01*
X59563648Y-80924653D01*
X59742743Y-80889029D01*
X59911446Y-80819149D01*
X60063275Y-80717701D01*
X60192395Y-80588581D01*
X60293843Y-80436752D01*
X60363723Y-80268049D01*
X60399347Y-80088954D01*
X60399347Y-79906352D01*
X60363723Y-79727257D01*
X60293843Y-79558554D01*
X60192395Y-79406725D01*
X60088826Y-79303156D01*
X60208699Y-79327000D01*
X60391301Y-79327000D01*
X60570396Y-79291376D01*
X60739099Y-79221496D01*
X60890928Y-79120048D01*
X61020048Y-78990928D01*
X61121496Y-78839099D01*
X61191376Y-78670396D01*
X61227000Y-78491301D01*
X61227000Y-78308699D01*
X61191376Y-78129604D01*
X61121496Y-77960901D01*
X61020048Y-77809072D01*
X60952000Y-77741024D01*
X60952000Y-76133976D01*
X61020048Y-76065928D01*
X61121496Y-75914099D01*
X61191376Y-75745396D01*
X61227000Y-75566301D01*
X61227000Y-75383699D01*
X61191376Y-75204604D01*
X61121496Y-75035901D01*
X61020048Y-74884072D01*
X60890928Y-74754952D01*
X60739099Y-74653504D01*
X60570396Y-74583624D01*
X60391301Y-74548000D01*
X60208699Y-74548000D01*
X60029604Y-74583624D01*
X59860901Y-74653504D01*
X59709072Y-74754952D01*
X59579952Y-74884072D01*
X59478504Y-75035901D01*
X59408624Y-75204604D01*
X59373000Y-75383699D01*
X59373000Y-75566301D01*
X59408624Y-75745396D01*
X59478504Y-75914099D01*
X59579952Y-76065928D01*
X59648000Y-76133976D01*
X59648001Y-77741023D01*
X59579952Y-77809072D01*
X59478504Y-77960901D01*
X59408624Y-78129604D01*
X59373000Y-78308699D01*
X59373000Y-78491301D01*
X59408624Y-78670396D01*
X59451873Y-78774806D01*
X59227000Y-78549934D01*
X59227000Y-78453699D01*
X59191376Y-78274604D01*
X59121496Y-78105901D01*
X59020048Y-77954072D01*
X58890928Y-77824952D01*
X58739099Y-77723504D01*
X58570396Y-77653624D01*
X58391301Y-77618000D01*
X58208699Y-77618000D01*
X58170185Y-77625661D01*
X58177846Y-77587148D01*
X58177846Y-77404546D01*
X58142222Y-77225451D01*
X58072342Y-77056748D01*
X57970894Y-76904919D01*
X57841774Y-76775799D01*
X57689945Y-76674351D01*
X57521242Y-76604471D01*
X57342147Y-76568847D01*
X57159545Y-76568847D01*
X56980450Y-76604471D01*
X56811747Y-76674351D01*
X56659918Y-76775799D01*
X56530798Y-76904919D01*
X56429350Y-77056748D01*
X56359470Y-77225451D01*
X56323846Y-77404546D01*
X51228589Y-77404546D01*
X51110075Y-77286032D01*
X50958246Y-77184584D01*
X50789543Y-77114704D01*
X50610448Y-77079080D01*
X50427846Y-77079080D01*
X50248751Y-77114704D01*
X50080048Y-77184584D01*
X49928219Y-77286032D01*
X49799099Y-77415152D01*
X49752335Y-77485140D01*
X49691301Y-77473000D01*
X49508699Y-77473000D01*
X49329604Y-77508624D01*
X49160901Y-77578504D01*
X49009072Y-77679952D01*
X48879952Y-77809072D01*
X48778504Y-77960901D01*
X48708624Y-78129604D01*
X48673000Y-78308699D01*
X42552000Y-78308699D01*
X42552000Y-71551414D01*
X45233000Y-71551414D01*
X45233000Y-72088586D01*
X45337797Y-72615437D01*
X45543364Y-73111719D01*
X45841801Y-73558361D01*
X46221639Y-73938199D01*
X46668281Y-74236636D01*
X47164563Y-74442203D01*
X47691414Y-74547000D01*
X48228586Y-74547000D01*
X48755437Y-74442203D01*
X49251719Y-74236636D01*
X49698361Y-73938199D01*
X50078199Y-73558361D01*
X50376636Y-73111719D01*
X50582203Y-72615437D01*
X50687000Y-72088586D01*
X50687000Y-71551414D01*
X50582203Y-71024563D01*
X50376636Y-70528281D01*
X50078199Y-70081639D01*
X49698361Y-69701801D01*
X49251719Y-69403364D01*
X48755437Y-69197797D01*
X48228586Y-69093000D01*
X47691414Y-69093000D01*
X47164563Y-69197797D01*
X46668281Y-69403364D01*
X46221639Y-69701801D01*
X45841801Y-70081639D01*
X45543364Y-70528281D01*
X45337797Y-71024563D01*
X45233000Y-71551414D01*
X42552000Y-71551414D01*
X42552000Y-65961414D01*
X45403000Y-65961414D01*
X45403000Y-66498586D01*
X45507797Y-67025437D01*
X45713364Y-67521719D01*
X46011801Y-67968361D01*
X46391639Y-68348199D01*
X46838281Y-68646636D01*
X47334563Y-68852203D01*
X47861414Y-68957000D01*
X48398586Y-68957000D01*
X48925437Y-68852203D01*
X49421719Y-68646636D01*
X49868361Y-68348199D01*
X50248199Y-67968361D01*
X50546636Y-67521719D01*
X50752203Y-67025437D01*
X50857000Y-66498586D01*
X50857000Y-65961414D01*
X50752203Y-65434563D01*
X50546636Y-64938281D01*
X50248199Y-64491639D01*
X49868361Y-64111801D01*
X49421719Y-63813364D01*
X48925437Y-63607797D01*
X48398586Y-63503000D01*
X47861414Y-63503000D01*
X47334563Y-63607797D01*
X46838281Y-63813364D01*
X46391639Y-64111801D01*
X46011801Y-64491639D01*
X45713364Y-64938281D01*
X45507797Y-65434563D01*
X45403000Y-65961414D01*
X42552000Y-65961414D01*
X42552000Y-62569775D01*
X46449830Y-62569775D01*
X46689976Y-62957018D01*
X47183877Y-63217641D01*
X47719133Y-63376901D01*
X48275174Y-63428678D01*
X48830632Y-63370981D01*
X49364161Y-63206028D01*
X49830024Y-62957018D01*
X50070170Y-62569775D01*
X48260000Y-60759605D01*
X46449830Y-62569775D01*
X42552000Y-62569775D01*
X42552000Y-60595174D01*
X45411322Y-60595174D01*
X45469019Y-61150632D01*
X45633972Y-61684161D01*
X45882982Y-62150024D01*
X46270225Y-62390170D01*
X48080395Y-60580000D01*
X48439605Y-60580000D01*
X50249775Y-62390170D01*
X50637018Y-62150024D01*
X50897641Y-61656123D01*
X50977748Y-61386890D01*
X56838524Y-61386890D01*
X56883175Y-61534099D01*
X57008359Y-61796920D01*
X57182412Y-62030269D01*
X57398645Y-62225178D01*
X57618308Y-62356025D01*
X57402213Y-62500414D01*
X57210414Y-62692213D01*
X57059718Y-62917746D01*
X56955917Y-63168344D01*
X56903000Y-63434377D01*
X56903000Y-63705623D01*
X56955917Y-63971656D01*
X57059718Y-64222254D01*
X57210414Y-64447787D01*
X57402213Y-64639586D01*
X57627746Y-64790282D01*
X57747776Y-64840000D01*
X57627746Y-64889718D01*
X57402213Y-65040414D01*
X57210414Y-65232213D01*
X57059718Y-65457746D01*
X56955917Y-65708344D01*
X56903000Y-65974377D01*
X56903000Y-66245623D01*
X56955917Y-66511656D01*
X57059718Y-66762254D01*
X57210414Y-66987787D01*
X57402213Y-67179586D01*
X57627746Y-67330282D01*
X57747776Y-67380000D01*
X57627746Y-67429718D01*
X57402213Y-67580414D01*
X57210414Y-67772213D01*
X57059718Y-67997746D01*
X56955917Y-68248344D01*
X56903000Y-68514377D01*
X56903000Y-68785623D01*
X56955917Y-69051656D01*
X57059718Y-69302254D01*
X57210414Y-69527787D01*
X57402213Y-69719586D01*
X57538202Y-69810451D01*
X57430000Y-69810451D01*
X57326690Y-69820626D01*
X57227350Y-69850761D01*
X57135798Y-69899696D01*
X57055552Y-69965552D01*
X56989696Y-70045798D01*
X56940761Y-70137350D01*
X56910626Y-70236690D01*
X56900451Y-70340000D01*
X56900451Y-72040000D01*
X56910626Y-72143310D01*
X56940761Y-72242650D01*
X56989696Y-72334202D01*
X57055552Y-72414448D01*
X57135798Y-72480304D01*
X57227350Y-72529239D01*
X57326690Y-72559374D01*
X57430000Y-72569549D01*
X59130000Y-72569549D01*
X59233310Y-72559374D01*
X59332650Y-72529239D01*
X59424202Y-72480304D01*
X59504448Y-72414448D01*
X59570304Y-72334202D01*
X59619239Y-72242650D01*
X59649374Y-72143310D01*
X59659549Y-72040000D01*
X59659549Y-71108699D01*
X60873000Y-71108699D01*
X60873000Y-71291301D01*
X60908624Y-71470396D01*
X60978504Y-71639099D01*
X61079952Y-71790928D01*
X61209072Y-71920048D01*
X61360901Y-72021496D01*
X61529604Y-72091376D01*
X61708699Y-72127000D01*
X61891301Y-72127000D01*
X62070396Y-72091376D01*
X62239099Y-72021496D01*
X62390928Y-71920048D01*
X62520048Y-71790928D01*
X62621496Y-71639099D01*
X62691376Y-71470396D01*
X62727000Y-71291301D01*
X62727000Y-71108699D01*
X62691376Y-70929604D01*
X62621496Y-70760901D01*
X62520048Y-70609072D01*
X62452000Y-70541024D01*
X62452000Y-69515722D01*
X62508699Y-69527000D01*
X62691301Y-69527000D01*
X62870396Y-69491376D01*
X62973000Y-69448875D01*
X62973000Y-72838474D01*
X62868337Y-72995114D01*
X62772074Y-73227513D01*
X62723000Y-73474226D01*
X62723000Y-73725774D01*
X62772074Y-73972487D01*
X62868337Y-74204886D01*
X62973001Y-74361527D01*
X62973000Y-83974603D01*
X62912282Y-84035321D01*
X62727513Y-84072074D01*
X62495114Y-84168337D01*
X62285960Y-84308089D01*
X62108089Y-84485960D01*
X61968337Y-84695114D01*
X61872074Y-84927513D01*
X61823000Y-85174226D01*
X61823000Y-85425774D01*
X61872074Y-85672487D01*
X61968337Y-85904886D01*
X62108089Y-86114040D01*
X62285960Y-86291911D01*
X62495114Y-86431663D01*
X62727513Y-86527926D01*
X62974226Y-86577000D01*
X63225774Y-86577000D01*
X63472487Y-86527926D01*
X63704886Y-86431663D01*
X63914040Y-86291911D01*
X64091911Y-86114040D01*
X64231663Y-85904886D01*
X64327926Y-85672487D01*
X64364679Y-85487718D01*
X64690524Y-85161873D01*
X64729712Y-85129712D01*
X64858051Y-84973331D01*
X64953415Y-84794917D01*
X65012140Y-84601327D01*
X65027000Y-84450451D01*
X65027000Y-84450442D01*
X65031968Y-84400001D01*
X65027000Y-84349560D01*
X65027000Y-82574226D01*
X65423000Y-82574226D01*
X65423000Y-82825774D01*
X65472074Y-83072487D01*
X65568337Y-83304886D01*
X65673000Y-83461526D01*
X65673001Y-88238473D01*
X65568337Y-88395114D01*
X65472074Y-88627513D01*
X65423000Y-88874226D01*
X65423000Y-89125774D01*
X65472074Y-89372487D01*
X65568337Y-89604886D01*
X65673000Y-89761526D01*
X65673001Y-90438474D01*
X65568337Y-90595114D01*
X65472074Y-90827513D01*
X65423000Y-91074226D01*
X65423000Y-91325774D01*
X65472074Y-91572487D01*
X65568337Y-91804886D01*
X65708089Y-92014040D01*
X65885960Y-92191911D01*
X66095114Y-92331663D01*
X66327513Y-92427926D01*
X66574226Y-92477000D01*
X66825774Y-92477000D01*
X67072487Y-92427926D01*
X67304886Y-92331663D01*
X67514040Y-92191911D01*
X67691911Y-92014040D01*
X67831663Y-91804886D01*
X67912926Y-91608699D01*
X78673000Y-91608699D01*
X78673000Y-91791301D01*
X78708624Y-91970396D01*
X78778504Y-92139099D01*
X78879952Y-92290928D01*
X78948000Y-92358976D01*
X78948001Y-93416023D01*
X78879952Y-93484072D01*
X78778504Y-93635901D01*
X78708624Y-93804604D01*
X78673000Y-93983699D01*
X78673000Y-94166301D01*
X78708624Y-94345396D01*
X78778504Y-94514099D01*
X78879952Y-94665928D01*
X79009072Y-94795048D01*
X79160901Y-94896496D01*
X79329604Y-94966376D01*
X79508699Y-95002000D01*
X79691301Y-95002000D01*
X79870396Y-94966376D01*
X80039099Y-94896496D01*
X80190928Y-94795048D01*
X80320048Y-94665928D01*
X80421496Y-94514099D01*
X80491376Y-94345396D01*
X80527000Y-94166301D01*
X80527000Y-93983699D01*
X80491376Y-93804604D01*
X80421496Y-93635901D01*
X80320048Y-93484072D01*
X80252000Y-93416024D01*
X80252000Y-92358976D01*
X80320048Y-92290928D01*
X80421496Y-92139099D01*
X80491376Y-91970396D01*
X80527000Y-91791301D01*
X80527000Y-91608699D01*
X80491376Y-91429604D01*
X80421496Y-91260901D01*
X80363583Y-91174226D01*
X86223000Y-91174226D01*
X86223000Y-91425774D01*
X86272074Y-91672487D01*
X86368337Y-91904886D01*
X86508089Y-92114040D01*
X86685960Y-92291911D01*
X86895114Y-92431663D01*
X87127513Y-92527926D01*
X87374226Y-92577000D01*
X87625774Y-92577000D01*
X87872487Y-92527926D01*
X88104886Y-92431663D01*
X88314040Y-92291911D01*
X88491911Y-92114040D01*
X88631663Y-91904886D01*
X88727926Y-91672487D01*
X88777000Y-91425774D01*
X88777000Y-91174226D01*
X88727926Y-90927513D01*
X88631663Y-90695114D01*
X88627000Y-90688135D01*
X88627000Y-89361526D01*
X88731663Y-89204886D01*
X88827926Y-88972487D01*
X88877000Y-88725774D01*
X88877000Y-88474226D01*
X88827926Y-88227513D01*
X88731663Y-87995114D01*
X88627000Y-87838474D01*
X88627000Y-85508699D01*
X89973000Y-85508699D01*
X89973000Y-85691301D01*
X90008624Y-85870396D01*
X90078504Y-86039099D01*
X90179952Y-86190928D01*
X90309072Y-86320048D01*
X90460901Y-86421496D01*
X90629604Y-86491376D01*
X90808699Y-86527000D01*
X90973000Y-86527000D01*
X90973000Y-86591301D01*
X91008624Y-86770396D01*
X91078504Y-86939099D01*
X91179952Y-87090928D01*
X91309072Y-87220048D01*
X91460901Y-87321496D01*
X91629604Y-87391376D01*
X91808699Y-87427000D01*
X91991301Y-87427000D01*
X92170396Y-87391376D01*
X92339099Y-87321496D01*
X92490928Y-87220048D01*
X92620048Y-87090928D01*
X92721496Y-86939099D01*
X92791376Y-86770396D01*
X92827000Y-86591301D01*
X92827000Y-86408699D01*
X92791376Y-86229604D01*
X92721496Y-86060901D01*
X92620048Y-85909072D01*
X92581231Y-85870255D01*
X92581231Y-78703976D01*
X92649279Y-78635928D01*
X92750727Y-78484099D01*
X92820607Y-78315396D01*
X92856231Y-78136301D01*
X92856231Y-77953699D01*
X92820607Y-77774604D01*
X92750727Y-77605901D01*
X92649279Y-77454072D01*
X92520159Y-77324952D01*
X92368330Y-77223504D01*
X92199627Y-77153624D01*
X92020532Y-77118000D01*
X91837930Y-77118000D01*
X91658835Y-77153624D01*
X91490132Y-77223504D01*
X91338303Y-77324952D01*
X91209183Y-77454072D01*
X91107735Y-77605901D01*
X91101406Y-77621180D01*
X91086156Y-77618147D01*
X90903554Y-77618147D01*
X90724459Y-77653771D01*
X90555756Y-77723651D01*
X90403927Y-77825099D01*
X90274807Y-77954219D01*
X90173359Y-78106048D01*
X90103479Y-78274751D01*
X90067855Y-78453846D01*
X90067855Y-78636448D01*
X90103479Y-78815543D01*
X90173359Y-78984246D01*
X90274807Y-79136075D01*
X90342855Y-79204123D01*
X90342856Y-84857379D01*
X90309072Y-84879952D01*
X90179952Y-85009072D01*
X90078504Y-85160901D01*
X90008624Y-85329604D01*
X89973000Y-85508699D01*
X88627000Y-85508699D01*
X88627000Y-83361526D01*
X88731663Y-83204886D01*
X88827926Y-82972487D01*
X88877000Y-82725774D01*
X88877000Y-82474226D01*
X88827926Y-82227513D01*
X88731663Y-81995114D01*
X88591911Y-81785960D01*
X88414040Y-81608089D01*
X88204886Y-81468337D01*
X87972487Y-81372074D01*
X87725774Y-81323000D01*
X87474226Y-81323000D01*
X87227513Y-81372074D01*
X86995114Y-81468337D01*
X86785960Y-81608089D01*
X86608089Y-81785960D01*
X86468337Y-81995114D01*
X86372074Y-82227513D01*
X86323000Y-82474226D01*
X86323000Y-82725774D01*
X86372074Y-82972487D01*
X86468337Y-83204886D01*
X86573000Y-83361526D01*
X86573001Y-87838473D01*
X86468337Y-87995114D01*
X86372074Y-88227513D01*
X86323000Y-88474226D01*
X86323000Y-88725774D01*
X86372074Y-88972487D01*
X86468337Y-89204886D01*
X86573000Y-89361526D01*
X86573001Y-90421048D01*
X86508089Y-90485960D01*
X86368337Y-90695114D01*
X86272074Y-90927513D01*
X86223000Y-91174226D01*
X80363583Y-91174226D01*
X80320048Y-91109072D01*
X80190928Y-90979952D01*
X80039099Y-90878504D01*
X79870396Y-90808624D01*
X79691301Y-90773000D01*
X79508699Y-90773000D01*
X79329604Y-90808624D01*
X79160901Y-90878504D01*
X79009072Y-90979952D01*
X78879952Y-91109072D01*
X78778504Y-91260901D01*
X78708624Y-91429604D01*
X78673000Y-91608699D01*
X67912926Y-91608699D01*
X67927926Y-91572487D01*
X67977000Y-91325774D01*
X67977000Y-91074226D01*
X67927926Y-90827513D01*
X67831663Y-90595114D01*
X67727000Y-90438474D01*
X67727000Y-89761526D01*
X67831663Y-89604886D01*
X67927926Y-89372487D01*
X67977000Y-89125774D01*
X67977000Y-88874226D01*
X67927926Y-88627513D01*
X67831663Y-88395114D01*
X67727000Y-88238474D01*
X67727000Y-85608699D01*
X68973000Y-85608699D01*
X68973000Y-85791301D01*
X69008624Y-85970396D01*
X69078504Y-86139099D01*
X69179952Y-86290928D01*
X69309072Y-86420048D01*
X69460901Y-86521496D01*
X69629604Y-86591376D01*
X69808699Y-86627000D01*
X69980101Y-86627000D01*
X70008624Y-86770396D01*
X70078504Y-86939099D01*
X70179952Y-87090928D01*
X70309072Y-87220048D01*
X70460901Y-87321496D01*
X70629604Y-87391376D01*
X70808699Y-87427000D01*
X70991301Y-87427000D01*
X71170396Y-87391376D01*
X71339099Y-87321496D01*
X71490928Y-87220048D01*
X71620048Y-87090928D01*
X71631207Y-87074226D01*
X73523000Y-87074226D01*
X73523000Y-87325774D01*
X73572074Y-87572487D01*
X73668337Y-87804886D01*
X73808089Y-88014040D01*
X73985960Y-88191911D01*
X74195114Y-88331663D01*
X74427513Y-88427926D01*
X74674226Y-88477000D01*
X74925774Y-88477000D01*
X75172487Y-88427926D01*
X75404886Y-88331663D01*
X75614040Y-88191911D01*
X75791911Y-88014040D01*
X75931663Y-87804886D01*
X76027926Y-87572487D01*
X76077000Y-87325774D01*
X76077000Y-87074226D01*
X76027926Y-86827513D01*
X75931663Y-86595114D01*
X75827000Y-86438474D01*
X75827000Y-79903699D01*
X76459441Y-79903699D01*
X76459441Y-80086301D01*
X76495065Y-80265396D01*
X76564945Y-80434099D01*
X76666393Y-80585928D01*
X76795513Y-80715048D01*
X76947342Y-80816496D01*
X77116045Y-80886376D01*
X77295140Y-80922000D01*
X77477742Y-80922000D01*
X77656837Y-80886376D01*
X77825540Y-80816496D01*
X77977369Y-80715048D01*
X78106489Y-80585928D01*
X78207937Y-80434099D01*
X78277817Y-80265396D01*
X78313441Y-80086301D01*
X78313441Y-79954878D01*
X78336737Y-79983264D01*
X78348000Y-79992507D01*
X78348000Y-80086301D01*
X78383624Y-80265396D01*
X78453504Y-80434099D01*
X78554952Y-80585928D01*
X78684072Y-80715048D01*
X78835901Y-80816496D01*
X79004604Y-80886376D01*
X79183699Y-80922000D01*
X79366301Y-80922000D01*
X79545396Y-80886376D01*
X79714099Y-80816496D01*
X79865928Y-80715048D01*
X79995048Y-80585928D01*
X80096496Y-80434099D01*
X80166376Y-80265396D01*
X80202000Y-80086301D01*
X80202000Y-79903699D01*
X80166376Y-79724604D01*
X80096496Y-79555901D01*
X80077185Y-79527000D01*
X80091301Y-79527000D01*
X80270396Y-79491376D01*
X80439099Y-79421496D01*
X80590928Y-79320048D01*
X80720048Y-79190928D01*
X80821496Y-79039099D01*
X80891376Y-78870396D01*
X80927000Y-78691301D01*
X80927000Y-78508699D01*
X80891376Y-78329604D01*
X80827000Y-78174189D01*
X80827000Y-77127000D01*
X80991301Y-77127000D01*
X81170396Y-77091376D01*
X81339099Y-77021496D01*
X81490928Y-76920048D01*
X81620048Y-76790928D01*
X81698001Y-76674262D01*
X81698001Y-78191023D01*
X81579952Y-78309072D01*
X81478504Y-78460901D01*
X81408624Y-78629604D01*
X81373000Y-78808699D01*
X81373000Y-78991301D01*
X81408624Y-79170396D01*
X81478504Y-79339099D01*
X81579952Y-79490928D01*
X81709072Y-79620048D01*
X81860901Y-79721496D01*
X82029604Y-79791376D01*
X82208699Y-79827000D01*
X82391301Y-79827000D01*
X82570396Y-79791376D01*
X82739099Y-79721496D01*
X82890928Y-79620048D01*
X83020048Y-79490928D01*
X83121496Y-79339099D01*
X83191376Y-79170396D01*
X83227000Y-78991301D01*
X83227000Y-78808699D01*
X83191376Y-78629604D01*
X83121496Y-78460901D01*
X83020048Y-78309072D01*
X83002000Y-78291024D01*
X83002000Y-75762095D01*
X83008624Y-75795396D01*
X83078504Y-75964099D01*
X83179952Y-76115928D01*
X83309072Y-76245048D01*
X83460901Y-76346496D01*
X83629604Y-76416376D01*
X83808699Y-76452000D01*
X83991301Y-76452000D01*
X84170396Y-76416376D01*
X84339099Y-76346496D01*
X84490928Y-76245048D01*
X84620048Y-76115928D01*
X84721496Y-75964099D01*
X84791376Y-75795396D01*
X84827000Y-75616301D01*
X84827000Y-75608699D01*
X95373000Y-75608699D01*
X95373000Y-75791301D01*
X95408624Y-75970396D01*
X95478504Y-76139099D01*
X95579952Y-76290928D01*
X95648000Y-76358976D01*
X95648001Y-86341023D01*
X95579952Y-86409072D01*
X95478504Y-86560901D01*
X95408624Y-86729604D01*
X95373000Y-86908699D01*
X95373000Y-87091301D01*
X95408624Y-87270396D01*
X95478504Y-87439099D01*
X95579952Y-87590928D01*
X95709072Y-87720048D01*
X95860901Y-87821496D01*
X96029604Y-87891376D01*
X96208699Y-87927000D01*
X96391301Y-87927000D01*
X96570396Y-87891376D01*
X96739099Y-87821496D01*
X96890928Y-87720048D01*
X97020048Y-87590928D01*
X97121496Y-87439099D01*
X97191376Y-87270396D01*
X97227000Y-87091301D01*
X97227000Y-86908699D01*
X97191376Y-86729604D01*
X97121496Y-86560901D01*
X97020048Y-86409072D01*
X96952000Y-86341024D01*
X96952000Y-76358976D01*
X97020048Y-76290928D01*
X97121496Y-76139099D01*
X97191376Y-75970396D01*
X97227000Y-75791301D01*
X97227000Y-75608699D01*
X97191376Y-75429604D01*
X97121496Y-75260901D01*
X97020048Y-75109072D01*
X96890928Y-74979952D01*
X96739099Y-74878504D01*
X96570396Y-74808624D01*
X96391301Y-74773000D01*
X96208699Y-74773000D01*
X96029604Y-74808624D01*
X95860901Y-74878504D01*
X95709072Y-74979952D01*
X95579952Y-75109072D01*
X95478504Y-75260901D01*
X95408624Y-75429604D01*
X95373000Y-75608699D01*
X84827000Y-75608699D01*
X84827000Y-75433699D01*
X84791376Y-75254604D01*
X84721496Y-75085901D01*
X84620048Y-74934072D01*
X84552000Y-74866024D01*
X84552000Y-70758976D01*
X84620048Y-70690928D01*
X84721496Y-70539099D01*
X84791376Y-70370396D01*
X84827000Y-70191301D01*
X84827000Y-70008699D01*
X84791376Y-69829604D01*
X84721496Y-69660901D01*
X84620048Y-69509072D01*
X84490928Y-69379952D01*
X84339099Y-69278504D01*
X84170396Y-69208624D01*
X83991301Y-69173000D01*
X83970226Y-69173000D01*
X83966376Y-69153647D01*
X83896496Y-68984944D01*
X83795048Y-68833115D01*
X83665928Y-68703995D01*
X83514099Y-68602547D01*
X83345396Y-68532667D01*
X83277000Y-68519062D01*
X83277000Y-68508699D01*
X83241376Y-68329604D01*
X83171496Y-68160901D01*
X83070048Y-68009072D01*
X82940928Y-67879952D01*
X82789099Y-67778504D01*
X82620396Y-67708624D01*
X82441301Y-67673000D01*
X82362286Y-67673000D01*
X82446496Y-67546969D01*
X82516376Y-67378266D01*
X82552000Y-67199171D01*
X82552000Y-67016569D01*
X82516376Y-66837474D01*
X82446496Y-66668771D01*
X82345048Y-66516942D01*
X82215928Y-66387822D01*
X82064099Y-66286374D01*
X81895396Y-66216494D01*
X81805086Y-66198530D01*
X81791376Y-66129604D01*
X81721496Y-65960901D01*
X81620048Y-65809072D01*
X81490928Y-65679952D01*
X81339099Y-65578504D01*
X81170396Y-65508624D01*
X80991301Y-65473000D01*
X80808699Y-65473000D01*
X80629604Y-65508624D01*
X80460901Y-65578504D01*
X80309072Y-65679952D01*
X80179952Y-65809072D01*
X80078504Y-65960901D01*
X80008624Y-66129604D01*
X79973000Y-66308699D01*
X79973000Y-66491301D01*
X80008624Y-66670396D01*
X80078504Y-66839099D01*
X80179952Y-66990928D01*
X80248000Y-67058976D01*
X80248000Y-67208000D01*
X80083699Y-67208000D01*
X79904604Y-67243624D01*
X79735901Y-67313504D01*
X79584072Y-67414952D01*
X79454952Y-67544072D01*
X79353504Y-67695901D01*
X79283624Y-67864604D01*
X79248000Y-68043699D01*
X79248000Y-68226301D01*
X79283624Y-68405396D01*
X79353504Y-68574099D01*
X79454952Y-68725928D01*
X79523000Y-68793976D01*
X79523001Y-77803828D01*
X79431166Y-77865190D01*
X79390928Y-77824952D01*
X79239099Y-77723504D01*
X79070396Y-77653624D01*
X78891301Y-77618000D01*
X78708699Y-77618000D01*
X78529604Y-77653624D01*
X78414032Y-77701496D01*
X78427000Y-77636301D01*
X78427000Y-77453699D01*
X78391376Y-77274604D01*
X78321496Y-77105901D01*
X78220048Y-76954072D01*
X78090928Y-76824952D01*
X77939099Y-76723504D01*
X77770396Y-76653624D01*
X77591301Y-76618000D01*
X77408699Y-76618000D01*
X77229604Y-76653624D01*
X77060901Y-76723504D01*
X76909072Y-76824952D01*
X76779952Y-76954072D01*
X76678504Y-77105901D01*
X76608624Y-77274604D01*
X76573000Y-77453699D01*
X76573000Y-77636301D01*
X76608624Y-77815396D01*
X76678504Y-77984099D01*
X76779952Y-78135928D01*
X76848000Y-78203976D01*
X76848001Y-79239881D01*
X76795513Y-79274952D01*
X76666393Y-79404072D01*
X76564945Y-79555901D01*
X76495065Y-79724604D01*
X76459441Y-79903699D01*
X75827000Y-79903699D01*
X75827000Y-77442940D01*
X75939099Y-77396506D01*
X76090928Y-77295058D01*
X76220048Y-77165938D01*
X76321496Y-77014109D01*
X76391376Y-76845406D01*
X76427000Y-76666311D01*
X76427000Y-76483709D01*
X76391376Y-76304614D01*
X76321496Y-76135911D01*
X76220048Y-75984082D01*
X76152000Y-75916034D01*
X76152000Y-75253569D01*
X76204886Y-75231663D01*
X76414040Y-75091911D01*
X76591911Y-74914040D01*
X76731663Y-74704886D01*
X76827926Y-74472487D01*
X76877000Y-74225774D01*
X76877000Y-73974226D01*
X76827926Y-73727513D01*
X76731663Y-73495114D01*
X76591911Y-73285960D01*
X76414040Y-73108089D01*
X76204886Y-72968337D01*
X75972487Y-72872074D01*
X75725774Y-72823000D01*
X75474226Y-72823000D01*
X75227513Y-72872074D01*
X74995114Y-72968337D01*
X74785960Y-73108089D01*
X74608089Y-73285960D01*
X74468337Y-73495114D01*
X74372074Y-73727513D01*
X74335321Y-73912282D01*
X74109480Y-74138124D01*
X74070288Y-74170288D01*
X73941949Y-74326669D01*
X73846585Y-74505084D01*
X73787860Y-74698674D01*
X73773000Y-74849550D01*
X73773000Y-74849559D01*
X73768032Y-74900000D01*
X73773000Y-74950441D01*
X73773001Y-86438473D01*
X73668337Y-86595114D01*
X73572074Y-86827513D01*
X73523000Y-87074226D01*
X71631207Y-87074226D01*
X71721496Y-86939099D01*
X71791376Y-86770396D01*
X71827000Y-86591301D01*
X71827000Y-86408699D01*
X71791376Y-86229604D01*
X71721496Y-86060901D01*
X71620048Y-85909072D01*
X71571350Y-85860374D01*
X71571350Y-78703976D01*
X71639398Y-78635928D01*
X71740846Y-78484099D01*
X71810726Y-78315396D01*
X71846350Y-78136301D01*
X71846350Y-77953699D01*
X71810726Y-77774604D01*
X71740846Y-77605901D01*
X71639398Y-77454072D01*
X71510278Y-77324952D01*
X71358449Y-77223504D01*
X71189746Y-77153624D01*
X71010651Y-77118000D01*
X70828049Y-77118000D01*
X70648954Y-77153624D01*
X70480251Y-77223504D01*
X70328422Y-77324952D01*
X70199302Y-77454072D01*
X70097854Y-77605901D01*
X70077074Y-77656067D01*
X70026338Y-77645975D01*
X69843736Y-77645975D01*
X69664641Y-77681599D01*
X69495938Y-77751479D01*
X69344109Y-77852927D01*
X69214989Y-77982047D01*
X69113541Y-78133876D01*
X69043661Y-78302579D01*
X69008037Y-78481674D01*
X69008037Y-78664276D01*
X69043661Y-78843371D01*
X69113541Y-79012074D01*
X69214989Y-79163903D01*
X69283037Y-79231951D01*
X69283038Y-85005986D01*
X69179952Y-85109072D01*
X69078504Y-85260901D01*
X69008624Y-85429604D01*
X68973000Y-85608699D01*
X67727000Y-85608699D01*
X67727000Y-83461526D01*
X67831663Y-83304886D01*
X67927926Y-83072487D01*
X67977000Y-82825774D01*
X67977000Y-82574226D01*
X67927926Y-82327513D01*
X67831663Y-82095114D01*
X67691911Y-81885960D01*
X67514040Y-81708089D01*
X67304886Y-81568337D01*
X67072487Y-81472074D01*
X66825774Y-81423000D01*
X66574226Y-81423000D01*
X66327513Y-81472074D01*
X66095114Y-81568337D01*
X65885960Y-81708089D01*
X65708089Y-81885960D01*
X65568337Y-82095114D01*
X65472074Y-82327513D01*
X65423000Y-82574226D01*
X65027000Y-82574226D01*
X65027000Y-74361526D01*
X65131663Y-74204886D01*
X65227926Y-73972487D01*
X65277000Y-73725774D01*
X65277000Y-73474226D01*
X65227926Y-73227513D01*
X65131663Y-72995114D01*
X65027000Y-72838474D01*
X65027000Y-71327000D01*
X65191301Y-71327000D01*
X65370396Y-71291376D01*
X65539099Y-71221496D01*
X65690928Y-71120048D01*
X65820048Y-70990928D01*
X65921496Y-70839099D01*
X65991376Y-70670396D01*
X66027000Y-70491301D01*
X66027000Y-70308699D01*
X65991376Y-70129604D01*
X65921496Y-69960901D01*
X65820048Y-69809072D01*
X65752000Y-69741024D01*
X65752000Y-66758976D01*
X65804618Y-66706358D01*
X72955400Y-66706358D01*
X72955400Y-66888960D01*
X72991024Y-67068055D01*
X73060904Y-67236758D01*
X73162352Y-67388587D01*
X73230400Y-67456635D01*
X73230401Y-70558623D01*
X73179952Y-70609072D01*
X73078504Y-70760901D01*
X73008624Y-70929604D01*
X72973000Y-71108699D01*
X72973000Y-71291301D01*
X73008624Y-71470396D01*
X73078504Y-71639099D01*
X73179952Y-71790928D01*
X73309072Y-71920048D01*
X73460901Y-72021496D01*
X73629604Y-72091376D01*
X73808699Y-72127000D01*
X73991301Y-72127000D01*
X74170396Y-72091376D01*
X74339099Y-72021496D01*
X74490928Y-71920048D01*
X74620048Y-71790928D01*
X74721496Y-71639099D01*
X74791376Y-71470396D01*
X74827000Y-71291301D01*
X74827000Y-71108699D01*
X74791376Y-70929604D01*
X74721496Y-70760901D01*
X74620048Y-70609072D01*
X74534400Y-70523424D01*
X74534400Y-67456635D01*
X74602448Y-67388587D01*
X74703896Y-67236758D01*
X74773776Y-67068055D01*
X74809400Y-66888960D01*
X74809400Y-66706358D01*
X74773776Y-66527263D01*
X74703896Y-66358560D01*
X74602448Y-66206731D01*
X74473328Y-66077611D01*
X74321499Y-65976163D01*
X74160121Y-65909317D01*
X74208984Y-65909317D01*
X74388079Y-65873693D01*
X74556782Y-65803813D01*
X74708611Y-65702365D01*
X74837731Y-65573245D01*
X74939179Y-65421416D01*
X75009059Y-65252713D01*
X75044683Y-65073618D01*
X75044683Y-64891016D01*
X75009059Y-64711921D01*
X74939179Y-64543218D01*
X74837731Y-64391389D01*
X74752000Y-64305658D01*
X74752000Y-64149095D01*
X74779952Y-64190928D01*
X74909072Y-64320048D01*
X75060901Y-64421496D01*
X75229604Y-64491376D01*
X75408699Y-64527000D01*
X75591301Y-64527000D01*
X75770396Y-64491376D01*
X75939099Y-64421496D01*
X76090928Y-64320048D01*
X76220048Y-64190928D01*
X76272024Y-64113140D01*
X76435718Y-64180945D01*
X76614813Y-64216569D01*
X76797415Y-64216569D01*
X76976510Y-64180945D01*
X77114604Y-64123744D01*
X77260901Y-64221496D01*
X77429604Y-64291376D01*
X77608699Y-64327000D01*
X77791301Y-64327000D01*
X77970396Y-64291376D01*
X78139099Y-64221496D01*
X78290928Y-64120048D01*
X78420048Y-63990928D01*
X78521496Y-63839099D01*
X78591376Y-63670396D01*
X78627000Y-63491301D01*
X78627000Y-63308699D01*
X78591376Y-63129604D01*
X78521496Y-62960901D01*
X78420048Y-62809072D01*
X78290928Y-62679952D01*
X78152000Y-62587124D01*
X78152000Y-60266336D01*
X78155154Y-60234314D01*
X78142565Y-60106500D01*
X78112897Y-60008699D01*
X78105283Y-59983598D01*
X78044741Y-59870331D01*
X77963264Y-59771051D01*
X77938382Y-59750631D01*
X77849370Y-59661619D01*
X77828949Y-59636736D01*
X77729669Y-59555259D01*
X77616402Y-59494717D01*
X77493499Y-59457435D01*
X77465670Y-59454694D01*
X77390928Y-59379952D01*
X77239099Y-59278504D01*
X77070396Y-59208624D01*
X76891301Y-59173000D01*
X76708699Y-59173000D01*
X76529604Y-59208624D01*
X76360901Y-59278504D01*
X76352000Y-59284451D01*
X76352000Y-59233976D01*
X76420048Y-59165928D01*
X76521496Y-59014099D01*
X76591376Y-58845396D01*
X76627000Y-58666301D01*
X76627000Y-58483699D01*
X76591376Y-58304604D01*
X76521496Y-58135901D01*
X76420048Y-57984072D01*
X76290928Y-57854952D01*
X76139099Y-57753504D01*
X75970396Y-57683624D01*
X75791301Y-57648000D01*
X75608699Y-57648000D01*
X75429604Y-57683624D01*
X75260901Y-57753504D01*
X75255956Y-57756808D01*
X75141766Y-57680509D01*
X74973063Y-57610629D01*
X74793968Y-57575005D01*
X74611366Y-57575005D01*
X74432271Y-57610629D01*
X74263568Y-57680509D01*
X74111739Y-57781957D01*
X73982619Y-57911077D01*
X73881171Y-58062906D01*
X73811291Y-58231609D01*
X73775667Y-58410704D01*
X73775667Y-58430966D01*
X73660901Y-58478504D01*
X73509072Y-58579952D01*
X73379952Y-58709072D01*
X73278504Y-58860901D01*
X73208624Y-59029604D01*
X73173000Y-59208699D01*
X73173000Y-59391301D01*
X73208624Y-59570396D01*
X73278504Y-59739099D01*
X73379952Y-59890928D01*
X73448000Y-59958976D01*
X73448001Y-64341023D01*
X73397635Y-64391389D01*
X73296187Y-64543218D01*
X73226307Y-64711921D01*
X73190683Y-64891016D01*
X73190683Y-65073618D01*
X73226307Y-65252713D01*
X73296187Y-65421416D01*
X73397635Y-65573245D01*
X73526755Y-65702365D01*
X73678584Y-65803813D01*
X73839962Y-65870659D01*
X73791099Y-65870659D01*
X73612004Y-65906283D01*
X73443301Y-65976163D01*
X73291472Y-66077611D01*
X73162352Y-66206731D01*
X73060904Y-66358560D01*
X72991024Y-66527263D01*
X72955400Y-66706358D01*
X65804618Y-66706358D01*
X65820048Y-66690928D01*
X65921496Y-66539099D01*
X65991376Y-66370396D01*
X66027000Y-66191301D01*
X66027000Y-66008699D01*
X65991376Y-65829604D01*
X65921496Y-65660901D01*
X65820048Y-65509072D01*
X65690928Y-65379952D01*
X65539099Y-65278504D01*
X65370396Y-65208624D01*
X65191301Y-65173000D01*
X65027000Y-65173000D01*
X65027000Y-63605346D01*
X65204886Y-63531663D01*
X65414040Y-63391911D01*
X65591911Y-63214040D01*
X65731663Y-63004886D01*
X65827926Y-62772487D01*
X65877000Y-62525774D01*
X65877000Y-62274226D01*
X65827926Y-62027513D01*
X65731663Y-61795114D01*
X65591911Y-61585960D01*
X65414040Y-61408089D01*
X65204886Y-61268337D01*
X64972487Y-61172074D01*
X64725774Y-61123000D01*
X64474226Y-61123000D01*
X64227513Y-61172074D01*
X63995114Y-61268337D01*
X63785960Y-61408089D01*
X63608089Y-61585960D01*
X63468337Y-61795114D01*
X63372074Y-62027513D01*
X63335321Y-62212283D01*
X63309476Y-62238128D01*
X63270289Y-62270288D01*
X63252000Y-62292573D01*
X63252000Y-60646059D01*
X63290928Y-60620048D01*
X63420048Y-60490928D01*
X63521496Y-60339099D01*
X63591376Y-60170396D01*
X63627000Y-59991301D01*
X63627000Y-59808699D01*
X63591376Y-59629604D01*
X63521496Y-59460901D01*
X63420048Y-59309072D01*
X63290928Y-59179952D01*
X63139099Y-59078504D01*
X62970396Y-59008624D01*
X62791301Y-58973000D01*
X62608699Y-58973000D01*
X62429604Y-59008624D01*
X62260901Y-59078504D01*
X62109072Y-59179952D01*
X61979952Y-59309072D01*
X61878504Y-59460901D01*
X61808624Y-59629604D01*
X61773000Y-59808699D01*
X61773000Y-59975128D01*
X61604604Y-60008624D01*
X61435901Y-60078504D01*
X61284072Y-60179952D01*
X61154952Y-60309072D01*
X61053504Y-60460901D01*
X60983624Y-60629604D01*
X60948000Y-60808699D01*
X60948000Y-60991301D01*
X60983624Y-61170396D01*
X61053504Y-61339099D01*
X61148001Y-61480525D01*
X61148000Y-70541024D01*
X61079952Y-70609072D01*
X60978504Y-70760901D01*
X60908624Y-70929604D01*
X60873000Y-71108699D01*
X59659549Y-71108699D01*
X59659549Y-70340000D01*
X59649374Y-70236690D01*
X59619239Y-70137350D01*
X59570304Y-70045798D01*
X59504448Y-69965552D01*
X59424202Y-69899696D01*
X59332650Y-69850761D01*
X59233310Y-69820626D01*
X59130000Y-69810451D01*
X59021798Y-69810451D01*
X59157787Y-69719586D01*
X59349586Y-69527787D01*
X59500282Y-69302254D01*
X59604083Y-69051656D01*
X59657000Y-68785623D01*
X59657000Y-68514377D01*
X59604083Y-68248344D01*
X59500282Y-67997746D01*
X59349586Y-67772213D01*
X59157787Y-67580414D01*
X58932254Y-67429718D01*
X58812224Y-67380000D01*
X58932254Y-67330282D01*
X59157787Y-67179586D01*
X59349586Y-66987787D01*
X59500282Y-66762254D01*
X59604083Y-66511656D01*
X59657000Y-66245623D01*
X59657000Y-65974377D01*
X59604083Y-65708344D01*
X59500282Y-65457746D01*
X59349586Y-65232213D01*
X59157787Y-65040414D01*
X58932254Y-64889718D01*
X58812224Y-64840000D01*
X58932254Y-64790282D01*
X59157787Y-64639586D01*
X59349586Y-64447787D01*
X59500282Y-64222254D01*
X59604083Y-63971656D01*
X59657000Y-63705623D01*
X59657000Y-63434377D01*
X59604083Y-63168344D01*
X59500282Y-62917746D01*
X59349586Y-62692213D01*
X59157787Y-62500414D01*
X58941692Y-62356025D01*
X59161355Y-62225178D01*
X59377588Y-62030269D01*
X59551641Y-61796920D01*
X59676825Y-61534099D01*
X59721476Y-61386890D01*
X59600155Y-61157000D01*
X58407000Y-61157000D01*
X58407000Y-61177000D01*
X58153000Y-61177000D01*
X58153000Y-61157000D01*
X56959845Y-61157000D01*
X56838524Y-61386890D01*
X50977748Y-61386890D01*
X51056901Y-61120867D01*
X51098594Y-60673110D01*
X56838524Y-60673110D01*
X56959845Y-60903000D01*
X58153000Y-60903000D01*
X58153000Y-59709186D01*
X58407000Y-59709186D01*
X58407000Y-60903000D01*
X59600155Y-60903000D01*
X59721476Y-60673110D01*
X59676825Y-60525901D01*
X59551641Y-60263080D01*
X59377588Y-60029731D01*
X59161355Y-59834822D01*
X58911252Y-59685843D01*
X58636891Y-59588519D01*
X58407000Y-59709186D01*
X58153000Y-59709186D01*
X57923109Y-59588519D01*
X57648748Y-59685843D01*
X57398645Y-59834822D01*
X57182412Y-60029731D01*
X57008359Y-60263080D01*
X56883175Y-60525901D01*
X56838524Y-60673110D01*
X51098594Y-60673110D01*
X51108678Y-60564826D01*
X51050981Y-60009368D01*
X50886028Y-59475839D01*
X50637018Y-59009976D01*
X50249775Y-58769830D01*
X48439605Y-60580000D01*
X48080395Y-60580000D01*
X46270225Y-58769830D01*
X45882982Y-59009976D01*
X45622359Y-59503877D01*
X45463099Y-60039133D01*
X45411322Y-60595174D01*
X42552000Y-60595174D01*
X42552000Y-58590225D01*
X46449830Y-58590225D01*
X48260000Y-60400395D01*
X50070170Y-58590225D01*
X49830024Y-58202982D01*
X49336123Y-57942359D01*
X48800867Y-57783099D01*
X48244826Y-57731322D01*
X47689368Y-57789019D01*
X47155839Y-57953972D01*
X46689976Y-58202982D01*
X46449830Y-58590225D01*
X42552000Y-58590225D01*
X42552000Y-57552000D01*
X91567966Y-57552000D01*
X91478504Y-57685891D01*
G37*
X91478504Y-57685891D02*
X91408624Y-57854594D01*
X91373000Y-58033689D01*
X91373000Y-58216291D01*
X91408624Y-58395386D01*
X91478504Y-58564089D01*
X91579952Y-58715918D01*
X91648001Y-58783967D01*
X91648000Y-70641024D01*
X91579952Y-70709072D01*
X91478504Y-70860901D01*
X91408624Y-71029604D01*
X91373000Y-71208699D01*
X91373000Y-71391301D01*
X91408624Y-71570396D01*
X91478504Y-71739099D01*
X91579952Y-71890928D01*
X91709072Y-72020048D01*
X91860901Y-72121496D01*
X92029604Y-72191376D01*
X92208699Y-72227000D01*
X92391301Y-72227000D01*
X92570396Y-72191376D01*
X92739099Y-72121496D01*
X92890928Y-72020048D01*
X93020048Y-71890928D01*
X93121496Y-71739099D01*
X93191376Y-71570396D01*
X93227000Y-71391301D01*
X93227000Y-71208699D01*
X93191376Y-71029604D01*
X93121496Y-70860901D01*
X93020048Y-70709072D01*
X92952000Y-70641024D01*
X92952000Y-58783966D01*
X93020048Y-58715918D01*
X93121496Y-58564089D01*
X93191376Y-58395386D01*
X93227000Y-58216291D01*
X93227000Y-58033689D01*
X93191376Y-57854594D01*
X93121496Y-57685891D01*
X93032034Y-57552000D01*
X103448000Y-57552000D01*
X103448000Y-59951269D01*
X103339099Y-59878504D01*
X103170396Y-59808624D01*
X102991301Y-59773000D01*
X102808699Y-59773000D01*
X102629604Y-59808624D01*
X102460901Y-59878504D01*
X102309072Y-59979952D01*
X102179952Y-60109072D01*
X102078504Y-60260901D01*
X102008624Y-60429604D01*
X101973000Y-60608699D01*
X101973000Y-60791301D01*
X102008624Y-60970396D01*
X102048001Y-61065459D01*
X102048001Y-64984278D01*
X101991301Y-64973000D01*
X101808699Y-64973000D01*
X101629604Y-65008624D01*
X101460901Y-65078504D01*
X101309072Y-65179952D01*
X101179952Y-65309072D01*
X101078504Y-65460901D01*
X101008624Y-65629604D01*
X100973000Y-65808699D01*
X100973000Y-65991301D01*
X101008624Y-66170396D01*
X101078504Y-66339099D01*
X101179952Y-66490928D01*
X101248001Y-66558977D01*
X101248001Y-69104169D01*
X101091301Y-69073000D01*
X100908699Y-69073000D01*
X100729604Y-69108624D01*
X100560901Y-69178504D01*
X100409072Y-69279952D01*
X100279952Y-69409072D01*
X100178504Y-69560901D01*
X100108624Y-69729604D01*
X100073000Y-69908699D01*
X100073000Y-70091301D01*
X100108624Y-70270396D01*
X100178504Y-70439099D01*
X100279952Y-70590928D01*
X100409072Y-70720048D01*
X100523001Y-70796172D01*
X100523001Y-73879305D01*
X100491301Y-73873000D01*
X100308699Y-73873000D01*
X100129604Y-73908624D01*
X99960901Y-73978504D01*
X99809072Y-74079952D01*
X99679952Y-74209072D01*
X99578504Y-74360901D01*
X99508624Y-74529604D01*
X99473000Y-74708699D01*
X99473000Y-74891301D01*
X99508624Y-75070396D01*
X99578504Y-75239099D01*
X99679952Y-75390928D01*
X99754694Y-75465670D01*
X99757435Y-75493499D01*
X99794717Y-75616402D01*
X99855259Y-75729669D01*
X99873001Y-75751288D01*
X99873002Y-77648000D01*
X99708699Y-77648000D01*
X99611892Y-77667256D01*
X99627000Y-77591301D01*
X99627000Y-77408699D01*
X99591376Y-77229604D01*
X99521496Y-77060901D01*
X99420048Y-76909072D01*
X99290928Y-76779952D01*
X99139099Y-76678504D01*
X98970396Y-76608624D01*
X98791301Y-76573000D01*
X98608699Y-76573000D01*
X98429604Y-76608624D01*
X98260901Y-76678504D01*
X98109072Y-76779952D01*
X97979952Y-76909072D01*
X97878504Y-77060901D01*
X97808624Y-77229604D01*
X97773000Y-77408699D01*
X97773000Y-77591301D01*
X97808624Y-77770396D01*
X97878504Y-77939099D01*
X97979952Y-78090928D01*
X98048000Y-78158976D01*
X98048001Y-79113143D01*
X97945034Y-79133624D01*
X97776331Y-79203504D01*
X97624502Y-79304952D01*
X97495382Y-79434072D01*
X97393934Y-79585901D01*
X97324054Y-79754604D01*
X97288430Y-79933699D01*
X97288430Y-80116301D01*
X97324054Y-80295396D01*
X97393934Y-80464099D01*
X97495382Y-80615928D01*
X97624502Y-80745048D01*
X97776331Y-80846496D01*
X97945034Y-80916376D01*
X98124129Y-80952000D01*
X98306731Y-80952000D01*
X98485826Y-80916376D01*
X98654529Y-80846496D01*
X98806358Y-80745048D01*
X98935478Y-80615928D01*
X99036926Y-80464099D01*
X99106806Y-80295396D01*
X99142430Y-80116301D01*
X99142430Y-80020792D01*
X99163264Y-80003694D01*
X99244741Y-79904414D01*
X99305283Y-79791147D01*
X99324664Y-79727257D01*
X99342565Y-79668245D01*
X99345970Y-79633676D01*
X99352000Y-79572452D01*
X99352000Y-79572445D01*
X99355153Y-79540431D01*
X99352000Y-79508416D01*
X99352000Y-79390549D01*
X99360901Y-79396496D01*
X99529604Y-79466376D01*
X99708699Y-79502000D01*
X99723001Y-79502000D01*
X99723001Y-79516176D01*
X99654952Y-79584225D01*
X99553504Y-79736054D01*
X99483624Y-79904757D01*
X99448000Y-80083852D01*
X99448000Y-80266454D01*
X99483624Y-80445549D01*
X99553504Y-80614252D01*
X99654952Y-80766081D01*
X99784072Y-80895201D01*
X99935901Y-80996649D01*
X100104604Y-81066529D01*
X100283699Y-81102153D01*
X100466301Y-81102153D01*
X100523000Y-81090875D01*
X100523000Y-82299196D01*
X100391301Y-82273000D01*
X100208699Y-82273000D01*
X100029604Y-82308624D01*
X99860901Y-82378504D01*
X99709072Y-82479952D01*
X99579952Y-82609072D01*
X99478504Y-82760901D01*
X99408624Y-82929604D01*
X99373000Y-83108699D01*
X99373000Y-83291301D01*
X99408624Y-83470396D01*
X99478504Y-83639099D01*
X99579952Y-83790928D01*
X99709072Y-83920048D01*
X99748001Y-83946059D01*
X99748000Y-86341024D01*
X99679952Y-86409072D01*
X99578504Y-86560901D01*
X99508624Y-86729604D01*
X99473000Y-86908699D01*
X99473000Y-87091301D01*
X99508624Y-87270396D01*
X99578504Y-87439099D01*
X99679952Y-87590928D01*
X99809072Y-87720048D01*
X99960901Y-87821496D01*
X100129604Y-87891376D01*
X100308699Y-87927000D01*
X100491301Y-87927000D01*
X100523000Y-87920695D01*
X100523000Y-90241024D01*
X100454952Y-90309072D01*
X100353504Y-90460901D01*
X100283624Y-90629604D01*
X100248000Y-90808699D01*
X100248000Y-90991301D01*
X100283624Y-91170396D01*
X100353504Y-91339099D01*
X100454952Y-91490928D01*
X100584072Y-91620048D01*
X100735901Y-91721496D01*
X100904604Y-91791376D01*
X101083699Y-91827000D01*
X101248000Y-91827000D01*
X101248000Y-93241024D01*
X101179952Y-93309072D01*
X101078504Y-93460901D01*
X101008624Y-93629604D01*
X100973000Y-93808699D01*
X100973000Y-93991301D01*
X101008624Y-94170396D01*
X101078504Y-94339099D01*
X101179952Y-94490928D01*
X101309072Y-94620048D01*
X101460901Y-94721496D01*
X101629604Y-94791376D01*
X101773000Y-94819899D01*
X101773000Y-94891301D01*
X101808624Y-95070396D01*
X101878504Y-95239099D01*
X101979952Y-95390928D01*
X102037024Y-95448000D01*
X60262976Y-95448000D01*
X60320048Y-95390928D01*
X60421496Y-95239099D01*
X60491376Y-95070396D01*
X60527000Y-94891301D01*
X60527000Y-94708699D01*
X60491376Y-94529604D01*
X60421496Y-94360901D01*
X60320048Y-94209072D01*
X60252000Y-94141024D01*
X60252000Y-92458976D01*
X60320048Y-92390928D01*
X60421496Y-92239099D01*
X60491376Y-92070396D01*
X60527000Y-91891301D01*
X60527000Y-91708699D01*
X60491376Y-91529604D01*
X60421496Y-91360901D01*
X60320048Y-91209072D01*
X60190928Y-91079952D01*
X60039099Y-90978504D01*
X59870396Y-90908624D01*
X59691301Y-90873000D01*
X59508699Y-90873000D01*
X59329604Y-90908624D01*
X59160901Y-90978504D01*
X59009072Y-91079952D01*
X58879952Y-91209072D01*
X58778504Y-91360901D01*
X58708624Y-91529604D01*
X58673000Y-91708699D01*
X58673000Y-91891301D01*
X58708624Y-92070396D01*
X58778504Y-92239099D01*
X58879952Y-92390928D01*
X58948000Y-92458976D01*
X58948001Y-94141023D01*
X58879952Y-94209072D01*
X58778504Y-94360901D01*
X58708624Y-94529604D01*
X58673000Y-94708699D01*
X58673000Y-94891301D01*
X58708624Y-95070396D01*
X58778504Y-95239099D01*
X58879952Y-95390928D01*
X58937024Y-95448000D01*
X42552000Y-95448000D01*
X42552000Y-82774226D01*
X45123000Y-82774226D01*
X45123000Y-83025774D01*
X45172074Y-83272487D01*
X45268337Y-83504886D01*
X45373000Y-83661526D01*
X45373001Y-86838473D01*
X45268337Y-86995114D01*
X45172074Y-87227513D01*
X45123000Y-87474226D01*
X45123000Y-87725774D01*
X45172074Y-87972487D01*
X45268337Y-88204886D01*
X45373000Y-88361526D01*
X45373001Y-90949549D01*
X45368032Y-91000000D01*
X45373001Y-91050451D01*
X45387861Y-91201327D01*
X45446586Y-91394917D01*
X45541950Y-91573331D01*
X45670289Y-91729712D01*
X45709476Y-91761872D01*
X45900247Y-91952643D01*
X46008089Y-92114040D01*
X46185960Y-92291911D01*
X46395114Y-92431663D01*
X46627513Y-92527926D01*
X46874226Y-92577000D01*
X47125774Y-92577000D01*
X47372487Y-92527926D01*
X47604886Y-92431663D01*
X47814040Y-92291911D01*
X47991911Y-92114040D01*
X48131663Y-91904886D01*
X48227926Y-91672487D01*
X48277000Y-91425774D01*
X48277000Y-91174226D01*
X48227926Y-90927513D01*
X48131663Y-90695114D01*
X47991911Y-90485960D01*
X47814040Y-90308089D01*
X47604886Y-90168337D01*
X47427000Y-90094654D01*
X47427000Y-88361526D01*
X47531663Y-88204886D01*
X47627926Y-87972487D01*
X47677000Y-87725774D01*
X47677000Y-87474226D01*
X47627926Y-87227513D01*
X47531663Y-86995114D01*
X47427000Y-86838474D01*
X47427000Y-83661526D01*
X47531663Y-83504886D01*
X47627926Y-83272487D01*
X47677000Y-83025774D01*
X47677000Y-82774226D01*
X47627926Y-82527513D01*
X47531663Y-82295114D01*
X47391911Y-82085960D01*
X47214040Y-81908089D01*
X47004886Y-81768337D01*
X46772487Y-81672074D01*
X46525774Y-81623000D01*
X46274226Y-81623000D01*
X46027513Y-81672074D01*
X45795114Y-81768337D01*
X45585960Y-81908089D01*
X45408089Y-82085960D01*
X45268337Y-82295114D01*
X45172074Y-82527513D01*
X45123000Y-82774226D01*
X42552000Y-82774226D01*
X42552000Y-78308699D01*
X48673000Y-78308699D01*
X48673000Y-78491301D01*
X48708624Y-78670396D01*
X48778504Y-78839099D01*
X48879952Y-78990928D01*
X48948000Y-79058976D01*
X48948001Y-85141023D01*
X48879952Y-85209072D01*
X48778504Y-85360901D01*
X48708624Y-85529604D01*
X48673000Y-85708699D01*
X48673000Y-85891301D01*
X48708624Y-86070396D01*
X48778504Y-86239099D01*
X48879952Y-86390928D01*
X49009072Y-86520048D01*
X49160901Y-86621496D01*
X49329604Y-86691376D01*
X49508699Y-86727000D01*
X49580101Y-86727000D01*
X49608624Y-86870396D01*
X49678504Y-87039099D01*
X49779952Y-87190928D01*
X49909072Y-87320048D01*
X50060901Y-87421496D01*
X50229604Y-87491376D01*
X50408699Y-87527000D01*
X50591301Y-87527000D01*
X50770396Y-87491376D01*
X50939099Y-87421496D01*
X51090928Y-87320048D01*
X51220048Y-87190928D01*
X51321496Y-87039099D01*
X51391376Y-86870396D01*
X51427000Y-86691301D01*
X51427000Y-86508699D01*
X51391376Y-86329604D01*
X51321496Y-86160901D01*
X51220048Y-86009072D01*
X51171147Y-85960171D01*
X51171147Y-78665056D01*
X51239195Y-78597008D01*
X51340643Y-78445179D01*
X51410523Y-78276476D01*
X51446147Y-78097381D01*
X51446147Y-77914779D01*
X51410523Y-77735684D01*
X51340643Y-77566981D01*
X51239195Y-77415152D01*
X51228589Y-77404546D01*
X56323846Y-77404546D01*
X56323846Y-77587148D01*
X56359470Y-77766243D01*
X56429350Y-77934946D01*
X56530798Y-78086775D01*
X56598846Y-78154823D01*
X56598847Y-79218814D01*
X56595692Y-79250846D01*
X56608281Y-79378660D01*
X56645563Y-79501562D01*
X56659160Y-79527000D01*
X56706106Y-79614830D01*
X56787583Y-79714110D01*
X56812460Y-79734526D01*
X57073000Y-79995066D01*
X57073000Y-80091301D01*
X57108624Y-80270396D01*
X57178504Y-80439099D01*
X57279952Y-80590928D01*
X57409072Y-80720048D01*
X57560901Y-80821496D01*
X57729604Y-80891376D01*
X57908699Y-80927000D01*
X58091301Y-80927000D01*
X58270396Y-80891376D01*
X58439099Y-80821496D01*
X58590928Y-80720048D01*
X58720048Y-80590928D01*
X58736958Y-80565621D01*
X58752299Y-80588581D01*
X58881419Y-80717701D01*
X59033248Y-80819149D01*
X59201951Y-80889029D01*
X59381046Y-80924653D01*
X59563648Y-80924653D01*
X59742743Y-80889029D01*
X59911446Y-80819149D01*
X60063275Y-80717701D01*
X60192395Y-80588581D01*
X60293843Y-80436752D01*
X60363723Y-80268049D01*
X60399347Y-80088954D01*
X60399347Y-79906352D01*
X60363723Y-79727257D01*
X60293843Y-79558554D01*
X60192395Y-79406725D01*
X60088826Y-79303156D01*
X60208699Y-79327000D01*
X60391301Y-79327000D01*
X60570396Y-79291376D01*
X60739099Y-79221496D01*
X60890928Y-79120048D01*
X61020048Y-78990928D01*
X61121496Y-78839099D01*
X61191376Y-78670396D01*
X61227000Y-78491301D01*
X61227000Y-78308699D01*
X61191376Y-78129604D01*
X61121496Y-77960901D01*
X61020048Y-77809072D01*
X60952000Y-77741024D01*
X60952000Y-76133976D01*
X61020048Y-76065928D01*
X61121496Y-75914099D01*
X61191376Y-75745396D01*
X61227000Y-75566301D01*
X61227000Y-75383699D01*
X61191376Y-75204604D01*
X61121496Y-75035901D01*
X61020048Y-74884072D01*
X60890928Y-74754952D01*
X60739099Y-74653504D01*
X60570396Y-74583624D01*
X60391301Y-74548000D01*
X60208699Y-74548000D01*
X60029604Y-74583624D01*
X59860901Y-74653504D01*
X59709072Y-74754952D01*
X59579952Y-74884072D01*
X59478504Y-75035901D01*
X59408624Y-75204604D01*
X59373000Y-75383699D01*
X59373000Y-75566301D01*
X59408624Y-75745396D01*
X59478504Y-75914099D01*
X59579952Y-76065928D01*
X59648000Y-76133976D01*
X59648001Y-77741023D01*
X59579952Y-77809072D01*
X59478504Y-77960901D01*
X59408624Y-78129604D01*
X59373000Y-78308699D01*
X59373000Y-78491301D01*
X59408624Y-78670396D01*
X59451873Y-78774806D01*
X59227000Y-78549934D01*
X59227000Y-78453699D01*
X59191376Y-78274604D01*
X59121496Y-78105901D01*
X59020048Y-77954072D01*
X58890928Y-77824952D01*
X58739099Y-77723504D01*
X58570396Y-77653624D01*
X58391301Y-77618000D01*
X58208699Y-77618000D01*
X58170185Y-77625661D01*
X58177846Y-77587148D01*
X58177846Y-77404546D01*
X58142222Y-77225451D01*
X58072342Y-77056748D01*
X57970894Y-76904919D01*
X57841774Y-76775799D01*
X57689945Y-76674351D01*
X57521242Y-76604471D01*
X57342147Y-76568847D01*
X57159545Y-76568847D01*
X56980450Y-76604471D01*
X56811747Y-76674351D01*
X56659918Y-76775799D01*
X56530798Y-76904919D01*
X56429350Y-77056748D01*
X56359470Y-77225451D01*
X56323846Y-77404546D01*
X51228589Y-77404546D01*
X51110075Y-77286032D01*
X50958246Y-77184584D01*
X50789543Y-77114704D01*
X50610448Y-77079080D01*
X50427846Y-77079080D01*
X50248751Y-77114704D01*
X50080048Y-77184584D01*
X49928219Y-77286032D01*
X49799099Y-77415152D01*
X49752335Y-77485140D01*
X49691301Y-77473000D01*
X49508699Y-77473000D01*
X49329604Y-77508624D01*
X49160901Y-77578504D01*
X49009072Y-77679952D01*
X48879952Y-77809072D01*
X48778504Y-77960901D01*
X48708624Y-78129604D01*
X48673000Y-78308699D01*
X42552000Y-78308699D01*
X42552000Y-71551414D01*
X45233000Y-71551414D01*
X45233000Y-72088586D01*
X45337797Y-72615437D01*
X45543364Y-73111719D01*
X45841801Y-73558361D01*
X46221639Y-73938199D01*
X46668281Y-74236636D01*
X47164563Y-74442203D01*
X47691414Y-74547000D01*
X48228586Y-74547000D01*
X48755437Y-74442203D01*
X49251719Y-74236636D01*
X49698361Y-73938199D01*
X50078199Y-73558361D01*
X50376636Y-73111719D01*
X50582203Y-72615437D01*
X50687000Y-72088586D01*
X50687000Y-71551414D01*
X50582203Y-71024563D01*
X50376636Y-70528281D01*
X50078199Y-70081639D01*
X49698361Y-69701801D01*
X49251719Y-69403364D01*
X48755437Y-69197797D01*
X48228586Y-69093000D01*
X47691414Y-69093000D01*
X47164563Y-69197797D01*
X46668281Y-69403364D01*
X46221639Y-69701801D01*
X45841801Y-70081639D01*
X45543364Y-70528281D01*
X45337797Y-71024563D01*
X45233000Y-71551414D01*
X42552000Y-71551414D01*
X42552000Y-65961414D01*
X45403000Y-65961414D01*
X45403000Y-66498586D01*
X45507797Y-67025437D01*
X45713364Y-67521719D01*
X46011801Y-67968361D01*
X46391639Y-68348199D01*
X46838281Y-68646636D01*
X47334563Y-68852203D01*
X47861414Y-68957000D01*
X48398586Y-68957000D01*
X48925437Y-68852203D01*
X49421719Y-68646636D01*
X49868361Y-68348199D01*
X50248199Y-67968361D01*
X50546636Y-67521719D01*
X50752203Y-67025437D01*
X50857000Y-66498586D01*
X50857000Y-65961414D01*
X50752203Y-65434563D01*
X50546636Y-64938281D01*
X50248199Y-64491639D01*
X49868361Y-64111801D01*
X49421719Y-63813364D01*
X48925437Y-63607797D01*
X48398586Y-63503000D01*
X47861414Y-63503000D01*
X47334563Y-63607797D01*
X46838281Y-63813364D01*
X46391639Y-64111801D01*
X46011801Y-64491639D01*
X45713364Y-64938281D01*
X45507797Y-65434563D01*
X45403000Y-65961414D01*
X42552000Y-65961414D01*
X42552000Y-62569775D01*
X46449830Y-62569775D01*
X46689976Y-62957018D01*
X47183877Y-63217641D01*
X47719133Y-63376901D01*
X48275174Y-63428678D01*
X48830632Y-63370981D01*
X49364161Y-63206028D01*
X49830024Y-62957018D01*
X50070170Y-62569775D01*
X48260000Y-60759605D01*
X46449830Y-62569775D01*
X42552000Y-62569775D01*
X42552000Y-60595174D01*
X45411322Y-60595174D01*
X45469019Y-61150632D01*
X45633972Y-61684161D01*
X45882982Y-62150024D01*
X46270225Y-62390170D01*
X48080395Y-60580000D01*
X48439605Y-60580000D01*
X50249775Y-62390170D01*
X50637018Y-62150024D01*
X50897641Y-61656123D01*
X50977748Y-61386890D01*
X56838524Y-61386890D01*
X56883175Y-61534099D01*
X57008359Y-61796920D01*
X57182412Y-62030269D01*
X57398645Y-62225178D01*
X57618308Y-62356025D01*
X57402213Y-62500414D01*
X57210414Y-62692213D01*
X57059718Y-62917746D01*
X56955917Y-63168344D01*
X56903000Y-63434377D01*
X56903000Y-63705623D01*
X56955917Y-63971656D01*
X57059718Y-64222254D01*
X57210414Y-64447787D01*
X57402213Y-64639586D01*
X57627746Y-64790282D01*
X57747776Y-64840000D01*
X57627746Y-64889718D01*
X57402213Y-65040414D01*
X57210414Y-65232213D01*
X57059718Y-65457746D01*
X56955917Y-65708344D01*
X56903000Y-65974377D01*
X56903000Y-66245623D01*
X56955917Y-66511656D01*
X57059718Y-66762254D01*
X57210414Y-66987787D01*
X57402213Y-67179586D01*
X57627746Y-67330282D01*
X57747776Y-67380000D01*
X57627746Y-67429718D01*
X57402213Y-67580414D01*
X57210414Y-67772213D01*
X57059718Y-67997746D01*
X56955917Y-68248344D01*
X56903000Y-68514377D01*
X56903000Y-68785623D01*
X56955917Y-69051656D01*
X57059718Y-69302254D01*
X57210414Y-69527787D01*
X57402213Y-69719586D01*
X57538202Y-69810451D01*
X57430000Y-69810451D01*
X57326690Y-69820626D01*
X57227350Y-69850761D01*
X57135798Y-69899696D01*
X57055552Y-69965552D01*
X56989696Y-70045798D01*
X56940761Y-70137350D01*
X56910626Y-70236690D01*
X56900451Y-70340000D01*
X56900451Y-72040000D01*
X56910626Y-72143310D01*
X56940761Y-72242650D01*
X56989696Y-72334202D01*
X57055552Y-72414448D01*
X57135798Y-72480304D01*
X57227350Y-72529239D01*
X57326690Y-72559374D01*
X57430000Y-72569549D01*
X59130000Y-72569549D01*
X59233310Y-72559374D01*
X59332650Y-72529239D01*
X59424202Y-72480304D01*
X59504448Y-72414448D01*
X59570304Y-72334202D01*
X59619239Y-72242650D01*
X59649374Y-72143310D01*
X59659549Y-72040000D01*
X59659549Y-71108699D01*
X60873000Y-71108699D01*
X60873000Y-71291301D01*
X60908624Y-71470396D01*
X60978504Y-71639099D01*
X61079952Y-71790928D01*
X61209072Y-71920048D01*
X61360901Y-72021496D01*
X61529604Y-72091376D01*
X61708699Y-72127000D01*
X61891301Y-72127000D01*
X62070396Y-72091376D01*
X62239099Y-72021496D01*
X62390928Y-71920048D01*
X62520048Y-71790928D01*
X62621496Y-71639099D01*
X62691376Y-71470396D01*
X62727000Y-71291301D01*
X62727000Y-71108699D01*
X62691376Y-70929604D01*
X62621496Y-70760901D01*
X62520048Y-70609072D01*
X62452000Y-70541024D01*
X62452000Y-69515722D01*
X62508699Y-69527000D01*
X62691301Y-69527000D01*
X62870396Y-69491376D01*
X62973000Y-69448875D01*
X62973000Y-72838474D01*
X62868337Y-72995114D01*
X62772074Y-73227513D01*
X62723000Y-73474226D01*
X62723000Y-73725774D01*
X62772074Y-73972487D01*
X62868337Y-74204886D01*
X62973001Y-74361527D01*
X62973000Y-83974603D01*
X62912282Y-84035321D01*
X62727513Y-84072074D01*
X62495114Y-84168337D01*
X62285960Y-84308089D01*
X62108089Y-84485960D01*
X61968337Y-84695114D01*
X61872074Y-84927513D01*
X61823000Y-85174226D01*
X61823000Y-85425774D01*
X61872074Y-85672487D01*
X61968337Y-85904886D01*
X62108089Y-86114040D01*
X62285960Y-86291911D01*
X62495114Y-86431663D01*
X62727513Y-86527926D01*
X62974226Y-86577000D01*
X63225774Y-86577000D01*
X63472487Y-86527926D01*
X63704886Y-86431663D01*
X63914040Y-86291911D01*
X64091911Y-86114040D01*
X64231663Y-85904886D01*
X64327926Y-85672487D01*
X64364679Y-85487718D01*
X64690524Y-85161873D01*
X64729712Y-85129712D01*
X64858051Y-84973331D01*
X64953415Y-84794917D01*
X65012140Y-84601327D01*
X65027000Y-84450451D01*
X65027000Y-84450442D01*
X65031968Y-84400001D01*
X65027000Y-84349560D01*
X65027000Y-82574226D01*
X65423000Y-82574226D01*
X65423000Y-82825774D01*
X65472074Y-83072487D01*
X65568337Y-83304886D01*
X65673000Y-83461526D01*
X65673001Y-88238473D01*
X65568337Y-88395114D01*
X65472074Y-88627513D01*
X65423000Y-88874226D01*
X65423000Y-89125774D01*
X65472074Y-89372487D01*
X65568337Y-89604886D01*
X65673000Y-89761526D01*
X65673001Y-90438474D01*
X65568337Y-90595114D01*
X65472074Y-90827513D01*
X65423000Y-91074226D01*
X65423000Y-91325774D01*
X65472074Y-91572487D01*
X65568337Y-91804886D01*
X65708089Y-92014040D01*
X65885960Y-92191911D01*
X66095114Y-92331663D01*
X66327513Y-92427926D01*
X66574226Y-92477000D01*
X66825774Y-92477000D01*
X67072487Y-92427926D01*
X67304886Y-92331663D01*
X67514040Y-92191911D01*
X67691911Y-92014040D01*
X67831663Y-91804886D01*
X67912926Y-91608699D01*
X78673000Y-91608699D01*
X78673000Y-91791301D01*
X78708624Y-91970396D01*
X78778504Y-92139099D01*
X78879952Y-92290928D01*
X78948000Y-92358976D01*
X78948001Y-93416023D01*
X78879952Y-93484072D01*
X78778504Y-93635901D01*
X78708624Y-93804604D01*
X78673000Y-93983699D01*
X78673000Y-94166301D01*
X78708624Y-94345396D01*
X78778504Y-94514099D01*
X78879952Y-94665928D01*
X79009072Y-94795048D01*
X79160901Y-94896496D01*
X79329604Y-94966376D01*
X79508699Y-95002000D01*
X79691301Y-95002000D01*
X79870396Y-94966376D01*
X80039099Y-94896496D01*
X80190928Y-94795048D01*
X80320048Y-94665928D01*
X80421496Y-94514099D01*
X80491376Y-94345396D01*
X80527000Y-94166301D01*
X80527000Y-93983699D01*
X80491376Y-93804604D01*
X80421496Y-93635901D01*
X80320048Y-93484072D01*
X80252000Y-93416024D01*
X80252000Y-92358976D01*
X80320048Y-92290928D01*
X80421496Y-92139099D01*
X80491376Y-91970396D01*
X80527000Y-91791301D01*
X80527000Y-91608699D01*
X80491376Y-91429604D01*
X80421496Y-91260901D01*
X80363583Y-91174226D01*
X86223000Y-91174226D01*
X86223000Y-91425774D01*
X86272074Y-91672487D01*
X86368337Y-91904886D01*
X86508089Y-92114040D01*
X86685960Y-92291911D01*
X86895114Y-92431663D01*
X87127513Y-92527926D01*
X87374226Y-92577000D01*
X87625774Y-92577000D01*
X87872487Y-92527926D01*
X88104886Y-92431663D01*
X88314040Y-92291911D01*
X88491911Y-92114040D01*
X88631663Y-91904886D01*
X88727926Y-91672487D01*
X88777000Y-91425774D01*
X88777000Y-91174226D01*
X88727926Y-90927513D01*
X88631663Y-90695114D01*
X88627000Y-90688135D01*
X88627000Y-89361526D01*
X88731663Y-89204886D01*
X88827926Y-88972487D01*
X88877000Y-88725774D01*
X88877000Y-88474226D01*
X88827926Y-88227513D01*
X88731663Y-87995114D01*
X88627000Y-87838474D01*
X88627000Y-85508699D01*
X89973000Y-85508699D01*
X89973000Y-85691301D01*
X90008624Y-85870396D01*
X90078504Y-86039099D01*
X90179952Y-86190928D01*
X90309072Y-86320048D01*
X90460901Y-86421496D01*
X90629604Y-86491376D01*
X90808699Y-86527000D01*
X90973000Y-86527000D01*
X90973000Y-86591301D01*
X91008624Y-86770396D01*
X91078504Y-86939099D01*
X91179952Y-87090928D01*
X91309072Y-87220048D01*
X91460901Y-87321496D01*
X91629604Y-87391376D01*
X91808699Y-87427000D01*
X91991301Y-87427000D01*
X92170396Y-87391376D01*
X92339099Y-87321496D01*
X92490928Y-87220048D01*
X92620048Y-87090928D01*
X92721496Y-86939099D01*
X92791376Y-86770396D01*
X92827000Y-86591301D01*
X92827000Y-86408699D01*
X92791376Y-86229604D01*
X92721496Y-86060901D01*
X92620048Y-85909072D01*
X92581231Y-85870255D01*
X92581231Y-78703976D01*
X92649279Y-78635928D01*
X92750727Y-78484099D01*
X92820607Y-78315396D01*
X92856231Y-78136301D01*
X92856231Y-77953699D01*
X92820607Y-77774604D01*
X92750727Y-77605901D01*
X92649279Y-77454072D01*
X92520159Y-77324952D01*
X92368330Y-77223504D01*
X92199627Y-77153624D01*
X92020532Y-77118000D01*
X91837930Y-77118000D01*
X91658835Y-77153624D01*
X91490132Y-77223504D01*
X91338303Y-77324952D01*
X91209183Y-77454072D01*
X91107735Y-77605901D01*
X91101406Y-77621180D01*
X91086156Y-77618147D01*
X90903554Y-77618147D01*
X90724459Y-77653771D01*
X90555756Y-77723651D01*
X90403927Y-77825099D01*
X90274807Y-77954219D01*
X90173359Y-78106048D01*
X90103479Y-78274751D01*
X90067855Y-78453846D01*
X90067855Y-78636448D01*
X90103479Y-78815543D01*
X90173359Y-78984246D01*
X90274807Y-79136075D01*
X90342855Y-79204123D01*
X90342856Y-84857379D01*
X90309072Y-84879952D01*
X90179952Y-85009072D01*
X90078504Y-85160901D01*
X90008624Y-85329604D01*
X89973000Y-85508699D01*
X88627000Y-85508699D01*
X88627000Y-83361526D01*
X88731663Y-83204886D01*
X88827926Y-82972487D01*
X88877000Y-82725774D01*
X88877000Y-82474226D01*
X88827926Y-82227513D01*
X88731663Y-81995114D01*
X88591911Y-81785960D01*
X88414040Y-81608089D01*
X88204886Y-81468337D01*
X87972487Y-81372074D01*
X87725774Y-81323000D01*
X87474226Y-81323000D01*
X87227513Y-81372074D01*
X86995114Y-81468337D01*
X86785960Y-81608089D01*
X86608089Y-81785960D01*
X86468337Y-81995114D01*
X86372074Y-82227513D01*
X86323000Y-82474226D01*
X86323000Y-82725774D01*
X86372074Y-82972487D01*
X86468337Y-83204886D01*
X86573000Y-83361526D01*
X86573001Y-87838473D01*
X86468337Y-87995114D01*
X86372074Y-88227513D01*
X86323000Y-88474226D01*
X86323000Y-88725774D01*
X86372074Y-88972487D01*
X86468337Y-89204886D01*
X86573000Y-89361526D01*
X86573001Y-90421048D01*
X86508089Y-90485960D01*
X86368337Y-90695114D01*
X86272074Y-90927513D01*
X86223000Y-91174226D01*
X80363583Y-91174226D01*
X80320048Y-91109072D01*
X80190928Y-90979952D01*
X80039099Y-90878504D01*
X79870396Y-90808624D01*
X79691301Y-90773000D01*
X79508699Y-90773000D01*
X79329604Y-90808624D01*
X79160901Y-90878504D01*
X79009072Y-90979952D01*
X78879952Y-91109072D01*
X78778504Y-91260901D01*
X78708624Y-91429604D01*
X78673000Y-91608699D01*
X67912926Y-91608699D01*
X67927926Y-91572487D01*
X67977000Y-91325774D01*
X67977000Y-91074226D01*
X67927926Y-90827513D01*
X67831663Y-90595114D01*
X67727000Y-90438474D01*
X67727000Y-89761526D01*
X67831663Y-89604886D01*
X67927926Y-89372487D01*
X67977000Y-89125774D01*
X67977000Y-88874226D01*
X67927926Y-88627513D01*
X67831663Y-88395114D01*
X67727000Y-88238474D01*
X67727000Y-85608699D01*
X68973000Y-85608699D01*
X68973000Y-85791301D01*
X69008624Y-85970396D01*
X69078504Y-86139099D01*
X69179952Y-86290928D01*
X69309072Y-86420048D01*
X69460901Y-86521496D01*
X69629604Y-86591376D01*
X69808699Y-86627000D01*
X69980101Y-86627000D01*
X70008624Y-86770396D01*
X70078504Y-86939099D01*
X70179952Y-87090928D01*
X70309072Y-87220048D01*
X70460901Y-87321496D01*
X70629604Y-87391376D01*
X70808699Y-87427000D01*
X70991301Y-87427000D01*
X71170396Y-87391376D01*
X71339099Y-87321496D01*
X71490928Y-87220048D01*
X71620048Y-87090928D01*
X71631207Y-87074226D01*
X73523000Y-87074226D01*
X73523000Y-87325774D01*
X73572074Y-87572487D01*
X73668337Y-87804886D01*
X73808089Y-88014040D01*
X73985960Y-88191911D01*
X74195114Y-88331663D01*
X74427513Y-88427926D01*
X74674226Y-88477000D01*
X74925774Y-88477000D01*
X75172487Y-88427926D01*
X75404886Y-88331663D01*
X75614040Y-88191911D01*
X75791911Y-88014040D01*
X75931663Y-87804886D01*
X76027926Y-87572487D01*
X76077000Y-87325774D01*
X76077000Y-87074226D01*
X76027926Y-86827513D01*
X75931663Y-86595114D01*
X75827000Y-86438474D01*
X75827000Y-79903699D01*
X76459441Y-79903699D01*
X76459441Y-80086301D01*
X76495065Y-80265396D01*
X76564945Y-80434099D01*
X76666393Y-80585928D01*
X76795513Y-80715048D01*
X76947342Y-80816496D01*
X77116045Y-80886376D01*
X77295140Y-80922000D01*
X77477742Y-80922000D01*
X77656837Y-80886376D01*
X77825540Y-80816496D01*
X77977369Y-80715048D01*
X78106489Y-80585928D01*
X78207937Y-80434099D01*
X78277817Y-80265396D01*
X78313441Y-80086301D01*
X78313441Y-79954878D01*
X78336737Y-79983264D01*
X78348000Y-79992507D01*
X78348000Y-80086301D01*
X78383624Y-80265396D01*
X78453504Y-80434099D01*
X78554952Y-80585928D01*
X78684072Y-80715048D01*
X78835901Y-80816496D01*
X79004604Y-80886376D01*
X79183699Y-80922000D01*
X79366301Y-80922000D01*
X79545396Y-80886376D01*
X79714099Y-80816496D01*
X79865928Y-80715048D01*
X79995048Y-80585928D01*
X80096496Y-80434099D01*
X80166376Y-80265396D01*
X80202000Y-80086301D01*
X80202000Y-79903699D01*
X80166376Y-79724604D01*
X80096496Y-79555901D01*
X80077185Y-79527000D01*
X80091301Y-79527000D01*
X80270396Y-79491376D01*
X80439099Y-79421496D01*
X80590928Y-79320048D01*
X80720048Y-79190928D01*
X80821496Y-79039099D01*
X80891376Y-78870396D01*
X80927000Y-78691301D01*
X80927000Y-78508699D01*
X80891376Y-78329604D01*
X80827000Y-78174189D01*
X80827000Y-77127000D01*
X80991301Y-77127000D01*
X81170396Y-77091376D01*
X81339099Y-77021496D01*
X81490928Y-76920048D01*
X81620048Y-76790928D01*
X81698001Y-76674262D01*
X81698001Y-78191023D01*
X81579952Y-78309072D01*
X81478504Y-78460901D01*
X81408624Y-78629604D01*
X81373000Y-78808699D01*
X81373000Y-78991301D01*
X81408624Y-79170396D01*
X81478504Y-79339099D01*
X81579952Y-79490928D01*
X81709072Y-79620048D01*
X81860901Y-79721496D01*
X82029604Y-79791376D01*
X82208699Y-79827000D01*
X82391301Y-79827000D01*
X82570396Y-79791376D01*
X82739099Y-79721496D01*
X82890928Y-79620048D01*
X83020048Y-79490928D01*
X83121496Y-79339099D01*
X83191376Y-79170396D01*
X83227000Y-78991301D01*
X83227000Y-78808699D01*
X83191376Y-78629604D01*
X83121496Y-78460901D01*
X83020048Y-78309072D01*
X83002000Y-78291024D01*
X83002000Y-75762095D01*
X83008624Y-75795396D01*
X83078504Y-75964099D01*
X83179952Y-76115928D01*
X83309072Y-76245048D01*
X83460901Y-76346496D01*
X83629604Y-76416376D01*
X83808699Y-76452000D01*
X83991301Y-76452000D01*
X84170396Y-76416376D01*
X84339099Y-76346496D01*
X84490928Y-76245048D01*
X84620048Y-76115928D01*
X84721496Y-75964099D01*
X84791376Y-75795396D01*
X84827000Y-75616301D01*
X84827000Y-75608699D01*
X95373000Y-75608699D01*
X95373000Y-75791301D01*
X95408624Y-75970396D01*
X95478504Y-76139099D01*
X95579952Y-76290928D01*
X95648000Y-76358976D01*
X95648001Y-86341023D01*
X95579952Y-86409072D01*
X95478504Y-86560901D01*
X95408624Y-86729604D01*
X95373000Y-86908699D01*
X95373000Y-87091301D01*
X95408624Y-87270396D01*
X95478504Y-87439099D01*
X95579952Y-87590928D01*
X95709072Y-87720048D01*
X95860901Y-87821496D01*
X96029604Y-87891376D01*
X96208699Y-87927000D01*
X96391301Y-87927000D01*
X96570396Y-87891376D01*
X96739099Y-87821496D01*
X96890928Y-87720048D01*
X97020048Y-87590928D01*
X97121496Y-87439099D01*
X97191376Y-87270396D01*
X97227000Y-87091301D01*
X97227000Y-86908699D01*
X97191376Y-86729604D01*
X97121496Y-86560901D01*
X97020048Y-86409072D01*
X96952000Y-86341024D01*
X96952000Y-76358976D01*
X97020048Y-76290928D01*
X97121496Y-76139099D01*
X97191376Y-75970396D01*
X97227000Y-75791301D01*
X97227000Y-75608699D01*
X97191376Y-75429604D01*
X97121496Y-75260901D01*
X97020048Y-75109072D01*
X96890928Y-74979952D01*
X96739099Y-74878504D01*
X96570396Y-74808624D01*
X96391301Y-74773000D01*
X96208699Y-74773000D01*
X96029604Y-74808624D01*
X95860901Y-74878504D01*
X95709072Y-74979952D01*
X95579952Y-75109072D01*
X95478504Y-75260901D01*
X95408624Y-75429604D01*
X95373000Y-75608699D01*
X84827000Y-75608699D01*
X84827000Y-75433699D01*
X84791376Y-75254604D01*
X84721496Y-75085901D01*
X84620048Y-74934072D01*
X84552000Y-74866024D01*
X84552000Y-70758976D01*
X84620048Y-70690928D01*
X84721496Y-70539099D01*
X84791376Y-70370396D01*
X84827000Y-70191301D01*
X84827000Y-70008699D01*
X84791376Y-69829604D01*
X84721496Y-69660901D01*
X84620048Y-69509072D01*
X84490928Y-69379952D01*
X84339099Y-69278504D01*
X84170396Y-69208624D01*
X83991301Y-69173000D01*
X83970226Y-69173000D01*
X83966376Y-69153647D01*
X83896496Y-68984944D01*
X83795048Y-68833115D01*
X83665928Y-68703995D01*
X83514099Y-68602547D01*
X83345396Y-68532667D01*
X83277000Y-68519062D01*
X83277000Y-68508699D01*
X83241376Y-68329604D01*
X83171496Y-68160901D01*
X83070048Y-68009072D01*
X82940928Y-67879952D01*
X82789099Y-67778504D01*
X82620396Y-67708624D01*
X82441301Y-67673000D01*
X82362286Y-67673000D01*
X82446496Y-67546969D01*
X82516376Y-67378266D01*
X82552000Y-67199171D01*
X82552000Y-67016569D01*
X82516376Y-66837474D01*
X82446496Y-66668771D01*
X82345048Y-66516942D01*
X82215928Y-66387822D01*
X82064099Y-66286374D01*
X81895396Y-66216494D01*
X81805086Y-66198530D01*
X81791376Y-66129604D01*
X81721496Y-65960901D01*
X81620048Y-65809072D01*
X81490928Y-65679952D01*
X81339099Y-65578504D01*
X81170396Y-65508624D01*
X80991301Y-65473000D01*
X80808699Y-65473000D01*
X80629604Y-65508624D01*
X80460901Y-65578504D01*
X80309072Y-65679952D01*
X80179952Y-65809072D01*
X80078504Y-65960901D01*
X80008624Y-66129604D01*
X79973000Y-66308699D01*
X79973000Y-66491301D01*
X80008624Y-66670396D01*
X80078504Y-66839099D01*
X80179952Y-66990928D01*
X80248000Y-67058976D01*
X80248000Y-67208000D01*
X80083699Y-67208000D01*
X79904604Y-67243624D01*
X79735901Y-67313504D01*
X79584072Y-67414952D01*
X79454952Y-67544072D01*
X79353504Y-67695901D01*
X79283624Y-67864604D01*
X79248000Y-68043699D01*
X79248000Y-68226301D01*
X79283624Y-68405396D01*
X79353504Y-68574099D01*
X79454952Y-68725928D01*
X79523000Y-68793976D01*
X79523001Y-77803828D01*
X79431166Y-77865190D01*
X79390928Y-77824952D01*
X79239099Y-77723504D01*
X79070396Y-77653624D01*
X78891301Y-77618000D01*
X78708699Y-77618000D01*
X78529604Y-77653624D01*
X78414032Y-77701496D01*
X78427000Y-77636301D01*
X78427000Y-77453699D01*
X78391376Y-77274604D01*
X78321496Y-77105901D01*
X78220048Y-76954072D01*
X78090928Y-76824952D01*
X77939099Y-76723504D01*
X77770396Y-76653624D01*
X77591301Y-76618000D01*
X77408699Y-76618000D01*
X77229604Y-76653624D01*
X77060901Y-76723504D01*
X76909072Y-76824952D01*
X76779952Y-76954072D01*
X76678504Y-77105901D01*
X76608624Y-77274604D01*
X76573000Y-77453699D01*
X76573000Y-77636301D01*
X76608624Y-77815396D01*
X76678504Y-77984099D01*
X76779952Y-78135928D01*
X76848000Y-78203976D01*
X76848001Y-79239881D01*
X76795513Y-79274952D01*
X76666393Y-79404072D01*
X76564945Y-79555901D01*
X76495065Y-79724604D01*
X76459441Y-79903699D01*
X75827000Y-79903699D01*
X75827000Y-77442940D01*
X75939099Y-77396506D01*
X76090928Y-77295058D01*
X76220048Y-77165938D01*
X76321496Y-77014109D01*
X76391376Y-76845406D01*
X76427000Y-76666311D01*
X76427000Y-76483709D01*
X76391376Y-76304614D01*
X76321496Y-76135911D01*
X76220048Y-75984082D01*
X76152000Y-75916034D01*
X76152000Y-75253569D01*
X76204886Y-75231663D01*
X76414040Y-75091911D01*
X76591911Y-74914040D01*
X76731663Y-74704886D01*
X76827926Y-74472487D01*
X76877000Y-74225774D01*
X76877000Y-73974226D01*
X76827926Y-73727513D01*
X76731663Y-73495114D01*
X76591911Y-73285960D01*
X76414040Y-73108089D01*
X76204886Y-72968337D01*
X75972487Y-72872074D01*
X75725774Y-72823000D01*
X75474226Y-72823000D01*
X75227513Y-72872074D01*
X74995114Y-72968337D01*
X74785960Y-73108089D01*
X74608089Y-73285960D01*
X74468337Y-73495114D01*
X74372074Y-73727513D01*
X74335321Y-73912282D01*
X74109480Y-74138124D01*
X74070288Y-74170288D01*
X73941949Y-74326669D01*
X73846585Y-74505084D01*
X73787860Y-74698674D01*
X73773000Y-74849550D01*
X73773000Y-74849559D01*
X73768032Y-74900000D01*
X73773000Y-74950441D01*
X73773001Y-86438473D01*
X73668337Y-86595114D01*
X73572074Y-86827513D01*
X73523000Y-87074226D01*
X71631207Y-87074226D01*
X71721496Y-86939099D01*
X71791376Y-86770396D01*
X71827000Y-86591301D01*
X71827000Y-86408699D01*
X71791376Y-86229604D01*
X71721496Y-86060901D01*
X71620048Y-85909072D01*
X71571350Y-85860374D01*
X71571350Y-78703976D01*
X71639398Y-78635928D01*
X71740846Y-78484099D01*
X71810726Y-78315396D01*
X71846350Y-78136301D01*
X71846350Y-77953699D01*
X71810726Y-77774604D01*
X71740846Y-77605901D01*
X71639398Y-77454072D01*
X71510278Y-77324952D01*
X71358449Y-77223504D01*
X71189746Y-77153624D01*
X71010651Y-77118000D01*
X70828049Y-77118000D01*
X70648954Y-77153624D01*
X70480251Y-77223504D01*
X70328422Y-77324952D01*
X70199302Y-77454072D01*
X70097854Y-77605901D01*
X70077074Y-77656067D01*
X70026338Y-77645975D01*
X69843736Y-77645975D01*
X69664641Y-77681599D01*
X69495938Y-77751479D01*
X69344109Y-77852927D01*
X69214989Y-77982047D01*
X69113541Y-78133876D01*
X69043661Y-78302579D01*
X69008037Y-78481674D01*
X69008037Y-78664276D01*
X69043661Y-78843371D01*
X69113541Y-79012074D01*
X69214989Y-79163903D01*
X69283037Y-79231951D01*
X69283038Y-85005986D01*
X69179952Y-85109072D01*
X69078504Y-85260901D01*
X69008624Y-85429604D01*
X68973000Y-85608699D01*
X67727000Y-85608699D01*
X67727000Y-83461526D01*
X67831663Y-83304886D01*
X67927926Y-83072487D01*
X67977000Y-82825774D01*
X67977000Y-82574226D01*
X67927926Y-82327513D01*
X67831663Y-82095114D01*
X67691911Y-81885960D01*
X67514040Y-81708089D01*
X67304886Y-81568337D01*
X67072487Y-81472074D01*
X66825774Y-81423000D01*
X66574226Y-81423000D01*
X66327513Y-81472074D01*
X66095114Y-81568337D01*
X65885960Y-81708089D01*
X65708089Y-81885960D01*
X65568337Y-82095114D01*
X65472074Y-82327513D01*
X65423000Y-82574226D01*
X65027000Y-82574226D01*
X65027000Y-74361526D01*
X65131663Y-74204886D01*
X65227926Y-73972487D01*
X65277000Y-73725774D01*
X65277000Y-73474226D01*
X65227926Y-73227513D01*
X65131663Y-72995114D01*
X65027000Y-72838474D01*
X65027000Y-71327000D01*
X65191301Y-71327000D01*
X65370396Y-71291376D01*
X65539099Y-71221496D01*
X65690928Y-71120048D01*
X65820048Y-70990928D01*
X65921496Y-70839099D01*
X65991376Y-70670396D01*
X66027000Y-70491301D01*
X66027000Y-70308699D01*
X65991376Y-70129604D01*
X65921496Y-69960901D01*
X65820048Y-69809072D01*
X65752000Y-69741024D01*
X65752000Y-66758976D01*
X65804618Y-66706358D01*
X72955400Y-66706358D01*
X72955400Y-66888960D01*
X72991024Y-67068055D01*
X73060904Y-67236758D01*
X73162352Y-67388587D01*
X73230400Y-67456635D01*
X73230401Y-70558623D01*
X73179952Y-70609072D01*
X73078504Y-70760901D01*
X73008624Y-70929604D01*
X72973000Y-71108699D01*
X72973000Y-71291301D01*
X73008624Y-71470396D01*
X73078504Y-71639099D01*
X73179952Y-71790928D01*
X73309072Y-71920048D01*
X73460901Y-72021496D01*
X73629604Y-72091376D01*
X73808699Y-72127000D01*
X73991301Y-72127000D01*
X74170396Y-72091376D01*
X74339099Y-72021496D01*
X74490928Y-71920048D01*
X74620048Y-71790928D01*
X74721496Y-71639099D01*
X74791376Y-71470396D01*
X74827000Y-71291301D01*
X74827000Y-71108699D01*
X74791376Y-70929604D01*
X74721496Y-70760901D01*
X74620048Y-70609072D01*
X74534400Y-70523424D01*
X74534400Y-67456635D01*
X74602448Y-67388587D01*
X74703896Y-67236758D01*
X74773776Y-67068055D01*
X74809400Y-66888960D01*
X74809400Y-66706358D01*
X74773776Y-66527263D01*
X74703896Y-66358560D01*
X74602448Y-66206731D01*
X74473328Y-66077611D01*
X74321499Y-65976163D01*
X74160121Y-65909317D01*
X74208984Y-65909317D01*
X74388079Y-65873693D01*
X74556782Y-65803813D01*
X74708611Y-65702365D01*
X74837731Y-65573245D01*
X74939179Y-65421416D01*
X75009059Y-65252713D01*
X75044683Y-65073618D01*
X75044683Y-64891016D01*
X75009059Y-64711921D01*
X74939179Y-64543218D01*
X74837731Y-64391389D01*
X74752000Y-64305658D01*
X74752000Y-64149095D01*
X74779952Y-64190928D01*
X74909072Y-64320048D01*
X75060901Y-64421496D01*
X75229604Y-64491376D01*
X75408699Y-64527000D01*
X75591301Y-64527000D01*
X75770396Y-64491376D01*
X75939099Y-64421496D01*
X76090928Y-64320048D01*
X76220048Y-64190928D01*
X76272024Y-64113140D01*
X76435718Y-64180945D01*
X76614813Y-64216569D01*
X76797415Y-64216569D01*
X76976510Y-64180945D01*
X77114604Y-64123744D01*
X77260901Y-64221496D01*
X77429604Y-64291376D01*
X77608699Y-64327000D01*
X77791301Y-64327000D01*
X77970396Y-64291376D01*
X78139099Y-64221496D01*
X78290928Y-64120048D01*
X78420048Y-63990928D01*
X78521496Y-63839099D01*
X78591376Y-63670396D01*
X78627000Y-63491301D01*
X78627000Y-63308699D01*
X78591376Y-63129604D01*
X78521496Y-62960901D01*
X78420048Y-62809072D01*
X78290928Y-62679952D01*
X78152000Y-62587124D01*
X78152000Y-60266336D01*
X78155154Y-60234314D01*
X78142565Y-60106500D01*
X78112897Y-60008699D01*
X78105283Y-59983598D01*
X78044741Y-59870331D01*
X77963264Y-59771051D01*
X77938382Y-59750631D01*
X77849370Y-59661619D01*
X77828949Y-59636736D01*
X77729669Y-59555259D01*
X77616402Y-59494717D01*
X77493499Y-59457435D01*
X77465670Y-59454694D01*
X77390928Y-59379952D01*
X77239099Y-59278504D01*
X77070396Y-59208624D01*
X76891301Y-59173000D01*
X76708699Y-59173000D01*
X76529604Y-59208624D01*
X76360901Y-59278504D01*
X76352000Y-59284451D01*
X76352000Y-59233976D01*
X76420048Y-59165928D01*
X76521496Y-59014099D01*
X76591376Y-58845396D01*
X76627000Y-58666301D01*
X76627000Y-58483699D01*
X76591376Y-58304604D01*
X76521496Y-58135901D01*
X76420048Y-57984072D01*
X76290928Y-57854952D01*
X76139099Y-57753504D01*
X75970396Y-57683624D01*
X75791301Y-57648000D01*
X75608699Y-57648000D01*
X75429604Y-57683624D01*
X75260901Y-57753504D01*
X75255956Y-57756808D01*
X75141766Y-57680509D01*
X74973063Y-57610629D01*
X74793968Y-57575005D01*
X74611366Y-57575005D01*
X74432271Y-57610629D01*
X74263568Y-57680509D01*
X74111739Y-57781957D01*
X73982619Y-57911077D01*
X73881171Y-58062906D01*
X73811291Y-58231609D01*
X73775667Y-58410704D01*
X73775667Y-58430966D01*
X73660901Y-58478504D01*
X73509072Y-58579952D01*
X73379952Y-58709072D01*
X73278504Y-58860901D01*
X73208624Y-59029604D01*
X73173000Y-59208699D01*
X73173000Y-59391301D01*
X73208624Y-59570396D01*
X73278504Y-59739099D01*
X73379952Y-59890928D01*
X73448000Y-59958976D01*
X73448001Y-64341023D01*
X73397635Y-64391389D01*
X73296187Y-64543218D01*
X73226307Y-64711921D01*
X73190683Y-64891016D01*
X73190683Y-65073618D01*
X73226307Y-65252713D01*
X73296187Y-65421416D01*
X73397635Y-65573245D01*
X73526755Y-65702365D01*
X73678584Y-65803813D01*
X73839962Y-65870659D01*
X73791099Y-65870659D01*
X73612004Y-65906283D01*
X73443301Y-65976163D01*
X73291472Y-66077611D01*
X73162352Y-66206731D01*
X73060904Y-66358560D01*
X72991024Y-66527263D01*
X72955400Y-66706358D01*
X65804618Y-66706358D01*
X65820048Y-66690928D01*
X65921496Y-66539099D01*
X65991376Y-66370396D01*
X66027000Y-66191301D01*
X66027000Y-66008699D01*
X65991376Y-65829604D01*
X65921496Y-65660901D01*
X65820048Y-65509072D01*
X65690928Y-65379952D01*
X65539099Y-65278504D01*
X65370396Y-65208624D01*
X65191301Y-65173000D01*
X65027000Y-65173000D01*
X65027000Y-63605346D01*
X65204886Y-63531663D01*
X65414040Y-63391911D01*
X65591911Y-63214040D01*
X65731663Y-63004886D01*
X65827926Y-62772487D01*
X65877000Y-62525774D01*
X65877000Y-62274226D01*
X65827926Y-62027513D01*
X65731663Y-61795114D01*
X65591911Y-61585960D01*
X65414040Y-61408089D01*
X65204886Y-61268337D01*
X64972487Y-61172074D01*
X64725774Y-61123000D01*
X64474226Y-61123000D01*
X64227513Y-61172074D01*
X63995114Y-61268337D01*
X63785960Y-61408089D01*
X63608089Y-61585960D01*
X63468337Y-61795114D01*
X63372074Y-62027513D01*
X63335321Y-62212283D01*
X63309476Y-62238128D01*
X63270289Y-62270288D01*
X63252000Y-62292573D01*
X63252000Y-60646059D01*
X63290928Y-60620048D01*
X63420048Y-60490928D01*
X63521496Y-60339099D01*
X63591376Y-60170396D01*
X63627000Y-59991301D01*
X63627000Y-59808699D01*
X63591376Y-59629604D01*
X63521496Y-59460901D01*
X63420048Y-59309072D01*
X63290928Y-59179952D01*
X63139099Y-59078504D01*
X62970396Y-59008624D01*
X62791301Y-58973000D01*
X62608699Y-58973000D01*
X62429604Y-59008624D01*
X62260901Y-59078504D01*
X62109072Y-59179952D01*
X61979952Y-59309072D01*
X61878504Y-59460901D01*
X61808624Y-59629604D01*
X61773000Y-59808699D01*
X61773000Y-59975128D01*
X61604604Y-60008624D01*
X61435901Y-60078504D01*
X61284072Y-60179952D01*
X61154952Y-60309072D01*
X61053504Y-60460901D01*
X60983624Y-60629604D01*
X60948000Y-60808699D01*
X60948000Y-60991301D01*
X60983624Y-61170396D01*
X61053504Y-61339099D01*
X61148001Y-61480525D01*
X61148000Y-70541024D01*
X61079952Y-70609072D01*
X60978504Y-70760901D01*
X60908624Y-70929604D01*
X60873000Y-71108699D01*
X59659549Y-71108699D01*
X59659549Y-70340000D01*
X59649374Y-70236690D01*
X59619239Y-70137350D01*
X59570304Y-70045798D01*
X59504448Y-69965552D01*
X59424202Y-69899696D01*
X59332650Y-69850761D01*
X59233310Y-69820626D01*
X59130000Y-69810451D01*
X59021798Y-69810451D01*
X59157787Y-69719586D01*
X59349586Y-69527787D01*
X59500282Y-69302254D01*
X59604083Y-69051656D01*
X59657000Y-68785623D01*
X59657000Y-68514377D01*
X59604083Y-68248344D01*
X59500282Y-67997746D01*
X59349586Y-67772213D01*
X59157787Y-67580414D01*
X58932254Y-67429718D01*
X58812224Y-67380000D01*
X58932254Y-67330282D01*
X59157787Y-67179586D01*
X59349586Y-66987787D01*
X59500282Y-66762254D01*
X59604083Y-66511656D01*
X59657000Y-66245623D01*
X59657000Y-65974377D01*
X59604083Y-65708344D01*
X59500282Y-65457746D01*
X59349586Y-65232213D01*
X59157787Y-65040414D01*
X58932254Y-64889718D01*
X58812224Y-64840000D01*
X58932254Y-64790282D01*
X59157787Y-64639586D01*
X59349586Y-64447787D01*
X59500282Y-64222254D01*
X59604083Y-63971656D01*
X59657000Y-63705623D01*
X59657000Y-63434377D01*
X59604083Y-63168344D01*
X59500282Y-62917746D01*
X59349586Y-62692213D01*
X59157787Y-62500414D01*
X58941692Y-62356025D01*
X59161355Y-62225178D01*
X59377588Y-62030269D01*
X59551641Y-61796920D01*
X59676825Y-61534099D01*
X59721476Y-61386890D01*
X59600155Y-61157000D01*
X58407000Y-61157000D01*
X58407000Y-61177000D01*
X58153000Y-61177000D01*
X58153000Y-61157000D01*
X56959845Y-61157000D01*
X56838524Y-61386890D01*
X50977748Y-61386890D01*
X51056901Y-61120867D01*
X51098594Y-60673110D01*
X56838524Y-60673110D01*
X56959845Y-60903000D01*
X58153000Y-60903000D01*
X58153000Y-59709186D01*
X58407000Y-59709186D01*
X58407000Y-60903000D01*
X59600155Y-60903000D01*
X59721476Y-60673110D01*
X59676825Y-60525901D01*
X59551641Y-60263080D01*
X59377588Y-60029731D01*
X59161355Y-59834822D01*
X58911252Y-59685843D01*
X58636891Y-59588519D01*
X58407000Y-59709186D01*
X58153000Y-59709186D01*
X57923109Y-59588519D01*
X57648748Y-59685843D01*
X57398645Y-59834822D01*
X57182412Y-60029731D01*
X57008359Y-60263080D01*
X56883175Y-60525901D01*
X56838524Y-60673110D01*
X51098594Y-60673110D01*
X51108678Y-60564826D01*
X51050981Y-60009368D01*
X50886028Y-59475839D01*
X50637018Y-59009976D01*
X50249775Y-58769830D01*
X48439605Y-60580000D01*
X48080395Y-60580000D01*
X46270225Y-58769830D01*
X45882982Y-59009976D01*
X45622359Y-59503877D01*
X45463099Y-60039133D01*
X45411322Y-60595174D01*
X42552000Y-60595174D01*
X42552000Y-58590225D01*
X46449830Y-58590225D01*
X48260000Y-60400395D01*
X50070170Y-58590225D01*
X49830024Y-58202982D01*
X49336123Y-57942359D01*
X48800867Y-57783099D01*
X48244826Y-57731322D01*
X47689368Y-57789019D01*
X47155839Y-57953972D01*
X46689976Y-58202982D01*
X46449830Y-58590225D01*
X42552000Y-58590225D01*
X42552000Y-57552000D01*
X91567966Y-57552000D01*
X91478504Y-57685891D01*
M02*
