G04 #@! TF.GenerationSoftware,KiCad,Pcbnew,(5.1.5)-3*
G04 #@! TF.CreationDate,2020-05-09T18:25:30-04:00*
G04 #@! TF.ProjectId,motor_arm,6d6f746f-725f-4617-926d-2e6b69636164,rev?*
G04 #@! TF.SameCoordinates,Original*
G04 #@! TF.FileFunction,Soldermask,Bot*
G04 #@! TF.FilePolarity,Negative*
%FSLAX46Y46*%
G04 Gerber Fmt 4.6, Leading zero omitted, Abs format (unit mm)*
G04 Created by KiCad (PCBNEW (5.1.5)-3) date 2020-05-09 18:25:30*
%MOMM*%
%LPD*%
G04 APERTURE LIST*
%ADD10C,0.100000*%
G04 APERTURE END LIST*
D10*
G36*
X48235880Y-69579776D02*
G01*
X48616593Y-69655504D01*
X49026249Y-69825189D01*
X49394929Y-70071534D01*
X49708466Y-70385071D01*
X49954811Y-70753751D01*
X50124496Y-71163407D01*
X50211000Y-71598296D01*
X50211000Y-72041704D01*
X50124496Y-72476593D01*
X49954811Y-72886249D01*
X49708466Y-73254929D01*
X49394929Y-73568466D01*
X49026249Y-73814811D01*
X48616593Y-73984496D01*
X48235880Y-74060224D01*
X48181705Y-74071000D01*
X47738295Y-74071000D01*
X47684120Y-74060224D01*
X47303407Y-73984496D01*
X46893751Y-73814811D01*
X46525071Y-73568466D01*
X46211534Y-73254929D01*
X45965189Y-72886249D01*
X45795504Y-72476593D01*
X45709000Y-72041704D01*
X45709000Y-71598296D01*
X45795504Y-71163407D01*
X45965189Y-70753751D01*
X46211534Y-70385071D01*
X46525071Y-70071534D01*
X46893751Y-69825189D01*
X47303407Y-69655504D01*
X47684120Y-69579776D01*
X47738295Y-69569000D01*
X48181705Y-69569000D01*
X48235880Y-69579776D01*
G37*
G36*
X59181000Y-72091000D02*
G01*
X57379000Y-72091000D01*
X57379000Y-70289000D01*
X59181000Y-70289000D01*
X59181000Y-72091000D01*
G37*
G36*
X58384261Y-67752087D02*
G01*
X58542812Y-67783624D01*
X58706784Y-67851544D01*
X58854354Y-67950147D01*
X58979853Y-68075646D01*
X59078456Y-68223216D01*
X59146376Y-68387188D01*
X59181000Y-68561259D01*
X59181000Y-68738741D01*
X59146376Y-68912812D01*
X59078456Y-69076784D01*
X58979853Y-69224354D01*
X58854354Y-69349853D01*
X58706784Y-69448456D01*
X58542812Y-69516376D01*
X58393512Y-69546073D01*
X58368742Y-69551000D01*
X58191258Y-69551000D01*
X58166488Y-69546073D01*
X58017188Y-69516376D01*
X57853216Y-69448456D01*
X57705646Y-69349853D01*
X57580147Y-69224354D01*
X57481544Y-69076784D01*
X57413624Y-68912812D01*
X57379000Y-68738741D01*
X57379000Y-68561259D01*
X57413624Y-68387188D01*
X57481544Y-68223216D01*
X57580147Y-68075646D01*
X57705646Y-67950147D01*
X57853216Y-67851544D01*
X58017188Y-67783624D01*
X58175739Y-67752087D01*
X58191258Y-67749000D01*
X58368742Y-67749000D01*
X58384261Y-67752087D01*
G37*
G36*
X48405880Y-63989776D02*
G01*
X48786593Y-64065504D01*
X49196249Y-64235189D01*
X49564929Y-64481534D01*
X49878466Y-64795071D01*
X50124811Y-65163751D01*
X50294496Y-65573407D01*
X50381000Y-66008296D01*
X50381000Y-66451704D01*
X50294496Y-66886593D01*
X50124811Y-67296249D01*
X49878466Y-67664929D01*
X49564929Y-67978466D01*
X49196249Y-68224811D01*
X48786593Y-68394496D01*
X48405880Y-68470224D01*
X48351705Y-68481000D01*
X47908295Y-68481000D01*
X47854120Y-68470224D01*
X47473407Y-68394496D01*
X47063751Y-68224811D01*
X46695071Y-67978466D01*
X46381534Y-67664929D01*
X46135189Y-67296249D01*
X45965504Y-66886593D01*
X45879000Y-66451704D01*
X45879000Y-66008296D01*
X45965504Y-65573407D01*
X46135189Y-65163751D01*
X46381534Y-64795071D01*
X46695071Y-64481534D01*
X47063751Y-64235189D01*
X47473407Y-64065504D01*
X47854120Y-63989776D01*
X47908295Y-63979000D01*
X48351705Y-63979000D01*
X48405880Y-63989776D01*
G37*
G36*
X58393512Y-65213927D02*
G01*
X58542812Y-65243624D01*
X58706784Y-65311544D01*
X58854354Y-65410147D01*
X58979853Y-65535646D01*
X59078456Y-65683216D01*
X59146376Y-65847188D01*
X59181000Y-66021259D01*
X59181000Y-66198741D01*
X59146376Y-66372812D01*
X59078456Y-66536784D01*
X58979853Y-66684354D01*
X58854354Y-66809853D01*
X58706784Y-66908456D01*
X58542812Y-66976376D01*
X58393512Y-67006073D01*
X58368742Y-67011000D01*
X58191258Y-67011000D01*
X58166488Y-67006073D01*
X58017188Y-66976376D01*
X57853216Y-66908456D01*
X57705646Y-66809853D01*
X57580147Y-66684354D01*
X57481544Y-66536784D01*
X57413624Y-66372812D01*
X57379000Y-66198741D01*
X57379000Y-66021259D01*
X57413624Y-65847188D01*
X57481544Y-65683216D01*
X57580147Y-65535646D01*
X57705646Y-65410147D01*
X57853216Y-65311544D01*
X58017188Y-65243624D01*
X58166488Y-65213927D01*
X58191258Y-65209000D01*
X58368742Y-65209000D01*
X58393512Y-65213927D01*
G37*
G36*
X58393512Y-62673927D02*
G01*
X58542812Y-62703624D01*
X58706784Y-62771544D01*
X58854354Y-62870147D01*
X58979853Y-62995646D01*
X59078456Y-63143216D01*
X59146376Y-63307188D01*
X59181000Y-63481259D01*
X59181000Y-63658741D01*
X59146376Y-63832812D01*
X59078456Y-63996784D01*
X58979853Y-64144354D01*
X58854354Y-64269853D01*
X58706784Y-64368456D01*
X58542812Y-64436376D01*
X58393512Y-64466073D01*
X58368742Y-64471000D01*
X58191258Y-64471000D01*
X58166488Y-64466073D01*
X58017188Y-64436376D01*
X57853216Y-64368456D01*
X57705646Y-64269853D01*
X57580147Y-64144354D01*
X57481544Y-63996784D01*
X57413624Y-63832812D01*
X57379000Y-63658741D01*
X57379000Y-63481259D01*
X57413624Y-63307188D01*
X57481544Y-63143216D01*
X57580147Y-62995646D01*
X57705646Y-62870147D01*
X57853216Y-62771544D01*
X58017188Y-62703624D01*
X58166488Y-62673927D01*
X58191258Y-62669000D01*
X58368742Y-62669000D01*
X58393512Y-62673927D01*
G37*
G36*
X48535880Y-58339776D02*
G01*
X48916593Y-58415504D01*
X49326249Y-58585189D01*
X49694929Y-58831534D01*
X50008466Y-59145071D01*
X50254811Y-59513751D01*
X50424496Y-59923407D01*
X50511000Y-60358296D01*
X50511000Y-60801704D01*
X50424496Y-61236593D01*
X50254811Y-61646249D01*
X50008466Y-62014929D01*
X49694929Y-62328466D01*
X49326249Y-62574811D01*
X48916593Y-62744496D01*
X48535880Y-62820224D01*
X48481705Y-62831000D01*
X48038295Y-62831000D01*
X47984120Y-62820224D01*
X47603407Y-62744496D01*
X47193751Y-62574811D01*
X46825071Y-62328466D01*
X46511534Y-62014929D01*
X46265189Y-61646249D01*
X46095504Y-61236593D01*
X46009000Y-60801704D01*
X46009000Y-60358296D01*
X46095504Y-59923407D01*
X46265189Y-59513751D01*
X46511534Y-59145071D01*
X46825071Y-58831534D01*
X47193751Y-58585189D01*
X47603407Y-58415504D01*
X47984120Y-58339776D01*
X48038295Y-58329000D01*
X48481705Y-58329000D01*
X48535880Y-58339776D01*
G37*
G36*
X58393512Y-60133927D02*
G01*
X58542812Y-60163624D01*
X58706784Y-60231544D01*
X58854354Y-60330147D01*
X58979853Y-60455646D01*
X59078456Y-60603216D01*
X59146376Y-60767188D01*
X59181000Y-60941259D01*
X59181000Y-61118741D01*
X59146376Y-61292812D01*
X59078456Y-61456784D01*
X58979853Y-61604354D01*
X58854354Y-61729853D01*
X58706784Y-61828456D01*
X58542812Y-61896376D01*
X58393512Y-61926073D01*
X58368742Y-61931000D01*
X58191258Y-61931000D01*
X58166488Y-61926073D01*
X58017188Y-61896376D01*
X57853216Y-61828456D01*
X57705646Y-61729853D01*
X57580147Y-61604354D01*
X57481544Y-61456784D01*
X57413624Y-61292812D01*
X57379000Y-61118741D01*
X57379000Y-60941259D01*
X57413624Y-60767188D01*
X57481544Y-60603216D01*
X57580147Y-60455646D01*
X57705646Y-60330147D01*
X57853216Y-60231544D01*
X58017188Y-60163624D01*
X58166488Y-60133927D01*
X58191258Y-60129000D01*
X58368742Y-60129000D01*
X58393512Y-60133927D01*
G37*
M02*
