G04 #@! TF.GenerationSoftware,KiCad,Pcbnew,(5.1.5)-3*
G04 #@! TF.CreationDate,2020-05-09T18:25:29-04:00*
G04 #@! TF.ProjectId,motor_arm,6d6f746f-725f-4617-926d-2e6b69636164,rev?*
G04 #@! TF.SameCoordinates,Original*
G04 #@! TF.FileFunction,Copper,L1,Top*
G04 #@! TF.FilePolarity,Positive*
%FSLAX46Y46*%
G04 Gerber Fmt 4.6, Leading zero omitted, Abs format (unit mm)*
G04 Created by KiCad (PCBNEW (5.1.5)-3) date 2020-05-09 18:25:29*
%MOMM*%
%LPD*%
G04 APERTURE LIST*
%ADD10R,0.300000X0.250000*%
%ADD11R,1.600000X2.100000*%
%ADD12C,0.100000*%
%ADD13R,1.050000X1.075000*%
%ADD14R,0.400000X0.500000*%
%ADD15R,0.285000X0.920000*%
%ADD16R,1.800000X1.800000*%
%ADD17R,0.300000X0.900000*%
%ADD18R,0.300000X0.300000*%
%ADD19R,0.900000X0.300000*%
%ADD20R,0.550000X0.800000*%
%ADD21C,1.000000*%
%ADD22O,1.700000X1.700000*%
%ADD23R,1.700000X1.700000*%
%ADD24R,4.000000X3.000000*%
%ADD25C,0.700000*%
%ADD26C,4.400000*%
%ADD27R,1.000000X1.000000*%
%ADD28C,0.800000*%
%ADD29C,1.500000*%
%ADD30C,0.250000*%
%ADD31C,1.000000*%
G04 APERTURE END LIST*
D10*
X95100000Y-77270000D03*
X95100000Y-77770000D03*
X95100000Y-78270000D03*
X95100000Y-78770000D03*
X95100000Y-79270000D03*
X97500000Y-79270000D03*
X97500000Y-78770000D03*
X97500000Y-78270000D03*
X97500000Y-77770000D03*
X97500000Y-77270000D03*
D11*
X96300000Y-78270000D03*
X75400000Y-78270000D03*
D10*
X76600000Y-77270000D03*
X76600000Y-77770000D03*
X76600000Y-78270000D03*
X76600000Y-78770000D03*
X76600000Y-79270000D03*
X74200000Y-79270000D03*
X74200000Y-78770000D03*
X74200000Y-78270000D03*
X74200000Y-77770000D03*
X74200000Y-77270000D03*
D11*
X55300000Y-78270000D03*
D10*
X56500000Y-77270000D03*
X56500000Y-77770000D03*
X56500000Y-78270000D03*
X56500000Y-78770000D03*
X56500000Y-79270000D03*
X54100000Y-79270000D03*
X54100000Y-78770000D03*
X54100000Y-78270000D03*
X54100000Y-77770000D03*
X54100000Y-77270000D03*
G04 #@! TA.AperFunction,SMDPad,CuDef*
D12*
G36*
X95680779Y-64656144D02*
G01*
X95703834Y-64659563D01*
X95726443Y-64665227D01*
X95748387Y-64673079D01*
X95769457Y-64683044D01*
X95789448Y-64695026D01*
X95808168Y-64708910D01*
X95825438Y-64724562D01*
X95841090Y-64741832D01*
X95854974Y-64760552D01*
X95866956Y-64780543D01*
X95876921Y-64801613D01*
X95884773Y-64823557D01*
X95890437Y-64846166D01*
X95893856Y-64869221D01*
X95895000Y-64892500D01*
X95895000Y-65367500D01*
X95893856Y-65390779D01*
X95890437Y-65413834D01*
X95884773Y-65436443D01*
X95876921Y-65458387D01*
X95866956Y-65479457D01*
X95854974Y-65499448D01*
X95841090Y-65518168D01*
X95825438Y-65535438D01*
X95808168Y-65551090D01*
X95789448Y-65564974D01*
X95769457Y-65576956D01*
X95748387Y-65586921D01*
X95726443Y-65594773D01*
X95703834Y-65600437D01*
X95680779Y-65603856D01*
X95657500Y-65605000D01*
X95082500Y-65605000D01*
X95059221Y-65603856D01*
X95036166Y-65600437D01*
X95013557Y-65594773D01*
X94991613Y-65586921D01*
X94970543Y-65576956D01*
X94950552Y-65564974D01*
X94931832Y-65551090D01*
X94914562Y-65535438D01*
X94898910Y-65518168D01*
X94885026Y-65499448D01*
X94873044Y-65479457D01*
X94863079Y-65458387D01*
X94855227Y-65436443D01*
X94849563Y-65413834D01*
X94846144Y-65390779D01*
X94845000Y-65367500D01*
X94845000Y-64892500D01*
X94846144Y-64869221D01*
X94849563Y-64846166D01*
X94855227Y-64823557D01*
X94863079Y-64801613D01*
X94873044Y-64780543D01*
X94885026Y-64760552D01*
X94898910Y-64741832D01*
X94914562Y-64724562D01*
X94931832Y-64708910D01*
X94950552Y-64695026D01*
X94970543Y-64683044D01*
X94991613Y-64673079D01*
X95013557Y-64665227D01*
X95036166Y-64659563D01*
X95059221Y-64656144D01*
X95082500Y-64655000D01*
X95657500Y-64655000D01*
X95680779Y-64656144D01*
G37*
G04 #@! TD.AperFunction*
G04 #@! TA.AperFunction,SMDPad,CuDef*
G36*
X93930779Y-64656144D02*
G01*
X93953834Y-64659563D01*
X93976443Y-64665227D01*
X93998387Y-64673079D01*
X94019457Y-64683044D01*
X94039448Y-64695026D01*
X94058168Y-64708910D01*
X94075438Y-64724562D01*
X94091090Y-64741832D01*
X94104974Y-64760552D01*
X94116956Y-64780543D01*
X94126921Y-64801613D01*
X94134773Y-64823557D01*
X94140437Y-64846166D01*
X94143856Y-64869221D01*
X94145000Y-64892500D01*
X94145000Y-65367500D01*
X94143856Y-65390779D01*
X94140437Y-65413834D01*
X94134773Y-65436443D01*
X94126921Y-65458387D01*
X94116956Y-65479457D01*
X94104974Y-65499448D01*
X94091090Y-65518168D01*
X94075438Y-65535438D01*
X94058168Y-65551090D01*
X94039448Y-65564974D01*
X94019457Y-65576956D01*
X93998387Y-65586921D01*
X93976443Y-65594773D01*
X93953834Y-65600437D01*
X93930779Y-65603856D01*
X93907500Y-65605000D01*
X93332500Y-65605000D01*
X93309221Y-65603856D01*
X93286166Y-65600437D01*
X93263557Y-65594773D01*
X93241613Y-65586921D01*
X93220543Y-65576956D01*
X93200552Y-65564974D01*
X93181832Y-65551090D01*
X93164562Y-65535438D01*
X93148910Y-65518168D01*
X93135026Y-65499448D01*
X93123044Y-65479457D01*
X93113079Y-65458387D01*
X93105227Y-65436443D01*
X93099563Y-65413834D01*
X93096144Y-65390779D01*
X93095000Y-65367500D01*
X93095000Y-64892500D01*
X93096144Y-64869221D01*
X93099563Y-64846166D01*
X93105227Y-64823557D01*
X93113079Y-64801613D01*
X93123044Y-64780543D01*
X93135026Y-64760552D01*
X93148910Y-64741832D01*
X93164562Y-64724562D01*
X93181832Y-64708910D01*
X93200552Y-64695026D01*
X93220543Y-64683044D01*
X93241613Y-64673079D01*
X93263557Y-64665227D01*
X93286166Y-64659563D01*
X93309221Y-64656144D01*
X93332500Y-64655000D01*
X93907500Y-64655000D01*
X93930779Y-64656144D01*
G37*
G04 #@! TD.AperFunction*
G04 #@! TA.AperFunction,SMDPad,CuDef*
G36*
X54910779Y-65736144D02*
G01*
X54933834Y-65739563D01*
X54956443Y-65745227D01*
X54978387Y-65753079D01*
X54999457Y-65763044D01*
X55019448Y-65775026D01*
X55038168Y-65788910D01*
X55055438Y-65804562D01*
X55071090Y-65821832D01*
X55084974Y-65840552D01*
X55096956Y-65860543D01*
X55106921Y-65881613D01*
X55114773Y-65903557D01*
X55120437Y-65926166D01*
X55123856Y-65949221D01*
X55125000Y-65972500D01*
X55125000Y-66447500D01*
X55123856Y-66470779D01*
X55120437Y-66493834D01*
X55114773Y-66516443D01*
X55106921Y-66538387D01*
X55096956Y-66559457D01*
X55084974Y-66579448D01*
X55071090Y-66598168D01*
X55055438Y-66615438D01*
X55038168Y-66631090D01*
X55019448Y-66644974D01*
X54999457Y-66656956D01*
X54978387Y-66666921D01*
X54956443Y-66674773D01*
X54933834Y-66680437D01*
X54910779Y-66683856D01*
X54887500Y-66685000D01*
X54312500Y-66685000D01*
X54289221Y-66683856D01*
X54266166Y-66680437D01*
X54243557Y-66674773D01*
X54221613Y-66666921D01*
X54200543Y-66656956D01*
X54180552Y-66644974D01*
X54161832Y-66631090D01*
X54144562Y-66615438D01*
X54128910Y-66598168D01*
X54115026Y-66579448D01*
X54103044Y-66559457D01*
X54093079Y-66538387D01*
X54085227Y-66516443D01*
X54079563Y-66493834D01*
X54076144Y-66470779D01*
X54075000Y-66447500D01*
X54075000Y-65972500D01*
X54076144Y-65949221D01*
X54079563Y-65926166D01*
X54085227Y-65903557D01*
X54093079Y-65881613D01*
X54103044Y-65860543D01*
X54115026Y-65840552D01*
X54128910Y-65821832D01*
X54144562Y-65804562D01*
X54161832Y-65788910D01*
X54180552Y-65775026D01*
X54200543Y-65763044D01*
X54221613Y-65753079D01*
X54243557Y-65745227D01*
X54266166Y-65739563D01*
X54289221Y-65736144D01*
X54312500Y-65735000D01*
X54887500Y-65735000D01*
X54910779Y-65736144D01*
G37*
G04 #@! TD.AperFunction*
G04 #@! TA.AperFunction,SMDPad,CuDef*
G36*
X53160779Y-65736144D02*
G01*
X53183834Y-65739563D01*
X53206443Y-65745227D01*
X53228387Y-65753079D01*
X53249457Y-65763044D01*
X53269448Y-65775026D01*
X53288168Y-65788910D01*
X53305438Y-65804562D01*
X53321090Y-65821832D01*
X53334974Y-65840552D01*
X53346956Y-65860543D01*
X53356921Y-65881613D01*
X53364773Y-65903557D01*
X53370437Y-65926166D01*
X53373856Y-65949221D01*
X53375000Y-65972500D01*
X53375000Y-66447500D01*
X53373856Y-66470779D01*
X53370437Y-66493834D01*
X53364773Y-66516443D01*
X53356921Y-66538387D01*
X53346956Y-66559457D01*
X53334974Y-66579448D01*
X53321090Y-66598168D01*
X53305438Y-66615438D01*
X53288168Y-66631090D01*
X53269448Y-66644974D01*
X53249457Y-66656956D01*
X53228387Y-66666921D01*
X53206443Y-66674773D01*
X53183834Y-66680437D01*
X53160779Y-66683856D01*
X53137500Y-66685000D01*
X52562500Y-66685000D01*
X52539221Y-66683856D01*
X52516166Y-66680437D01*
X52493557Y-66674773D01*
X52471613Y-66666921D01*
X52450543Y-66656956D01*
X52430552Y-66644974D01*
X52411832Y-66631090D01*
X52394562Y-66615438D01*
X52378910Y-66598168D01*
X52365026Y-66579448D01*
X52353044Y-66559457D01*
X52343079Y-66538387D01*
X52335227Y-66516443D01*
X52329563Y-66493834D01*
X52326144Y-66470779D01*
X52325000Y-66447500D01*
X52325000Y-65972500D01*
X52326144Y-65949221D01*
X52329563Y-65926166D01*
X52335227Y-65903557D01*
X52343079Y-65881613D01*
X52353044Y-65860543D01*
X52365026Y-65840552D01*
X52378910Y-65821832D01*
X52394562Y-65804562D01*
X52411832Y-65788910D01*
X52430552Y-65775026D01*
X52450543Y-65763044D01*
X52471613Y-65753079D01*
X52493557Y-65745227D01*
X52516166Y-65739563D01*
X52539221Y-65736144D01*
X52562500Y-65735000D01*
X53137500Y-65735000D01*
X53160779Y-65736144D01*
G37*
G04 #@! TD.AperFunction*
G04 #@! TA.AperFunction,SMDPad,CuDef*
G36*
X91010779Y-80426144D02*
G01*
X91033834Y-80429563D01*
X91056443Y-80435227D01*
X91078387Y-80443079D01*
X91099457Y-80453044D01*
X91119448Y-80465026D01*
X91138168Y-80478910D01*
X91155438Y-80494562D01*
X91171090Y-80511832D01*
X91184974Y-80530552D01*
X91196956Y-80550543D01*
X91206921Y-80571613D01*
X91214773Y-80593557D01*
X91220437Y-80616166D01*
X91223856Y-80639221D01*
X91225000Y-80662500D01*
X91225000Y-81137500D01*
X91223856Y-81160779D01*
X91220437Y-81183834D01*
X91214773Y-81206443D01*
X91206921Y-81228387D01*
X91196956Y-81249457D01*
X91184974Y-81269448D01*
X91171090Y-81288168D01*
X91155438Y-81305438D01*
X91138168Y-81321090D01*
X91119448Y-81334974D01*
X91099457Y-81346956D01*
X91078387Y-81356921D01*
X91056443Y-81364773D01*
X91033834Y-81370437D01*
X91010779Y-81373856D01*
X90987500Y-81375000D01*
X90412500Y-81375000D01*
X90389221Y-81373856D01*
X90366166Y-81370437D01*
X90343557Y-81364773D01*
X90321613Y-81356921D01*
X90300543Y-81346956D01*
X90280552Y-81334974D01*
X90261832Y-81321090D01*
X90244562Y-81305438D01*
X90228910Y-81288168D01*
X90215026Y-81269448D01*
X90203044Y-81249457D01*
X90193079Y-81228387D01*
X90185227Y-81206443D01*
X90179563Y-81183834D01*
X90176144Y-81160779D01*
X90175000Y-81137500D01*
X90175000Y-80662500D01*
X90176144Y-80639221D01*
X90179563Y-80616166D01*
X90185227Y-80593557D01*
X90193079Y-80571613D01*
X90203044Y-80550543D01*
X90215026Y-80530552D01*
X90228910Y-80511832D01*
X90244562Y-80494562D01*
X90261832Y-80478910D01*
X90280552Y-80465026D01*
X90300543Y-80453044D01*
X90321613Y-80443079D01*
X90343557Y-80435227D01*
X90366166Y-80429563D01*
X90389221Y-80426144D01*
X90412500Y-80425000D01*
X90987500Y-80425000D01*
X91010779Y-80426144D01*
G37*
G04 #@! TD.AperFunction*
G04 #@! TA.AperFunction,SMDPad,CuDef*
G36*
X89260779Y-80426144D02*
G01*
X89283834Y-80429563D01*
X89306443Y-80435227D01*
X89328387Y-80443079D01*
X89349457Y-80453044D01*
X89369448Y-80465026D01*
X89388168Y-80478910D01*
X89405438Y-80494562D01*
X89421090Y-80511832D01*
X89434974Y-80530552D01*
X89446956Y-80550543D01*
X89456921Y-80571613D01*
X89464773Y-80593557D01*
X89470437Y-80616166D01*
X89473856Y-80639221D01*
X89475000Y-80662500D01*
X89475000Y-81137500D01*
X89473856Y-81160779D01*
X89470437Y-81183834D01*
X89464773Y-81206443D01*
X89456921Y-81228387D01*
X89446956Y-81249457D01*
X89434974Y-81269448D01*
X89421090Y-81288168D01*
X89405438Y-81305438D01*
X89388168Y-81321090D01*
X89369448Y-81334974D01*
X89349457Y-81346956D01*
X89328387Y-81356921D01*
X89306443Y-81364773D01*
X89283834Y-81370437D01*
X89260779Y-81373856D01*
X89237500Y-81375000D01*
X88662500Y-81375000D01*
X88639221Y-81373856D01*
X88616166Y-81370437D01*
X88593557Y-81364773D01*
X88571613Y-81356921D01*
X88550543Y-81346956D01*
X88530552Y-81334974D01*
X88511832Y-81321090D01*
X88494562Y-81305438D01*
X88478910Y-81288168D01*
X88465026Y-81269448D01*
X88453044Y-81249457D01*
X88443079Y-81228387D01*
X88435227Y-81206443D01*
X88429563Y-81183834D01*
X88426144Y-81160779D01*
X88425000Y-81137500D01*
X88425000Y-80662500D01*
X88426144Y-80639221D01*
X88429563Y-80616166D01*
X88435227Y-80593557D01*
X88443079Y-80571613D01*
X88453044Y-80550543D01*
X88465026Y-80530552D01*
X88478910Y-80511832D01*
X88494562Y-80494562D01*
X88511832Y-80478910D01*
X88530552Y-80465026D01*
X88550543Y-80453044D01*
X88571613Y-80443079D01*
X88593557Y-80435227D01*
X88616166Y-80429563D01*
X88639221Y-80426144D01*
X88662500Y-80425000D01*
X89237500Y-80425000D01*
X89260779Y-80426144D01*
G37*
G04 #@! TD.AperFunction*
G04 #@! TA.AperFunction,SMDPad,CuDef*
G36*
X91085779Y-83776144D02*
G01*
X91108834Y-83779563D01*
X91131443Y-83785227D01*
X91153387Y-83793079D01*
X91174457Y-83803044D01*
X91194448Y-83815026D01*
X91213168Y-83828910D01*
X91230438Y-83844562D01*
X91246090Y-83861832D01*
X91259974Y-83880552D01*
X91271956Y-83900543D01*
X91281921Y-83921613D01*
X91289773Y-83943557D01*
X91295437Y-83966166D01*
X91298856Y-83989221D01*
X91300000Y-84012500D01*
X91300000Y-84487500D01*
X91298856Y-84510779D01*
X91295437Y-84533834D01*
X91289773Y-84556443D01*
X91281921Y-84578387D01*
X91271956Y-84599457D01*
X91259974Y-84619448D01*
X91246090Y-84638168D01*
X91230438Y-84655438D01*
X91213168Y-84671090D01*
X91194448Y-84684974D01*
X91174457Y-84696956D01*
X91153387Y-84706921D01*
X91131443Y-84714773D01*
X91108834Y-84720437D01*
X91085779Y-84723856D01*
X91062500Y-84725000D01*
X90487500Y-84725000D01*
X90464221Y-84723856D01*
X90441166Y-84720437D01*
X90418557Y-84714773D01*
X90396613Y-84706921D01*
X90375543Y-84696956D01*
X90355552Y-84684974D01*
X90336832Y-84671090D01*
X90319562Y-84655438D01*
X90303910Y-84638168D01*
X90290026Y-84619448D01*
X90278044Y-84599457D01*
X90268079Y-84578387D01*
X90260227Y-84556443D01*
X90254563Y-84533834D01*
X90251144Y-84510779D01*
X90250000Y-84487500D01*
X90250000Y-84012500D01*
X90251144Y-83989221D01*
X90254563Y-83966166D01*
X90260227Y-83943557D01*
X90268079Y-83921613D01*
X90278044Y-83900543D01*
X90290026Y-83880552D01*
X90303910Y-83861832D01*
X90319562Y-83844562D01*
X90336832Y-83828910D01*
X90355552Y-83815026D01*
X90375543Y-83803044D01*
X90396613Y-83793079D01*
X90418557Y-83785227D01*
X90441166Y-83779563D01*
X90464221Y-83776144D01*
X90487500Y-83775000D01*
X91062500Y-83775000D01*
X91085779Y-83776144D01*
G37*
G04 #@! TD.AperFunction*
G04 #@! TA.AperFunction,SMDPad,CuDef*
G36*
X89335779Y-83776144D02*
G01*
X89358834Y-83779563D01*
X89381443Y-83785227D01*
X89403387Y-83793079D01*
X89424457Y-83803044D01*
X89444448Y-83815026D01*
X89463168Y-83828910D01*
X89480438Y-83844562D01*
X89496090Y-83861832D01*
X89509974Y-83880552D01*
X89521956Y-83900543D01*
X89531921Y-83921613D01*
X89539773Y-83943557D01*
X89545437Y-83966166D01*
X89548856Y-83989221D01*
X89550000Y-84012500D01*
X89550000Y-84487500D01*
X89548856Y-84510779D01*
X89545437Y-84533834D01*
X89539773Y-84556443D01*
X89531921Y-84578387D01*
X89521956Y-84599457D01*
X89509974Y-84619448D01*
X89496090Y-84638168D01*
X89480438Y-84655438D01*
X89463168Y-84671090D01*
X89444448Y-84684974D01*
X89424457Y-84696956D01*
X89403387Y-84706921D01*
X89381443Y-84714773D01*
X89358834Y-84720437D01*
X89335779Y-84723856D01*
X89312500Y-84725000D01*
X88737500Y-84725000D01*
X88714221Y-84723856D01*
X88691166Y-84720437D01*
X88668557Y-84714773D01*
X88646613Y-84706921D01*
X88625543Y-84696956D01*
X88605552Y-84684974D01*
X88586832Y-84671090D01*
X88569562Y-84655438D01*
X88553910Y-84638168D01*
X88540026Y-84619448D01*
X88528044Y-84599457D01*
X88518079Y-84578387D01*
X88510227Y-84556443D01*
X88504563Y-84533834D01*
X88501144Y-84510779D01*
X88500000Y-84487500D01*
X88500000Y-84012500D01*
X88501144Y-83989221D01*
X88504563Y-83966166D01*
X88510227Y-83943557D01*
X88518079Y-83921613D01*
X88528044Y-83900543D01*
X88540026Y-83880552D01*
X88553910Y-83861832D01*
X88569562Y-83844562D01*
X88586832Y-83828910D01*
X88605552Y-83815026D01*
X88625543Y-83803044D01*
X88646613Y-83793079D01*
X88668557Y-83785227D01*
X88691166Y-83779563D01*
X88714221Y-83776144D01*
X88737500Y-83775000D01*
X89312500Y-83775000D01*
X89335779Y-83776144D01*
G37*
G04 #@! TD.AperFunction*
G04 #@! TA.AperFunction,SMDPad,CuDef*
G36*
X70135779Y-80426144D02*
G01*
X70158834Y-80429563D01*
X70181443Y-80435227D01*
X70203387Y-80443079D01*
X70224457Y-80453044D01*
X70244448Y-80465026D01*
X70263168Y-80478910D01*
X70280438Y-80494562D01*
X70296090Y-80511832D01*
X70309974Y-80530552D01*
X70321956Y-80550543D01*
X70331921Y-80571613D01*
X70339773Y-80593557D01*
X70345437Y-80616166D01*
X70348856Y-80639221D01*
X70350000Y-80662500D01*
X70350000Y-81137500D01*
X70348856Y-81160779D01*
X70345437Y-81183834D01*
X70339773Y-81206443D01*
X70331921Y-81228387D01*
X70321956Y-81249457D01*
X70309974Y-81269448D01*
X70296090Y-81288168D01*
X70280438Y-81305438D01*
X70263168Y-81321090D01*
X70244448Y-81334974D01*
X70224457Y-81346956D01*
X70203387Y-81356921D01*
X70181443Y-81364773D01*
X70158834Y-81370437D01*
X70135779Y-81373856D01*
X70112500Y-81375000D01*
X69537500Y-81375000D01*
X69514221Y-81373856D01*
X69491166Y-81370437D01*
X69468557Y-81364773D01*
X69446613Y-81356921D01*
X69425543Y-81346956D01*
X69405552Y-81334974D01*
X69386832Y-81321090D01*
X69369562Y-81305438D01*
X69353910Y-81288168D01*
X69340026Y-81269448D01*
X69328044Y-81249457D01*
X69318079Y-81228387D01*
X69310227Y-81206443D01*
X69304563Y-81183834D01*
X69301144Y-81160779D01*
X69300000Y-81137500D01*
X69300000Y-80662500D01*
X69301144Y-80639221D01*
X69304563Y-80616166D01*
X69310227Y-80593557D01*
X69318079Y-80571613D01*
X69328044Y-80550543D01*
X69340026Y-80530552D01*
X69353910Y-80511832D01*
X69369562Y-80494562D01*
X69386832Y-80478910D01*
X69405552Y-80465026D01*
X69425543Y-80453044D01*
X69446613Y-80443079D01*
X69468557Y-80435227D01*
X69491166Y-80429563D01*
X69514221Y-80426144D01*
X69537500Y-80425000D01*
X70112500Y-80425000D01*
X70135779Y-80426144D01*
G37*
G04 #@! TD.AperFunction*
G04 #@! TA.AperFunction,SMDPad,CuDef*
G36*
X68385779Y-80426144D02*
G01*
X68408834Y-80429563D01*
X68431443Y-80435227D01*
X68453387Y-80443079D01*
X68474457Y-80453044D01*
X68494448Y-80465026D01*
X68513168Y-80478910D01*
X68530438Y-80494562D01*
X68546090Y-80511832D01*
X68559974Y-80530552D01*
X68571956Y-80550543D01*
X68581921Y-80571613D01*
X68589773Y-80593557D01*
X68595437Y-80616166D01*
X68598856Y-80639221D01*
X68600000Y-80662500D01*
X68600000Y-81137500D01*
X68598856Y-81160779D01*
X68595437Y-81183834D01*
X68589773Y-81206443D01*
X68581921Y-81228387D01*
X68571956Y-81249457D01*
X68559974Y-81269448D01*
X68546090Y-81288168D01*
X68530438Y-81305438D01*
X68513168Y-81321090D01*
X68494448Y-81334974D01*
X68474457Y-81346956D01*
X68453387Y-81356921D01*
X68431443Y-81364773D01*
X68408834Y-81370437D01*
X68385779Y-81373856D01*
X68362500Y-81375000D01*
X67787500Y-81375000D01*
X67764221Y-81373856D01*
X67741166Y-81370437D01*
X67718557Y-81364773D01*
X67696613Y-81356921D01*
X67675543Y-81346956D01*
X67655552Y-81334974D01*
X67636832Y-81321090D01*
X67619562Y-81305438D01*
X67603910Y-81288168D01*
X67590026Y-81269448D01*
X67578044Y-81249457D01*
X67568079Y-81228387D01*
X67560227Y-81206443D01*
X67554563Y-81183834D01*
X67551144Y-81160779D01*
X67550000Y-81137500D01*
X67550000Y-80662500D01*
X67551144Y-80639221D01*
X67554563Y-80616166D01*
X67560227Y-80593557D01*
X67568079Y-80571613D01*
X67578044Y-80550543D01*
X67590026Y-80530552D01*
X67603910Y-80511832D01*
X67619562Y-80494562D01*
X67636832Y-80478910D01*
X67655552Y-80465026D01*
X67675543Y-80453044D01*
X67696613Y-80443079D01*
X67718557Y-80435227D01*
X67741166Y-80429563D01*
X67764221Y-80426144D01*
X67787500Y-80425000D01*
X68362500Y-80425000D01*
X68385779Y-80426144D01*
G37*
G04 #@! TD.AperFunction*
G04 #@! TA.AperFunction,SMDPad,CuDef*
G36*
X70060779Y-83776144D02*
G01*
X70083834Y-83779563D01*
X70106443Y-83785227D01*
X70128387Y-83793079D01*
X70149457Y-83803044D01*
X70169448Y-83815026D01*
X70188168Y-83828910D01*
X70205438Y-83844562D01*
X70221090Y-83861832D01*
X70234974Y-83880552D01*
X70246956Y-83900543D01*
X70256921Y-83921613D01*
X70264773Y-83943557D01*
X70270437Y-83966166D01*
X70273856Y-83989221D01*
X70275000Y-84012500D01*
X70275000Y-84487500D01*
X70273856Y-84510779D01*
X70270437Y-84533834D01*
X70264773Y-84556443D01*
X70256921Y-84578387D01*
X70246956Y-84599457D01*
X70234974Y-84619448D01*
X70221090Y-84638168D01*
X70205438Y-84655438D01*
X70188168Y-84671090D01*
X70169448Y-84684974D01*
X70149457Y-84696956D01*
X70128387Y-84706921D01*
X70106443Y-84714773D01*
X70083834Y-84720437D01*
X70060779Y-84723856D01*
X70037500Y-84725000D01*
X69462500Y-84725000D01*
X69439221Y-84723856D01*
X69416166Y-84720437D01*
X69393557Y-84714773D01*
X69371613Y-84706921D01*
X69350543Y-84696956D01*
X69330552Y-84684974D01*
X69311832Y-84671090D01*
X69294562Y-84655438D01*
X69278910Y-84638168D01*
X69265026Y-84619448D01*
X69253044Y-84599457D01*
X69243079Y-84578387D01*
X69235227Y-84556443D01*
X69229563Y-84533834D01*
X69226144Y-84510779D01*
X69225000Y-84487500D01*
X69225000Y-84012500D01*
X69226144Y-83989221D01*
X69229563Y-83966166D01*
X69235227Y-83943557D01*
X69243079Y-83921613D01*
X69253044Y-83900543D01*
X69265026Y-83880552D01*
X69278910Y-83861832D01*
X69294562Y-83844562D01*
X69311832Y-83828910D01*
X69330552Y-83815026D01*
X69350543Y-83803044D01*
X69371613Y-83793079D01*
X69393557Y-83785227D01*
X69416166Y-83779563D01*
X69439221Y-83776144D01*
X69462500Y-83775000D01*
X70037500Y-83775000D01*
X70060779Y-83776144D01*
G37*
G04 #@! TD.AperFunction*
G04 #@! TA.AperFunction,SMDPad,CuDef*
G36*
X68310779Y-83776144D02*
G01*
X68333834Y-83779563D01*
X68356443Y-83785227D01*
X68378387Y-83793079D01*
X68399457Y-83803044D01*
X68419448Y-83815026D01*
X68438168Y-83828910D01*
X68455438Y-83844562D01*
X68471090Y-83861832D01*
X68484974Y-83880552D01*
X68496956Y-83900543D01*
X68506921Y-83921613D01*
X68514773Y-83943557D01*
X68520437Y-83966166D01*
X68523856Y-83989221D01*
X68525000Y-84012500D01*
X68525000Y-84487500D01*
X68523856Y-84510779D01*
X68520437Y-84533834D01*
X68514773Y-84556443D01*
X68506921Y-84578387D01*
X68496956Y-84599457D01*
X68484974Y-84619448D01*
X68471090Y-84638168D01*
X68455438Y-84655438D01*
X68438168Y-84671090D01*
X68419448Y-84684974D01*
X68399457Y-84696956D01*
X68378387Y-84706921D01*
X68356443Y-84714773D01*
X68333834Y-84720437D01*
X68310779Y-84723856D01*
X68287500Y-84725000D01*
X67712500Y-84725000D01*
X67689221Y-84723856D01*
X67666166Y-84720437D01*
X67643557Y-84714773D01*
X67621613Y-84706921D01*
X67600543Y-84696956D01*
X67580552Y-84684974D01*
X67561832Y-84671090D01*
X67544562Y-84655438D01*
X67528910Y-84638168D01*
X67515026Y-84619448D01*
X67503044Y-84599457D01*
X67493079Y-84578387D01*
X67485227Y-84556443D01*
X67479563Y-84533834D01*
X67476144Y-84510779D01*
X67475000Y-84487500D01*
X67475000Y-84012500D01*
X67476144Y-83989221D01*
X67479563Y-83966166D01*
X67485227Y-83943557D01*
X67493079Y-83921613D01*
X67503044Y-83900543D01*
X67515026Y-83880552D01*
X67528910Y-83861832D01*
X67544562Y-83844562D01*
X67561832Y-83828910D01*
X67580552Y-83815026D01*
X67600543Y-83803044D01*
X67621613Y-83793079D01*
X67643557Y-83785227D01*
X67666166Y-83779563D01*
X67689221Y-83776144D01*
X67712500Y-83775000D01*
X68287500Y-83775000D01*
X68310779Y-83776144D01*
G37*
G04 #@! TD.AperFunction*
G04 #@! TA.AperFunction,SMDPad,CuDef*
G36*
X73070779Y-65861144D02*
G01*
X73093834Y-65864563D01*
X73116443Y-65870227D01*
X73138387Y-65878079D01*
X73159457Y-65888044D01*
X73179448Y-65900026D01*
X73198168Y-65913910D01*
X73215438Y-65929562D01*
X73231090Y-65946832D01*
X73244974Y-65965552D01*
X73256956Y-65985543D01*
X73266921Y-66006613D01*
X73274773Y-66028557D01*
X73280437Y-66051166D01*
X73283856Y-66074221D01*
X73285000Y-66097500D01*
X73285000Y-66672500D01*
X73283856Y-66695779D01*
X73280437Y-66718834D01*
X73274773Y-66741443D01*
X73266921Y-66763387D01*
X73256956Y-66784457D01*
X73244974Y-66804448D01*
X73231090Y-66823168D01*
X73215438Y-66840438D01*
X73198168Y-66856090D01*
X73179448Y-66869974D01*
X73159457Y-66881956D01*
X73138387Y-66891921D01*
X73116443Y-66899773D01*
X73093834Y-66905437D01*
X73070779Y-66908856D01*
X73047500Y-66910000D01*
X72572500Y-66910000D01*
X72549221Y-66908856D01*
X72526166Y-66905437D01*
X72503557Y-66899773D01*
X72481613Y-66891921D01*
X72460543Y-66881956D01*
X72440552Y-66869974D01*
X72421832Y-66856090D01*
X72404562Y-66840438D01*
X72388910Y-66823168D01*
X72375026Y-66804448D01*
X72363044Y-66784457D01*
X72353079Y-66763387D01*
X72345227Y-66741443D01*
X72339563Y-66718834D01*
X72336144Y-66695779D01*
X72335000Y-66672500D01*
X72335000Y-66097500D01*
X72336144Y-66074221D01*
X72339563Y-66051166D01*
X72345227Y-66028557D01*
X72353079Y-66006613D01*
X72363044Y-65985543D01*
X72375026Y-65965552D01*
X72388910Y-65946832D01*
X72404562Y-65929562D01*
X72421832Y-65913910D01*
X72440552Y-65900026D01*
X72460543Y-65888044D01*
X72481613Y-65878079D01*
X72503557Y-65870227D01*
X72526166Y-65864563D01*
X72549221Y-65861144D01*
X72572500Y-65860000D01*
X73047500Y-65860000D01*
X73070779Y-65861144D01*
G37*
G04 #@! TD.AperFunction*
G04 #@! TA.AperFunction,SMDPad,CuDef*
G36*
X73070779Y-67611144D02*
G01*
X73093834Y-67614563D01*
X73116443Y-67620227D01*
X73138387Y-67628079D01*
X73159457Y-67638044D01*
X73179448Y-67650026D01*
X73198168Y-67663910D01*
X73215438Y-67679562D01*
X73231090Y-67696832D01*
X73244974Y-67715552D01*
X73256956Y-67735543D01*
X73266921Y-67756613D01*
X73274773Y-67778557D01*
X73280437Y-67801166D01*
X73283856Y-67824221D01*
X73285000Y-67847500D01*
X73285000Y-68422500D01*
X73283856Y-68445779D01*
X73280437Y-68468834D01*
X73274773Y-68491443D01*
X73266921Y-68513387D01*
X73256956Y-68534457D01*
X73244974Y-68554448D01*
X73231090Y-68573168D01*
X73215438Y-68590438D01*
X73198168Y-68606090D01*
X73179448Y-68619974D01*
X73159457Y-68631956D01*
X73138387Y-68641921D01*
X73116443Y-68649773D01*
X73093834Y-68655437D01*
X73070779Y-68658856D01*
X73047500Y-68660000D01*
X72572500Y-68660000D01*
X72549221Y-68658856D01*
X72526166Y-68655437D01*
X72503557Y-68649773D01*
X72481613Y-68641921D01*
X72460543Y-68631956D01*
X72440552Y-68619974D01*
X72421832Y-68606090D01*
X72404562Y-68590438D01*
X72388910Y-68573168D01*
X72375026Y-68554448D01*
X72363044Y-68534457D01*
X72353079Y-68513387D01*
X72345227Y-68491443D01*
X72339563Y-68468834D01*
X72336144Y-68445779D01*
X72335000Y-68422500D01*
X72335000Y-67847500D01*
X72336144Y-67824221D01*
X72339563Y-67801166D01*
X72345227Y-67778557D01*
X72353079Y-67756613D01*
X72363044Y-67735543D01*
X72375026Y-67715552D01*
X72388910Y-67696832D01*
X72404562Y-67679562D01*
X72421832Y-67663910D01*
X72440552Y-67650026D01*
X72460543Y-67638044D01*
X72481613Y-67628079D01*
X72503557Y-67620227D01*
X72526166Y-67614563D01*
X72549221Y-67611144D01*
X72572500Y-67610000D01*
X73047500Y-67610000D01*
X73070779Y-67611144D01*
G37*
G04 #@! TD.AperFunction*
G04 #@! TA.AperFunction,SMDPad,CuDef*
G36*
X97800779Y-61606144D02*
G01*
X97823834Y-61609563D01*
X97846443Y-61615227D01*
X97868387Y-61623079D01*
X97889457Y-61633044D01*
X97909448Y-61645026D01*
X97928168Y-61658910D01*
X97945438Y-61674562D01*
X97961090Y-61691832D01*
X97974974Y-61710552D01*
X97986956Y-61730543D01*
X97996921Y-61751613D01*
X98004773Y-61773557D01*
X98010437Y-61796166D01*
X98013856Y-61819221D01*
X98015000Y-61842500D01*
X98015000Y-62317500D01*
X98013856Y-62340779D01*
X98010437Y-62363834D01*
X98004773Y-62386443D01*
X97996921Y-62408387D01*
X97986956Y-62429457D01*
X97974974Y-62449448D01*
X97961090Y-62468168D01*
X97945438Y-62485438D01*
X97928168Y-62501090D01*
X97909448Y-62514974D01*
X97889457Y-62526956D01*
X97868387Y-62536921D01*
X97846443Y-62544773D01*
X97823834Y-62550437D01*
X97800779Y-62553856D01*
X97777500Y-62555000D01*
X97202500Y-62555000D01*
X97179221Y-62553856D01*
X97156166Y-62550437D01*
X97133557Y-62544773D01*
X97111613Y-62536921D01*
X97090543Y-62526956D01*
X97070552Y-62514974D01*
X97051832Y-62501090D01*
X97034562Y-62485438D01*
X97018910Y-62468168D01*
X97005026Y-62449448D01*
X96993044Y-62429457D01*
X96983079Y-62408387D01*
X96975227Y-62386443D01*
X96969563Y-62363834D01*
X96966144Y-62340779D01*
X96965000Y-62317500D01*
X96965000Y-61842500D01*
X96966144Y-61819221D01*
X96969563Y-61796166D01*
X96975227Y-61773557D01*
X96983079Y-61751613D01*
X96993044Y-61730543D01*
X97005026Y-61710552D01*
X97018910Y-61691832D01*
X97034562Y-61674562D01*
X97051832Y-61658910D01*
X97070552Y-61645026D01*
X97090543Y-61633044D01*
X97111613Y-61623079D01*
X97133557Y-61615227D01*
X97156166Y-61609563D01*
X97179221Y-61606144D01*
X97202500Y-61605000D01*
X97777500Y-61605000D01*
X97800779Y-61606144D01*
G37*
G04 #@! TD.AperFunction*
G04 #@! TA.AperFunction,SMDPad,CuDef*
G36*
X99550779Y-61606144D02*
G01*
X99573834Y-61609563D01*
X99596443Y-61615227D01*
X99618387Y-61623079D01*
X99639457Y-61633044D01*
X99659448Y-61645026D01*
X99678168Y-61658910D01*
X99695438Y-61674562D01*
X99711090Y-61691832D01*
X99724974Y-61710552D01*
X99736956Y-61730543D01*
X99746921Y-61751613D01*
X99754773Y-61773557D01*
X99760437Y-61796166D01*
X99763856Y-61819221D01*
X99765000Y-61842500D01*
X99765000Y-62317500D01*
X99763856Y-62340779D01*
X99760437Y-62363834D01*
X99754773Y-62386443D01*
X99746921Y-62408387D01*
X99736956Y-62429457D01*
X99724974Y-62449448D01*
X99711090Y-62468168D01*
X99695438Y-62485438D01*
X99678168Y-62501090D01*
X99659448Y-62514974D01*
X99639457Y-62526956D01*
X99618387Y-62536921D01*
X99596443Y-62544773D01*
X99573834Y-62550437D01*
X99550779Y-62553856D01*
X99527500Y-62555000D01*
X98952500Y-62555000D01*
X98929221Y-62553856D01*
X98906166Y-62550437D01*
X98883557Y-62544773D01*
X98861613Y-62536921D01*
X98840543Y-62526956D01*
X98820552Y-62514974D01*
X98801832Y-62501090D01*
X98784562Y-62485438D01*
X98768910Y-62468168D01*
X98755026Y-62449448D01*
X98743044Y-62429457D01*
X98733079Y-62408387D01*
X98725227Y-62386443D01*
X98719563Y-62363834D01*
X98716144Y-62340779D01*
X98715000Y-62317500D01*
X98715000Y-61842500D01*
X98716144Y-61819221D01*
X98719563Y-61796166D01*
X98725227Y-61773557D01*
X98733079Y-61751613D01*
X98743044Y-61730543D01*
X98755026Y-61710552D01*
X98768910Y-61691832D01*
X98784562Y-61674562D01*
X98801832Y-61658910D01*
X98820552Y-61645026D01*
X98840543Y-61633044D01*
X98861613Y-61623079D01*
X98883557Y-61615227D01*
X98906166Y-61609563D01*
X98929221Y-61606144D01*
X98952500Y-61605000D01*
X99527500Y-61605000D01*
X99550779Y-61606144D01*
G37*
G04 #@! TD.AperFunction*
G04 #@! TA.AperFunction,SMDPad,CuDef*
G36*
X93930779Y-66306144D02*
G01*
X93953834Y-66309563D01*
X93976443Y-66315227D01*
X93998387Y-66323079D01*
X94019457Y-66333044D01*
X94039448Y-66345026D01*
X94058168Y-66358910D01*
X94075438Y-66374562D01*
X94091090Y-66391832D01*
X94104974Y-66410552D01*
X94116956Y-66430543D01*
X94126921Y-66451613D01*
X94134773Y-66473557D01*
X94140437Y-66496166D01*
X94143856Y-66519221D01*
X94145000Y-66542500D01*
X94145000Y-67017500D01*
X94143856Y-67040779D01*
X94140437Y-67063834D01*
X94134773Y-67086443D01*
X94126921Y-67108387D01*
X94116956Y-67129457D01*
X94104974Y-67149448D01*
X94091090Y-67168168D01*
X94075438Y-67185438D01*
X94058168Y-67201090D01*
X94039448Y-67214974D01*
X94019457Y-67226956D01*
X93998387Y-67236921D01*
X93976443Y-67244773D01*
X93953834Y-67250437D01*
X93930779Y-67253856D01*
X93907500Y-67255000D01*
X93332500Y-67255000D01*
X93309221Y-67253856D01*
X93286166Y-67250437D01*
X93263557Y-67244773D01*
X93241613Y-67236921D01*
X93220543Y-67226956D01*
X93200552Y-67214974D01*
X93181832Y-67201090D01*
X93164562Y-67185438D01*
X93148910Y-67168168D01*
X93135026Y-67149448D01*
X93123044Y-67129457D01*
X93113079Y-67108387D01*
X93105227Y-67086443D01*
X93099563Y-67063834D01*
X93096144Y-67040779D01*
X93095000Y-67017500D01*
X93095000Y-66542500D01*
X93096144Y-66519221D01*
X93099563Y-66496166D01*
X93105227Y-66473557D01*
X93113079Y-66451613D01*
X93123044Y-66430543D01*
X93135026Y-66410552D01*
X93148910Y-66391832D01*
X93164562Y-66374562D01*
X93181832Y-66358910D01*
X93200552Y-66345026D01*
X93220543Y-66333044D01*
X93241613Y-66323079D01*
X93263557Y-66315227D01*
X93286166Y-66309563D01*
X93309221Y-66306144D01*
X93332500Y-66305000D01*
X93907500Y-66305000D01*
X93930779Y-66306144D01*
G37*
G04 #@! TD.AperFunction*
G04 #@! TA.AperFunction,SMDPad,CuDef*
G36*
X95680779Y-66306144D02*
G01*
X95703834Y-66309563D01*
X95726443Y-66315227D01*
X95748387Y-66323079D01*
X95769457Y-66333044D01*
X95789448Y-66345026D01*
X95808168Y-66358910D01*
X95825438Y-66374562D01*
X95841090Y-66391832D01*
X95854974Y-66410552D01*
X95866956Y-66430543D01*
X95876921Y-66451613D01*
X95884773Y-66473557D01*
X95890437Y-66496166D01*
X95893856Y-66519221D01*
X95895000Y-66542500D01*
X95895000Y-67017500D01*
X95893856Y-67040779D01*
X95890437Y-67063834D01*
X95884773Y-67086443D01*
X95876921Y-67108387D01*
X95866956Y-67129457D01*
X95854974Y-67149448D01*
X95841090Y-67168168D01*
X95825438Y-67185438D01*
X95808168Y-67201090D01*
X95789448Y-67214974D01*
X95769457Y-67226956D01*
X95748387Y-67236921D01*
X95726443Y-67244773D01*
X95703834Y-67250437D01*
X95680779Y-67253856D01*
X95657500Y-67255000D01*
X95082500Y-67255000D01*
X95059221Y-67253856D01*
X95036166Y-67250437D01*
X95013557Y-67244773D01*
X94991613Y-67236921D01*
X94970543Y-67226956D01*
X94950552Y-67214974D01*
X94931832Y-67201090D01*
X94914562Y-67185438D01*
X94898910Y-67168168D01*
X94885026Y-67149448D01*
X94873044Y-67129457D01*
X94863079Y-67108387D01*
X94855227Y-67086443D01*
X94849563Y-67063834D01*
X94846144Y-67040779D01*
X94845000Y-67017500D01*
X94845000Y-66542500D01*
X94846144Y-66519221D01*
X94849563Y-66496166D01*
X94855227Y-66473557D01*
X94863079Y-66451613D01*
X94873044Y-66430543D01*
X94885026Y-66410552D01*
X94898910Y-66391832D01*
X94914562Y-66374562D01*
X94931832Y-66358910D01*
X94950552Y-66345026D01*
X94970543Y-66333044D01*
X94991613Y-66323079D01*
X95013557Y-66315227D01*
X95036166Y-66309563D01*
X95059221Y-66306144D01*
X95082500Y-66305000D01*
X95657500Y-66305000D01*
X95680779Y-66306144D01*
G37*
G04 #@! TD.AperFunction*
G04 #@! TA.AperFunction,SMDPad,CuDef*
G36*
X97800779Y-71056144D02*
G01*
X97823834Y-71059563D01*
X97846443Y-71065227D01*
X97868387Y-71073079D01*
X97889457Y-71083044D01*
X97909448Y-71095026D01*
X97928168Y-71108910D01*
X97945438Y-71124562D01*
X97961090Y-71141832D01*
X97974974Y-71160552D01*
X97986956Y-71180543D01*
X97996921Y-71201613D01*
X98004773Y-71223557D01*
X98010437Y-71246166D01*
X98013856Y-71269221D01*
X98015000Y-71292500D01*
X98015000Y-71767500D01*
X98013856Y-71790779D01*
X98010437Y-71813834D01*
X98004773Y-71836443D01*
X97996921Y-71858387D01*
X97986956Y-71879457D01*
X97974974Y-71899448D01*
X97961090Y-71918168D01*
X97945438Y-71935438D01*
X97928168Y-71951090D01*
X97909448Y-71964974D01*
X97889457Y-71976956D01*
X97868387Y-71986921D01*
X97846443Y-71994773D01*
X97823834Y-72000437D01*
X97800779Y-72003856D01*
X97777500Y-72005000D01*
X97202500Y-72005000D01*
X97179221Y-72003856D01*
X97156166Y-72000437D01*
X97133557Y-71994773D01*
X97111613Y-71986921D01*
X97090543Y-71976956D01*
X97070552Y-71964974D01*
X97051832Y-71951090D01*
X97034562Y-71935438D01*
X97018910Y-71918168D01*
X97005026Y-71899448D01*
X96993044Y-71879457D01*
X96983079Y-71858387D01*
X96975227Y-71836443D01*
X96969563Y-71813834D01*
X96966144Y-71790779D01*
X96965000Y-71767500D01*
X96965000Y-71292500D01*
X96966144Y-71269221D01*
X96969563Y-71246166D01*
X96975227Y-71223557D01*
X96983079Y-71201613D01*
X96993044Y-71180543D01*
X97005026Y-71160552D01*
X97018910Y-71141832D01*
X97034562Y-71124562D01*
X97051832Y-71108910D01*
X97070552Y-71095026D01*
X97090543Y-71083044D01*
X97111613Y-71073079D01*
X97133557Y-71065227D01*
X97156166Y-71059563D01*
X97179221Y-71056144D01*
X97202500Y-71055000D01*
X97777500Y-71055000D01*
X97800779Y-71056144D01*
G37*
G04 #@! TD.AperFunction*
G04 #@! TA.AperFunction,SMDPad,CuDef*
G36*
X99550779Y-71056144D02*
G01*
X99573834Y-71059563D01*
X99596443Y-71065227D01*
X99618387Y-71073079D01*
X99639457Y-71083044D01*
X99659448Y-71095026D01*
X99678168Y-71108910D01*
X99695438Y-71124562D01*
X99711090Y-71141832D01*
X99724974Y-71160552D01*
X99736956Y-71180543D01*
X99746921Y-71201613D01*
X99754773Y-71223557D01*
X99760437Y-71246166D01*
X99763856Y-71269221D01*
X99765000Y-71292500D01*
X99765000Y-71767500D01*
X99763856Y-71790779D01*
X99760437Y-71813834D01*
X99754773Y-71836443D01*
X99746921Y-71858387D01*
X99736956Y-71879457D01*
X99724974Y-71899448D01*
X99711090Y-71918168D01*
X99695438Y-71935438D01*
X99678168Y-71951090D01*
X99659448Y-71964974D01*
X99639457Y-71976956D01*
X99618387Y-71986921D01*
X99596443Y-71994773D01*
X99573834Y-72000437D01*
X99550779Y-72003856D01*
X99527500Y-72005000D01*
X98952500Y-72005000D01*
X98929221Y-72003856D01*
X98906166Y-72000437D01*
X98883557Y-71994773D01*
X98861613Y-71986921D01*
X98840543Y-71976956D01*
X98820552Y-71964974D01*
X98801832Y-71951090D01*
X98784562Y-71935438D01*
X98768910Y-71918168D01*
X98755026Y-71899448D01*
X98743044Y-71879457D01*
X98733079Y-71858387D01*
X98725227Y-71836443D01*
X98719563Y-71813834D01*
X98716144Y-71790779D01*
X98715000Y-71767500D01*
X98715000Y-71292500D01*
X98716144Y-71269221D01*
X98719563Y-71246166D01*
X98725227Y-71223557D01*
X98733079Y-71201613D01*
X98743044Y-71180543D01*
X98755026Y-71160552D01*
X98768910Y-71141832D01*
X98784562Y-71124562D01*
X98801832Y-71108910D01*
X98820552Y-71095026D01*
X98840543Y-71083044D01*
X98861613Y-71073079D01*
X98883557Y-71065227D01*
X98906166Y-71059563D01*
X98929221Y-71056144D01*
X98952500Y-71055000D01*
X99527500Y-71055000D01*
X99550779Y-71056144D01*
G37*
G04 #@! TD.AperFunction*
G04 #@! TA.AperFunction,SMDPad,CuDef*
G36*
X99550779Y-69356144D02*
G01*
X99573834Y-69359563D01*
X99596443Y-69365227D01*
X99618387Y-69373079D01*
X99639457Y-69383044D01*
X99659448Y-69395026D01*
X99678168Y-69408910D01*
X99695438Y-69424562D01*
X99711090Y-69441832D01*
X99724974Y-69460552D01*
X99736956Y-69480543D01*
X99746921Y-69501613D01*
X99754773Y-69523557D01*
X99760437Y-69546166D01*
X99763856Y-69569221D01*
X99765000Y-69592500D01*
X99765000Y-70067500D01*
X99763856Y-70090779D01*
X99760437Y-70113834D01*
X99754773Y-70136443D01*
X99746921Y-70158387D01*
X99736956Y-70179457D01*
X99724974Y-70199448D01*
X99711090Y-70218168D01*
X99695438Y-70235438D01*
X99678168Y-70251090D01*
X99659448Y-70264974D01*
X99639457Y-70276956D01*
X99618387Y-70286921D01*
X99596443Y-70294773D01*
X99573834Y-70300437D01*
X99550779Y-70303856D01*
X99527500Y-70305000D01*
X98952500Y-70305000D01*
X98929221Y-70303856D01*
X98906166Y-70300437D01*
X98883557Y-70294773D01*
X98861613Y-70286921D01*
X98840543Y-70276956D01*
X98820552Y-70264974D01*
X98801832Y-70251090D01*
X98784562Y-70235438D01*
X98768910Y-70218168D01*
X98755026Y-70199448D01*
X98743044Y-70179457D01*
X98733079Y-70158387D01*
X98725227Y-70136443D01*
X98719563Y-70113834D01*
X98716144Y-70090779D01*
X98715000Y-70067500D01*
X98715000Y-69592500D01*
X98716144Y-69569221D01*
X98719563Y-69546166D01*
X98725227Y-69523557D01*
X98733079Y-69501613D01*
X98743044Y-69480543D01*
X98755026Y-69460552D01*
X98768910Y-69441832D01*
X98784562Y-69424562D01*
X98801832Y-69408910D01*
X98820552Y-69395026D01*
X98840543Y-69383044D01*
X98861613Y-69373079D01*
X98883557Y-69365227D01*
X98906166Y-69359563D01*
X98929221Y-69356144D01*
X98952500Y-69355000D01*
X99527500Y-69355000D01*
X99550779Y-69356144D01*
G37*
G04 #@! TD.AperFunction*
G04 #@! TA.AperFunction,SMDPad,CuDef*
G36*
X97800779Y-69356144D02*
G01*
X97823834Y-69359563D01*
X97846443Y-69365227D01*
X97868387Y-69373079D01*
X97889457Y-69383044D01*
X97909448Y-69395026D01*
X97928168Y-69408910D01*
X97945438Y-69424562D01*
X97961090Y-69441832D01*
X97974974Y-69460552D01*
X97986956Y-69480543D01*
X97996921Y-69501613D01*
X98004773Y-69523557D01*
X98010437Y-69546166D01*
X98013856Y-69569221D01*
X98015000Y-69592500D01*
X98015000Y-70067500D01*
X98013856Y-70090779D01*
X98010437Y-70113834D01*
X98004773Y-70136443D01*
X97996921Y-70158387D01*
X97986956Y-70179457D01*
X97974974Y-70199448D01*
X97961090Y-70218168D01*
X97945438Y-70235438D01*
X97928168Y-70251090D01*
X97909448Y-70264974D01*
X97889457Y-70276956D01*
X97868387Y-70286921D01*
X97846443Y-70294773D01*
X97823834Y-70300437D01*
X97800779Y-70303856D01*
X97777500Y-70305000D01*
X97202500Y-70305000D01*
X97179221Y-70303856D01*
X97156166Y-70300437D01*
X97133557Y-70294773D01*
X97111613Y-70286921D01*
X97090543Y-70276956D01*
X97070552Y-70264974D01*
X97051832Y-70251090D01*
X97034562Y-70235438D01*
X97018910Y-70218168D01*
X97005026Y-70199448D01*
X96993044Y-70179457D01*
X96983079Y-70158387D01*
X96975227Y-70136443D01*
X96969563Y-70113834D01*
X96966144Y-70090779D01*
X96965000Y-70067500D01*
X96965000Y-69592500D01*
X96966144Y-69569221D01*
X96969563Y-69546166D01*
X96975227Y-69523557D01*
X96983079Y-69501613D01*
X96993044Y-69480543D01*
X97005026Y-69460552D01*
X97018910Y-69441832D01*
X97034562Y-69424562D01*
X97051832Y-69408910D01*
X97070552Y-69395026D01*
X97090543Y-69383044D01*
X97111613Y-69373079D01*
X97133557Y-69365227D01*
X97156166Y-69359563D01*
X97179221Y-69356144D01*
X97202500Y-69355000D01*
X97777500Y-69355000D01*
X97800779Y-69356144D01*
G37*
G04 #@! TD.AperFunction*
G04 #@! TA.AperFunction,SMDPad,CuDef*
G36*
X99550779Y-60006144D02*
G01*
X99573834Y-60009563D01*
X99596443Y-60015227D01*
X99618387Y-60023079D01*
X99639457Y-60033044D01*
X99659448Y-60045026D01*
X99678168Y-60058910D01*
X99695438Y-60074562D01*
X99711090Y-60091832D01*
X99724974Y-60110552D01*
X99736956Y-60130543D01*
X99746921Y-60151613D01*
X99754773Y-60173557D01*
X99760437Y-60196166D01*
X99763856Y-60219221D01*
X99765000Y-60242500D01*
X99765000Y-60717500D01*
X99763856Y-60740779D01*
X99760437Y-60763834D01*
X99754773Y-60786443D01*
X99746921Y-60808387D01*
X99736956Y-60829457D01*
X99724974Y-60849448D01*
X99711090Y-60868168D01*
X99695438Y-60885438D01*
X99678168Y-60901090D01*
X99659448Y-60914974D01*
X99639457Y-60926956D01*
X99618387Y-60936921D01*
X99596443Y-60944773D01*
X99573834Y-60950437D01*
X99550779Y-60953856D01*
X99527500Y-60955000D01*
X98952500Y-60955000D01*
X98929221Y-60953856D01*
X98906166Y-60950437D01*
X98883557Y-60944773D01*
X98861613Y-60936921D01*
X98840543Y-60926956D01*
X98820552Y-60914974D01*
X98801832Y-60901090D01*
X98784562Y-60885438D01*
X98768910Y-60868168D01*
X98755026Y-60849448D01*
X98743044Y-60829457D01*
X98733079Y-60808387D01*
X98725227Y-60786443D01*
X98719563Y-60763834D01*
X98716144Y-60740779D01*
X98715000Y-60717500D01*
X98715000Y-60242500D01*
X98716144Y-60219221D01*
X98719563Y-60196166D01*
X98725227Y-60173557D01*
X98733079Y-60151613D01*
X98743044Y-60130543D01*
X98755026Y-60110552D01*
X98768910Y-60091832D01*
X98784562Y-60074562D01*
X98801832Y-60058910D01*
X98820552Y-60045026D01*
X98840543Y-60033044D01*
X98861613Y-60023079D01*
X98883557Y-60015227D01*
X98906166Y-60009563D01*
X98929221Y-60006144D01*
X98952500Y-60005000D01*
X99527500Y-60005000D01*
X99550779Y-60006144D01*
G37*
G04 #@! TD.AperFunction*
G04 #@! TA.AperFunction,SMDPad,CuDef*
G36*
X97800779Y-60006144D02*
G01*
X97823834Y-60009563D01*
X97846443Y-60015227D01*
X97868387Y-60023079D01*
X97889457Y-60033044D01*
X97909448Y-60045026D01*
X97928168Y-60058910D01*
X97945438Y-60074562D01*
X97961090Y-60091832D01*
X97974974Y-60110552D01*
X97986956Y-60130543D01*
X97996921Y-60151613D01*
X98004773Y-60173557D01*
X98010437Y-60196166D01*
X98013856Y-60219221D01*
X98015000Y-60242500D01*
X98015000Y-60717500D01*
X98013856Y-60740779D01*
X98010437Y-60763834D01*
X98004773Y-60786443D01*
X97996921Y-60808387D01*
X97986956Y-60829457D01*
X97974974Y-60849448D01*
X97961090Y-60868168D01*
X97945438Y-60885438D01*
X97928168Y-60901090D01*
X97909448Y-60914974D01*
X97889457Y-60926956D01*
X97868387Y-60936921D01*
X97846443Y-60944773D01*
X97823834Y-60950437D01*
X97800779Y-60953856D01*
X97777500Y-60955000D01*
X97202500Y-60955000D01*
X97179221Y-60953856D01*
X97156166Y-60950437D01*
X97133557Y-60944773D01*
X97111613Y-60936921D01*
X97090543Y-60926956D01*
X97070552Y-60914974D01*
X97051832Y-60901090D01*
X97034562Y-60885438D01*
X97018910Y-60868168D01*
X97005026Y-60849448D01*
X96993044Y-60829457D01*
X96983079Y-60808387D01*
X96975227Y-60786443D01*
X96969563Y-60763834D01*
X96966144Y-60740779D01*
X96965000Y-60717500D01*
X96965000Y-60242500D01*
X96966144Y-60219221D01*
X96969563Y-60196166D01*
X96975227Y-60173557D01*
X96983079Y-60151613D01*
X96993044Y-60130543D01*
X97005026Y-60110552D01*
X97018910Y-60091832D01*
X97034562Y-60074562D01*
X97051832Y-60058910D01*
X97070552Y-60045026D01*
X97090543Y-60033044D01*
X97111613Y-60023079D01*
X97133557Y-60015227D01*
X97156166Y-60009563D01*
X97179221Y-60006144D01*
X97202500Y-60005000D01*
X97777500Y-60005000D01*
X97800779Y-60006144D01*
G37*
G04 #@! TD.AperFunction*
G04 #@! TA.AperFunction,SMDPad,CuDef*
G36*
X49910779Y-80426144D02*
G01*
X49933834Y-80429563D01*
X49956443Y-80435227D01*
X49978387Y-80443079D01*
X49999457Y-80453044D01*
X50019448Y-80465026D01*
X50038168Y-80478910D01*
X50055438Y-80494562D01*
X50071090Y-80511832D01*
X50084974Y-80530552D01*
X50096956Y-80550543D01*
X50106921Y-80571613D01*
X50114773Y-80593557D01*
X50120437Y-80616166D01*
X50123856Y-80639221D01*
X50125000Y-80662500D01*
X50125000Y-81137500D01*
X50123856Y-81160779D01*
X50120437Y-81183834D01*
X50114773Y-81206443D01*
X50106921Y-81228387D01*
X50096956Y-81249457D01*
X50084974Y-81269448D01*
X50071090Y-81288168D01*
X50055438Y-81305438D01*
X50038168Y-81321090D01*
X50019448Y-81334974D01*
X49999457Y-81346956D01*
X49978387Y-81356921D01*
X49956443Y-81364773D01*
X49933834Y-81370437D01*
X49910779Y-81373856D01*
X49887500Y-81375000D01*
X49312500Y-81375000D01*
X49289221Y-81373856D01*
X49266166Y-81370437D01*
X49243557Y-81364773D01*
X49221613Y-81356921D01*
X49200543Y-81346956D01*
X49180552Y-81334974D01*
X49161832Y-81321090D01*
X49144562Y-81305438D01*
X49128910Y-81288168D01*
X49115026Y-81269448D01*
X49103044Y-81249457D01*
X49093079Y-81228387D01*
X49085227Y-81206443D01*
X49079563Y-81183834D01*
X49076144Y-81160779D01*
X49075000Y-81137500D01*
X49075000Y-80662500D01*
X49076144Y-80639221D01*
X49079563Y-80616166D01*
X49085227Y-80593557D01*
X49093079Y-80571613D01*
X49103044Y-80550543D01*
X49115026Y-80530552D01*
X49128910Y-80511832D01*
X49144562Y-80494562D01*
X49161832Y-80478910D01*
X49180552Y-80465026D01*
X49200543Y-80453044D01*
X49221613Y-80443079D01*
X49243557Y-80435227D01*
X49266166Y-80429563D01*
X49289221Y-80426144D01*
X49312500Y-80425000D01*
X49887500Y-80425000D01*
X49910779Y-80426144D01*
G37*
G04 #@! TD.AperFunction*
G04 #@! TA.AperFunction,SMDPad,CuDef*
G36*
X48160779Y-80426144D02*
G01*
X48183834Y-80429563D01*
X48206443Y-80435227D01*
X48228387Y-80443079D01*
X48249457Y-80453044D01*
X48269448Y-80465026D01*
X48288168Y-80478910D01*
X48305438Y-80494562D01*
X48321090Y-80511832D01*
X48334974Y-80530552D01*
X48346956Y-80550543D01*
X48356921Y-80571613D01*
X48364773Y-80593557D01*
X48370437Y-80616166D01*
X48373856Y-80639221D01*
X48375000Y-80662500D01*
X48375000Y-81137500D01*
X48373856Y-81160779D01*
X48370437Y-81183834D01*
X48364773Y-81206443D01*
X48356921Y-81228387D01*
X48346956Y-81249457D01*
X48334974Y-81269448D01*
X48321090Y-81288168D01*
X48305438Y-81305438D01*
X48288168Y-81321090D01*
X48269448Y-81334974D01*
X48249457Y-81346956D01*
X48228387Y-81356921D01*
X48206443Y-81364773D01*
X48183834Y-81370437D01*
X48160779Y-81373856D01*
X48137500Y-81375000D01*
X47562500Y-81375000D01*
X47539221Y-81373856D01*
X47516166Y-81370437D01*
X47493557Y-81364773D01*
X47471613Y-81356921D01*
X47450543Y-81346956D01*
X47430552Y-81334974D01*
X47411832Y-81321090D01*
X47394562Y-81305438D01*
X47378910Y-81288168D01*
X47365026Y-81269448D01*
X47353044Y-81249457D01*
X47343079Y-81228387D01*
X47335227Y-81206443D01*
X47329563Y-81183834D01*
X47326144Y-81160779D01*
X47325000Y-81137500D01*
X47325000Y-80662500D01*
X47326144Y-80639221D01*
X47329563Y-80616166D01*
X47335227Y-80593557D01*
X47343079Y-80571613D01*
X47353044Y-80550543D01*
X47365026Y-80530552D01*
X47378910Y-80511832D01*
X47394562Y-80494562D01*
X47411832Y-80478910D01*
X47430552Y-80465026D01*
X47450543Y-80453044D01*
X47471613Y-80443079D01*
X47493557Y-80435227D01*
X47516166Y-80429563D01*
X47539221Y-80426144D01*
X47562500Y-80425000D01*
X48137500Y-80425000D01*
X48160779Y-80426144D01*
G37*
G04 #@! TD.AperFunction*
G04 #@! TA.AperFunction,SMDPad,CuDef*
G36*
X93930779Y-60636144D02*
G01*
X93953834Y-60639563D01*
X93976443Y-60645227D01*
X93998387Y-60653079D01*
X94019457Y-60663044D01*
X94039448Y-60675026D01*
X94058168Y-60688910D01*
X94075438Y-60704562D01*
X94091090Y-60721832D01*
X94104974Y-60740552D01*
X94116956Y-60760543D01*
X94126921Y-60781613D01*
X94134773Y-60803557D01*
X94140437Y-60826166D01*
X94143856Y-60849221D01*
X94145000Y-60872500D01*
X94145000Y-61347500D01*
X94143856Y-61370779D01*
X94140437Y-61393834D01*
X94134773Y-61416443D01*
X94126921Y-61438387D01*
X94116956Y-61459457D01*
X94104974Y-61479448D01*
X94091090Y-61498168D01*
X94075438Y-61515438D01*
X94058168Y-61531090D01*
X94039448Y-61544974D01*
X94019457Y-61556956D01*
X93998387Y-61566921D01*
X93976443Y-61574773D01*
X93953834Y-61580437D01*
X93930779Y-61583856D01*
X93907500Y-61585000D01*
X93332500Y-61585000D01*
X93309221Y-61583856D01*
X93286166Y-61580437D01*
X93263557Y-61574773D01*
X93241613Y-61566921D01*
X93220543Y-61556956D01*
X93200552Y-61544974D01*
X93181832Y-61531090D01*
X93164562Y-61515438D01*
X93148910Y-61498168D01*
X93135026Y-61479448D01*
X93123044Y-61459457D01*
X93113079Y-61438387D01*
X93105227Y-61416443D01*
X93099563Y-61393834D01*
X93096144Y-61370779D01*
X93095000Y-61347500D01*
X93095000Y-60872500D01*
X93096144Y-60849221D01*
X93099563Y-60826166D01*
X93105227Y-60803557D01*
X93113079Y-60781613D01*
X93123044Y-60760543D01*
X93135026Y-60740552D01*
X93148910Y-60721832D01*
X93164562Y-60704562D01*
X93181832Y-60688910D01*
X93200552Y-60675026D01*
X93220543Y-60663044D01*
X93241613Y-60653079D01*
X93263557Y-60645227D01*
X93286166Y-60639563D01*
X93309221Y-60636144D01*
X93332500Y-60635000D01*
X93907500Y-60635000D01*
X93930779Y-60636144D01*
G37*
G04 #@! TD.AperFunction*
G04 #@! TA.AperFunction,SMDPad,CuDef*
G36*
X95680779Y-60636144D02*
G01*
X95703834Y-60639563D01*
X95726443Y-60645227D01*
X95748387Y-60653079D01*
X95769457Y-60663044D01*
X95789448Y-60675026D01*
X95808168Y-60688910D01*
X95825438Y-60704562D01*
X95841090Y-60721832D01*
X95854974Y-60740552D01*
X95866956Y-60760543D01*
X95876921Y-60781613D01*
X95884773Y-60803557D01*
X95890437Y-60826166D01*
X95893856Y-60849221D01*
X95895000Y-60872500D01*
X95895000Y-61347500D01*
X95893856Y-61370779D01*
X95890437Y-61393834D01*
X95884773Y-61416443D01*
X95876921Y-61438387D01*
X95866956Y-61459457D01*
X95854974Y-61479448D01*
X95841090Y-61498168D01*
X95825438Y-61515438D01*
X95808168Y-61531090D01*
X95789448Y-61544974D01*
X95769457Y-61556956D01*
X95748387Y-61566921D01*
X95726443Y-61574773D01*
X95703834Y-61580437D01*
X95680779Y-61583856D01*
X95657500Y-61585000D01*
X95082500Y-61585000D01*
X95059221Y-61583856D01*
X95036166Y-61580437D01*
X95013557Y-61574773D01*
X94991613Y-61566921D01*
X94970543Y-61556956D01*
X94950552Y-61544974D01*
X94931832Y-61531090D01*
X94914562Y-61515438D01*
X94898910Y-61498168D01*
X94885026Y-61479448D01*
X94873044Y-61459457D01*
X94863079Y-61438387D01*
X94855227Y-61416443D01*
X94849563Y-61393834D01*
X94846144Y-61370779D01*
X94845000Y-61347500D01*
X94845000Y-60872500D01*
X94846144Y-60849221D01*
X94849563Y-60826166D01*
X94855227Y-60803557D01*
X94863079Y-60781613D01*
X94873044Y-60760543D01*
X94885026Y-60740552D01*
X94898910Y-60721832D01*
X94914562Y-60704562D01*
X94931832Y-60688910D01*
X94950552Y-60675026D01*
X94970543Y-60663044D01*
X94991613Y-60653079D01*
X95013557Y-60645227D01*
X95036166Y-60639563D01*
X95059221Y-60636144D01*
X95082500Y-60635000D01*
X95657500Y-60635000D01*
X95680779Y-60636144D01*
G37*
G04 #@! TD.AperFunction*
G04 #@! TA.AperFunction,SMDPad,CuDef*
G36*
X90035779Y-65526144D02*
G01*
X90058834Y-65529563D01*
X90081443Y-65535227D01*
X90103387Y-65543079D01*
X90124457Y-65553044D01*
X90144448Y-65565026D01*
X90163168Y-65578910D01*
X90180438Y-65594562D01*
X90196090Y-65611832D01*
X90209974Y-65630552D01*
X90221956Y-65650543D01*
X90231921Y-65671613D01*
X90239773Y-65693557D01*
X90245437Y-65716166D01*
X90248856Y-65739221D01*
X90250000Y-65762500D01*
X90250000Y-66237500D01*
X90248856Y-66260779D01*
X90245437Y-66283834D01*
X90239773Y-66306443D01*
X90231921Y-66328387D01*
X90221956Y-66349457D01*
X90209974Y-66369448D01*
X90196090Y-66388168D01*
X90180438Y-66405438D01*
X90163168Y-66421090D01*
X90144448Y-66434974D01*
X90124457Y-66446956D01*
X90103387Y-66456921D01*
X90081443Y-66464773D01*
X90058834Y-66470437D01*
X90035779Y-66473856D01*
X90012500Y-66475000D01*
X89437500Y-66475000D01*
X89414221Y-66473856D01*
X89391166Y-66470437D01*
X89368557Y-66464773D01*
X89346613Y-66456921D01*
X89325543Y-66446956D01*
X89305552Y-66434974D01*
X89286832Y-66421090D01*
X89269562Y-66405438D01*
X89253910Y-66388168D01*
X89240026Y-66369448D01*
X89228044Y-66349457D01*
X89218079Y-66328387D01*
X89210227Y-66306443D01*
X89204563Y-66283834D01*
X89201144Y-66260779D01*
X89200000Y-66237500D01*
X89200000Y-65762500D01*
X89201144Y-65739221D01*
X89204563Y-65716166D01*
X89210227Y-65693557D01*
X89218079Y-65671613D01*
X89228044Y-65650543D01*
X89240026Y-65630552D01*
X89253910Y-65611832D01*
X89269562Y-65594562D01*
X89286832Y-65578910D01*
X89305552Y-65565026D01*
X89325543Y-65553044D01*
X89346613Y-65543079D01*
X89368557Y-65535227D01*
X89391166Y-65529563D01*
X89414221Y-65526144D01*
X89437500Y-65525000D01*
X90012500Y-65525000D01*
X90035779Y-65526144D01*
G37*
G04 #@! TD.AperFunction*
G04 #@! TA.AperFunction,SMDPad,CuDef*
G36*
X91785779Y-65526144D02*
G01*
X91808834Y-65529563D01*
X91831443Y-65535227D01*
X91853387Y-65543079D01*
X91874457Y-65553044D01*
X91894448Y-65565026D01*
X91913168Y-65578910D01*
X91930438Y-65594562D01*
X91946090Y-65611832D01*
X91959974Y-65630552D01*
X91971956Y-65650543D01*
X91981921Y-65671613D01*
X91989773Y-65693557D01*
X91995437Y-65716166D01*
X91998856Y-65739221D01*
X92000000Y-65762500D01*
X92000000Y-66237500D01*
X91998856Y-66260779D01*
X91995437Y-66283834D01*
X91989773Y-66306443D01*
X91981921Y-66328387D01*
X91971956Y-66349457D01*
X91959974Y-66369448D01*
X91946090Y-66388168D01*
X91930438Y-66405438D01*
X91913168Y-66421090D01*
X91894448Y-66434974D01*
X91874457Y-66446956D01*
X91853387Y-66456921D01*
X91831443Y-66464773D01*
X91808834Y-66470437D01*
X91785779Y-66473856D01*
X91762500Y-66475000D01*
X91187500Y-66475000D01*
X91164221Y-66473856D01*
X91141166Y-66470437D01*
X91118557Y-66464773D01*
X91096613Y-66456921D01*
X91075543Y-66446956D01*
X91055552Y-66434974D01*
X91036832Y-66421090D01*
X91019562Y-66405438D01*
X91003910Y-66388168D01*
X90990026Y-66369448D01*
X90978044Y-66349457D01*
X90968079Y-66328387D01*
X90960227Y-66306443D01*
X90954563Y-66283834D01*
X90951144Y-66260779D01*
X90950000Y-66237500D01*
X90950000Y-65762500D01*
X90951144Y-65739221D01*
X90954563Y-65716166D01*
X90960227Y-65693557D01*
X90968079Y-65671613D01*
X90978044Y-65650543D01*
X90990026Y-65630552D01*
X91003910Y-65611832D01*
X91019562Y-65594562D01*
X91036832Y-65578910D01*
X91055552Y-65565026D01*
X91075543Y-65553044D01*
X91096613Y-65543079D01*
X91118557Y-65535227D01*
X91141166Y-65529563D01*
X91164221Y-65526144D01*
X91187500Y-65525000D01*
X91762500Y-65525000D01*
X91785779Y-65526144D01*
G37*
G04 #@! TD.AperFunction*
G04 #@! TA.AperFunction,SMDPad,CuDef*
G36*
X93930779Y-70076144D02*
G01*
X93953834Y-70079563D01*
X93976443Y-70085227D01*
X93998387Y-70093079D01*
X94019457Y-70103044D01*
X94039448Y-70115026D01*
X94058168Y-70128910D01*
X94075438Y-70144562D01*
X94091090Y-70161832D01*
X94104974Y-70180552D01*
X94116956Y-70200543D01*
X94126921Y-70221613D01*
X94134773Y-70243557D01*
X94140437Y-70266166D01*
X94143856Y-70289221D01*
X94145000Y-70312500D01*
X94145000Y-70787500D01*
X94143856Y-70810779D01*
X94140437Y-70833834D01*
X94134773Y-70856443D01*
X94126921Y-70878387D01*
X94116956Y-70899457D01*
X94104974Y-70919448D01*
X94091090Y-70938168D01*
X94075438Y-70955438D01*
X94058168Y-70971090D01*
X94039448Y-70984974D01*
X94019457Y-70996956D01*
X93998387Y-71006921D01*
X93976443Y-71014773D01*
X93953834Y-71020437D01*
X93930779Y-71023856D01*
X93907500Y-71025000D01*
X93332500Y-71025000D01*
X93309221Y-71023856D01*
X93286166Y-71020437D01*
X93263557Y-71014773D01*
X93241613Y-71006921D01*
X93220543Y-70996956D01*
X93200552Y-70984974D01*
X93181832Y-70971090D01*
X93164562Y-70955438D01*
X93148910Y-70938168D01*
X93135026Y-70919448D01*
X93123044Y-70899457D01*
X93113079Y-70878387D01*
X93105227Y-70856443D01*
X93099563Y-70833834D01*
X93096144Y-70810779D01*
X93095000Y-70787500D01*
X93095000Y-70312500D01*
X93096144Y-70289221D01*
X93099563Y-70266166D01*
X93105227Y-70243557D01*
X93113079Y-70221613D01*
X93123044Y-70200543D01*
X93135026Y-70180552D01*
X93148910Y-70161832D01*
X93164562Y-70144562D01*
X93181832Y-70128910D01*
X93200552Y-70115026D01*
X93220543Y-70103044D01*
X93241613Y-70093079D01*
X93263557Y-70085227D01*
X93286166Y-70079563D01*
X93309221Y-70076144D01*
X93332500Y-70075000D01*
X93907500Y-70075000D01*
X93930779Y-70076144D01*
G37*
G04 #@! TD.AperFunction*
G04 #@! TA.AperFunction,SMDPad,CuDef*
G36*
X95680779Y-70076144D02*
G01*
X95703834Y-70079563D01*
X95726443Y-70085227D01*
X95748387Y-70093079D01*
X95769457Y-70103044D01*
X95789448Y-70115026D01*
X95808168Y-70128910D01*
X95825438Y-70144562D01*
X95841090Y-70161832D01*
X95854974Y-70180552D01*
X95866956Y-70200543D01*
X95876921Y-70221613D01*
X95884773Y-70243557D01*
X95890437Y-70266166D01*
X95893856Y-70289221D01*
X95895000Y-70312500D01*
X95895000Y-70787500D01*
X95893856Y-70810779D01*
X95890437Y-70833834D01*
X95884773Y-70856443D01*
X95876921Y-70878387D01*
X95866956Y-70899457D01*
X95854974Y-70919448D01*
X95841090Y-70938168D01*
X95825438Y-70955438D01*
X95808168Y-70971090D01*
X95789448Y-70984974D01*
X95769457Y-70996956D01*
X95748387Y-71006921D01*
X95726443Y-71014773D01*
X95703834Y-71020437D01*
X95680779Y-71023856D01*
X95657500Y-71025000D01*
X95082500Y-71025000D01*
X95059221Y-71023856D01*
X95036166Y-71020437D01*
X95013557Y-71014773D01*
X94991613Y-71006921D01*
X94970543Y-70996956D01*
X94950552Y-70984974D01*
X94931832Y-70971090D01*
X94914562Y-70955438D01*
X94898910Y-70938168D01*
X94885026Y-70919448D01*
X94873044Y-70899457D01*
X94863079Y-70878387D01*
X94855227Y-70856443D01*
X94849563Y-70833834D01*
X94846144Y-70810779D01*
X94845000Y-70787500D01*
X94845000Y-70312500D01*
X94846144Y-70289221D01*
X94849563Y-70266166D01*
X94855227Y-70243557D01*
X94863079Y-70221613D01*
X94873044Y-70200543D01*
X94885026Y-70180552D01*
X94898910Y-70161832D01*
X94914562Y-70144562D01*
X94931832Y-70128910D01*
X94950552Y-70115026D01*
X94970543Y-70103044D01*
X94991613Y-70093079D01*
X95013557Y-70085227D01*
X95036166Y-70079563D01*
X95059221Y-70076144D01*
X95082500Y-70075000D01*
X95657500Y-70075000D01*
X95680779Y-70076144D01*
G37*
G04 #@! TD.AperFunction*
G04 #@! TA.AperFunction,SMDPad,CuDef*
G36*
X49910779Y-83776144D02*
G01*
X49933834Y-83779563D01*
X49956443Y-83785227D01*
X49978387Y-83793079D01*
X49999457Y-83803044D01*
X50019448Y-83815026D01*
X50038168Y-83828910D01*
X50055438Y-83844562D01*
X50071090Y-83861832D01*
X50084974Y-83880552D01*
X50096956Y-83900543D01*
X50106921Y-83921613D01*
X50114773Y-83943557D01*
X50120437Y-83966166D01*
X50123856Y-83989221D01*
X50125000Y-84012500D01*
X50125000Y-84487500D01*
X50123856Y-84510779D01*
X50120437Y-84533834D01*
X50114773Y-84556443D01*
X50106921Y-84578387D01*
X50096956Y-84599457D01*
X50084974Y-84619448D01*
X50071090Y-84638168D01*
X50055438Y-84655438D01*
X50038168Y-84671090D01*
X50019448Y-84684974D01*
X49999457Y-84696956D01*
X49978387Y-84706921D01*
X49956443Y-84714773D01*
X49933834Y-84720437D01*
X49910779Y-84723856D01*
X49887500Y-84725000D01*
X49312500Y-84725000D01*
X49289221Y-84723856D01*
X49266166Y-84720437D01*
X49243557Y-84714773D01*
X49221613Y-84706921D01*
X49200543Y-84696956D01*
X49180552Y-84684974D01*
X49161832Y-84671090D01*
X49144562Y-84655438D01*
X49128910Y-84638168D01*
X49115026Y-84619448D01*
X49103044Y-84599457D01*
X49093079Y-84578387D01*
X49085227Y-84556443D01*
X49079563Y-84533834D01*
X49076144Y-84510779D01*
X49075000Y-84487500D01*
X49075000Y-84012500D01*
X49076144Y-83989221D01*
X49079563Y-83966166D01*
X49085227Y-83943557D01*
X49093079Y-83921613D01*
X49103044Y-83900543D01*
X49115026Y-83880552D01*
X49128910Y-83861832D01*
X49144562Y-83844562D01*
X49161832Y-83828910D01*
X49180552Y-83815026D01*
X49200543Y-83803044D01*
X49221613Y-83793079D01*
X49243557Y-83785227D01*
X49266166Y-83779563D01*
X49289221Y-83776144D01*
X49312500Y-83775000D01*
X49887500Y-83775000D01*
X49910779Y-83776144D01*
G37*
G04 #@! TD.AperFunction*
G04 #@! TA.AperFunction,SMDPad,CuDef*
G36*
X48160779Y-83776144D02*
G01*
X48183834Y-83779563D01*
X48206443Y-83785227D01*
X48228387Y-83793079D01*
X48249457Y-83803044D01*
X48269448Y-83815026D01*
X48288168Y-83828910D01*
X48305438Y-83844562D01*
X48321090Y-83861832D01*
X48334974Y-83880552D01*
X48346956Y-83900543D01*
X48356921Y-83921613D01*
X48364773Y-83943557D01*
X48370437Y-83966166D01*
X48373856Y-83989221D01*
X48375000Y-84012500D01*
X48375000Y-84487500D01*
X48373856Y-84510779D01*
X48370437Y-84533834D01*
X48364773Y-84556443D01*
X48356921Y-84578387D01*
X48346956Y-84599457D01*
X48334974Y-84619448D01*
X48321090Y-84638168D01*
X48305438Y-84655438D01*
X48288168Y-84671090D01*
X48269448Y-84684974D01*
X48249457Y-84696956D01*
X48228387Y-84706921D01*
X48206443Y-84714773D01*
X48183834Y-84720437D01*
X48160779Y-84723856D01*
X48137500Y-84725000D01*
X47562500Y-84725000D01*
X47539221Y-84723856D01*
X47516166Y-84720437D01*
X47493557Y-84714773D01*
X47471613Y-84706921D01*
X47450543Y-84696956D01*
X47430552Y-84684974D01*
X47411832Y-84671090D01*
X47394562Y-84655438D01*
X47378910Y-84638168D01*
X47365026Y-84619448D01*
X47353044Y-84599457D01*
X47343079Y-84578387D01*
X47335227Y-84556443D01*
X47329563Y-84533834D01*
X47326144Y-84510779D01*
X47325000Y-84487500D01*
X47325000Y-84012500D01*
X47326144Y-83989221D01*
X47329563Y-83966166D01*
X47335227Y-83943557D01*
X47343079Y-83921613D01*
X47353044Y-83900543D01*
X47365026Y-83880552D01*
X47378910Y-83861832D01*
X47394562Y-83844562D01*
X47411832Y-83828910D01*
X47430552Y-83815026D01*
X47450543Y-83803044D01*
X47471613Y-83793079D01*
X47493557Y-83785227D01*
X47516166Y-83779563D01*
X47539221Y-83776144D01*
X47562500Y-83775000D01*
X48137500Y-83775000D01*
X48160779Y-83776144D01*
G37*
G04 #@! TD.AperFunction*
G04 #@! TA.AperFunction,SMDPad,CuDef*
G36*
X89210779Y-87126144D02*
G01*
X89233834Y-87129563D01*
X89256443Y-87135227D01*
X89278387Y-87143079D01*
X89299457Y-87153044D01*
X89319448Y-87165026D01*
X89338168Y-87178910D01*
X89355438Y-87194562D01*
X89371090Y-87211832D01*
X89384974Y-87230552D01*
X89396956Y-87250543D01*
X89406921Y-87271613D01*
X89414773Y-87293557D01*
X89420437Y-87316166D01*
X89423856Y-87339221D01*
X89425000Y-87362500D01*
X89425000Y-87837500D01*
X89423856Y-87860779D01*
X89420437Y-87883834D01*
X89414773Y-87906443D01*
X89406921Y-87928387D01*
X89396956Y-87949457D01*
X89384974Y-87969448D01*
X89371090Y-87988168D01*
X89355438Y-88005438D01*
X89338168Y-88021090D01*
X89319448Y-88034974D01*
X89299457Y-88046956D01*
X89278387Y-88056921D01*
X89256443Y-88064773D01*
X89233834Y-88070437D01*
X89210779Y-88073856D01*
X89187500Y-88075000D01*
X88612500Y-88075000D01*
X88589221Y-88073856D01*
X88566166Y-88070437D01*
X88543557Y-88064773D01*
X88521613Y-88056921D01*
X88500543Y-88046956D01*
X88480552Y-88034974D01*
X88461832Y-88021090D01*
X88444562Y-88005438D01*
X88428910Y-87988168D01*
X88415026Y-87969448D01*
X88403044Y-87949457D01*
X88393079Y-87928387D01*
X88385227Y-87906443D01*
X88379563Y-87883834D01*
X88376144Y-87860779D01*
X88375000Y-87837500D01*
X88375000Y-87362500D01*
X88376144Y-87339221D01*
X88379563Y-87316166D01*
X88385227Y-87293557D01*
X88393079Y-87271613D01*
X88403044Y-87250543D01*
X88415026Y-87230552D01*
X88428910Y-87211832D01*
X88444562Y-87194562D01*
X88461832Y-87178910D01*
X88480552Y-87165026D01*
X88500543Y-87153044D01*
X88521613Y-87143079D01*
X88543557Y-87135227D01*
X88566166Y-87129563D01*
X88589221Y-87126144D01*
X88612500Y-87125000D01*
X89187500Y-87125000D01*
X89210779Y-87126144D01*
G37*
G04 #@! TD.AperFunction*
G04 #@! TA.AperFunction,SMDPad,CuDef*
G36*
X90960779Y-87126144D02*
G01*
X90983834Y-87129563D01*
X91006443Y-87135227D01*
X91028387Y-87143079D01*
X91049457Y-87153044D01*
X91069448Y-87165026D01*
X91088168Y-87178910D01*
X91105438Y-87194562D01*
X91121090Y-87211832D01*
X91134974Y-87230552D01*
X91146956Y-87250543D01*
X91156921Y-87271613D01*
X91164773Y-87293557D01*
X91170437Y-87316166D01*
X91173856Y-87339221D01*
X91175000Y-87362500D01*
X91175000Y-87837500D01*
X91173856Y-87860779D01*
X91170437Y-87883834D01*
X91164773Y-87906443D01*
X91156921Y-87928387D01*
X91146956Y-87949457D01*
X91134974Y-87969448D01*
X91121090Y-87988168D01*
X91105438Y-88005438D01*
X91088168Y-88021090D01*
X91069448Y-88034974D01*
X91049457Y-88046956D01*
X91028387Y-88056921D01*
X91006443Y-88064773D01*
X90983834Y-88070437D01*
X90960779Y-88073856D01*
X90937500Y-88075000D01*
X90362500Y-88075000D01*
X90339221Y-88073856D01*
X90316166Y-88070437D01*
X90293557Y-88064773D01*
X90271613Y-88056921D01*
X90250543Y-88046956D01*
X90230552Y-88034974D01*
X90211832Y-88021090D01*
X90194562Y-88005438D01*
X90178910Y-87988168D01*
X90165026Y-87969448D01*
X90153044Y-87949457D01*
X90143079Y-87928387D01*
X90135227Y-87906443D01*
X90129563Y-87883834D01*
X90126144Y-87860779D01*
X90125000Y-87837500D01*
X90125000Y-87362500D01*
X90126144Y-87339221D01*
X90129563Y-87316166D01*
X90135227Y-87293557D01*
X90143079Y-87271613D01*
X90153044Y-87250543D01*
X90165026Y-87230552D01*
X90178910Y-87211832D01*
X90194562Y-87194562D01*
X90211832Y-87178910D01*
X90230552Y-87165026D01*
X90250543Y-87153044D01*
X90271613Y-87143079D01*
X90293557Y-87135227D01*
X90316166Y-87129563D01*
X90339221Y-87126144D01*
X90362500Y-87125000D01*
X90937500Y-87125000D01*
X90960779Y-87126144D01*
G37*
G04 #@! TD.AperFunction*
G04 #@! TA.AperFunction,SMDPad,CuDef*
G36*
X102310779Y-83801144D02*
G01*
X102333834Y-83804563D01*
X102356443Y-83810227D01*
X102378387Y-83818079D01*
X102399457Y-83828044D01*
X102419448Y-83840026D01*
X102438168Y-83853910D01*
X102455438Y-83869562D01*
X102471090Y-83886832D01*
X102484974Y-83905552D01*
X102496956Y-83925543D01*
X102506921Y-83946613D01*
X102514773Y-83968557D01*
X102520437Y-83991166D01*
X102523856Y-84014221D01*
X102525000Y-84037500D01*
X102525000Y-84612500D01*
X102523856Y-84635779D01*
X102520437Y-84658834D01*
X102514773Y-84681443D01*
X102506921Y-84703387D01*
X102496956Y-84724457D01*
X102484974Y-84744448D01*
X102471090Y-84763168D01*
X102455438Y-84780438D01*
X102438168Y-84796090D01*
X102419448Y-84809974D01*
X102399457Y-84821956D01*
X102378387Y-84831921D01*
X102356443Y-84839773D01*
X102333834Y-84845437D01*
X102310779Y-84848856D01*
X102287500Y-84850000D01*
X101812500Y-84850000D01*
X101789221Y-84848856D01*
X101766166Y-84845437D01*
X101743557Y-84839773D01*
X101721613Y-84831921D01*
X101700543Y-84821956D01*
X101680552Y-84809974D01*
X101661832Y-84796090D01*
X101644562Y-84780438D01*
X101628910Y-84763168D01*
X101615026Y-84744448D01*
X101603044Y-84724457D01*
X101593079Y-84703387D01*
X101585227Y-84681443D01*
X101579563Y-84658834D01*
X101576144Y-84635779D01*
X101575000Y-84612500D01*
X101575000Y-84037500D01*
X101576144Y-84014221D01*
X101579563Y-83991166D01*
X101585227Y-83968557D01*
X101593079Y-83946613D01*
X101603044Y-83925543D01*
X101615026Y-83905552D01*
X101628910Y-83886832D01*
X101644562Y-83869562D01*
X101661832Y-83853910D01*
X101680552Y-83840026D01*
X101700543Y-83828044D01*
X101721613Y-83818079D01*
X101743557Y-83810227D01*
X101766166Y-83804563D01*
X101789221Y-83801144D01*
X101812500Y-83800000D01*
X102287500Y-83800000D01*
X102310779Y-83801144D01*
G37*
G04 #@! TD.AperFunction*
G04 #@! TA.AperFunction,SMDPad,CuDef*
G36*
X102310779Y-82051144D02*
G01*
X102333834Y-82054563D01*
X102356443Y-82060227D01*
X102378387Y-82068079D01*
X102399457Y-82078044D01*
X102419448Y-82090026D01*
X102438168Y-82103910D01*
X102455438Y-82119562D01*
X102471090Y-82136832D01*
X102484974Y-82155552D01*
X102496956Y-82175543D01*
X102506921Y-82196613D01*
X102514773Y-82218557D01*
X102520437Y-82241166D01*
X102523856Y-82264221D01*
X102525000Y-82287500D01*
X102525000Y-82862500D01*
X102523856Y-82885779D01*
X102520437Y-82908834D01*
X102514773Y-82931443D01*
X102506921Y-82953387D01*
X102496956Y-82974457D01*
X102484974Y-82994448D01*
X102471090Y-83013168D01*
X102455438Y-83030438D01*
X102438168Y-83046090D01*
X102419448Y-83059974D01*
X102399457Y-83071956D01*
X102378387Y-83081921D01*
X102356443Y-83089773D01*
X102333834Y-83095437D01*
X102310779Y-83098856D01*
X102287500Y-83100000D01*
X101812500Y-83100000D01*
X101789221Y-83098856D01*
X101766166Y-83095437D01*
X101743557Y-83089773D01*
X101721613Y-83081921D01*
X101700543Y-83071956D01*
X101680552Y-83059974D01*
X101661832Y-83046090D01*
X101644562Y-83030438D01*
X101628910Y-83013168D01*
X101615026Y-82994448D01*
X101603044Y-82974457D01*
X101593079Y-82953387D01*
X101585227Y-82931443D01*
X101579563Y-82908834D01*
X101576144Y-82885779D01*
X101575000Y-82862500D01*
X101575000Y-82287500D01*
X101576144Y-82264221D01*
X101579563Y-82241166D01*
X101585227Y-82218557D01*
X101593079Y-82196613D01*
X101603044Y-82175543D01*
X101615026Y-82155552D01*
X101628910Y-82136832D01*
X101644562Y-82119562D01*
X101661832Y-82103910D01*
X101680552Y-82090026D01*
X101700543Y-82078044D01*
X101721613Y-82068079D01*
X101743557Y-82060227D01*
X101766166Y-82054563D01*
X101789221Y-82051144D01*
X101812500Y-82050000D01*
X102287500Y-82050000D01*
X102310779Y-82051144D01*
G37*
G04 #@! TD.AperFunction*
G04 #@! TA.AperFunction,SMDPad,CuDef*
G36*
X77870779Y-70836144D02*
G01*
X77893834Y-70839563D01*
X77916443Y-70845227D01*
X77938387Y-70853079D01*
X77959457Y-70863044D01*
X77979448Y-70875026D01*
X77998168Y-70888910D01*
X78015438Y-70904562D01*
X78031090Y-70921832D01*
X78044974Y-70940552D01*
X78056956Y-70960543D01*
X78066921Y-70981613D01*
X78074773Y-71003557D01*
X78080437Y-71026166D01*
X78083856Y-71049221D01*
X78085000Y-71072500D01*
X78085000Y-71547500D01*
X78083856Y-71570779D01*
X78080437Y-71593834D01*
X78074773Y-71616443D01*
X78066921Y-71638387D01*
X78056956Y-71659457D01*
X78044974Y-71679448D01*
X78031090Y-71698168D01*
X78015438Y-71715438D01*
X77998168Y-71731090D01*
X77979448Y-71744974D01*
X77959457Y-71756956D01*
X77938387Y-71766921D01*
X77916443Y-71774773D01*
X77893834Y-71780437D01*
X77870779Y-71783856D01*
X77847500Y-71785000D01*
X77272500Y-71785000D01*
X77249221Y-71783856D01*
X77226166Y-71780437D01*
X77203557Y-71774773D01*
X77181613Y-71766921D01*
X77160543Y-71756956D01*
X77140552Y-71744974D01*
X77121832Y-71731090D01*
X77104562Y-71715438D01*
X77088910Y-71698168D01*
X77075026Y-71679448D01*
X77063044Y-71659457D01*
X77053079Y-71638387D01*
X77045227Y-71616443D01*
X77039563Y-71593834D01*
X77036144Y-71570779D01*
X77035000Y-71547500D01*
X77035000Y-71072500D01*
X77036144Y-71049221D01*
X77039563Y-71026166D01*
X77045227Y-71003557D01*
X77053079Y-70981613D01*
X77063044Y-70960543D01*
X77075026Y-70940552D01*
X77088910Y-70921832D01*
X77104562Y-70904562D01*
X77121832Y-70888910D01*
X77140552Y-70875026D01*
X77160543Y-70863044D01*
X77181613Y-70853079D01*
X77203557Y-70845227D01*
X77226166Y-70839563D01*
X77249221Y-70836144D01*
X77272500Y-70835000D01*
X77847500Y-70835000D01*
X77870779Y-70836144D01*
G37*
G04 #@! TD.AperFunction*
G04 #@! TA.AperFunction,SMDPad,CuDef*
G36*
X76120779Y-70836144D02*
G01*
X76143834Y-70839563D01*
X76166443Y-70845227D01*
X76188387Y-70853079D01*
X76209457Y-70863044D01*
X76229448Y-70875026D01*
X76248168Y-70888910D01*
X76265438Y-70904562D01*
X76281090Y-70921832D01*
X76294974Y-70940552D01*
X76306956Y-70960543D01*
X76316921Y-70981613D01*
X76324773Y-71003557D01*
X76330437Y-71026166D01*
X76333856Y-71049221D01*
X76335000Y-71072500D01*
X76335000Y-71547500D01*
X76333856Y-71570779D01*
X76330437Y-71593834D01*
X76324773Y-71616443D01*
X76316921Y-71638387D01*
X76306956Y-71659457D01*
X76294974Y-71679448D01*
X76281090Y-71698168D01*
X76265438Y-71715438D01*
X76248168Y-71731090D01*
X76229448Y-71744974D01*
X76209457Y-71756956D01*
X76188387Y-71766921D01*
X76166443Y-71774773D01*
X76143834Y-71780437D01*
X76120779Y-71783856D01*
X76097500Y-71785000D01*
X75522500Y-71785000D01*
X75499221Y-71783856D01*
X75476166Y-71780437D01*
X75453557Y-71774773D01*
X75431613Y-71766921D01*
X75410543Y-71756956D01*
X75390552Y-71744974D01*
X75371832Y-71731090D01*
X75354562Y-71715438D01*
X75338910Y-71698168D01*
X75325026Y-71679448D01*
X75313044Y-71659457D01*
X75303079Y-71638387D01*
X75295227Y-71616443D01*
X75289563Y-71593834D01*
X75286144Y-71570779D01*
X75285000Y-71547500D01*
X75285000Y-71072500D01*
X75286144Y-71049221D01*
X75289563Y-71026166D01*
X75295227Y-71003557D01*
X75303079Y-70981613D01*
X75313044Y-70960543D01*
X75325026Y-70940552D01*
X75338910Y-70921832D01*
X75354562Y-70904562D01*
X75371832Y-70888910D01*
X75390552Y-70875026D01*
X75410543Y-70863044D01*
X75431613Y-70853079D01*
X75453557Y-70845227D01*
X75476166Y-70839563D01*
X75499221Y-70836144D01*
X75522500Y-70835000D01*
X76097500Y-70835000D01*
X76120779Y-70836144D01*
G37*
G04 #@! TD.AperFunction*
G04 #@! TA.AperFunction,SMDPad,CuDef*
G36*
X68310779Y-87126144D02*
G01*
X68333834Y-87129563D01*
X68356443Y-87135227D01*
X68378387Y-87143079D01*
X68399457Y-87153044D01*
X68419448Y-87165026D01*
X68438168Y-87178910D01*
X68455438Y-87194562D01*
X68471090Y-87211832D01*
X68484974Y-87230552D01*
X68496956Y-87250543D01*
X68506921Y-87271613D01*
X68514773Y-87293557D01*
X68520437Y-87316166D01*
X68523856Y-87339221D01*
X68525000Y-87362500D01*
X68525000Y-87837500D01*
X68523856Y-87860779D01*
X68520437Y-87883834D01*
X68514773Y-87906443D01*
X68506921Y-87928387D01*
X68496956Y-87949457D01*
X68484974Y-87969448D01*
X68471090Y-87988168D01*
X68455438Y-88005438D01*
X68438168Y-88021090D01*
X68419448Y-88034974D01*
X68399457Y-88046956D01*
X68378387Y-88056921D01*
X68356443Y-88064773D01*
X68333834Y-88070437D01*
X68310779Y-88073856D01*
X68287500Y-88075000D01*
X67712500Y-88075000D01*
X67689221Y-88073856D01*
X67666166Y-88070437D01*
X67643557Y-88064773D01*
X67621613Y-88056921D01*
X67600543Y-88046956D01*
X67580552Y-88034974D01*
X67561832Y-88021090D01*
X67544562Y-88005438D01*
X67528910Y-87988168D01*
X67515026Y-87969448D01*
X67503044Y-87949457D01*
X67493079Y-87928387D01*
X67485227Y-87906443D01*
X67479563Y-87883834D01*
X67476144Y-87860779D01*
X67475000Y-87837500D01*
X67475000Y-87362500D01*
X67476144Y-87339221D01*
X67479563Y-87316166D01*
X67485227Y-87293557D01*
X67493079Y-87271613D01*
X67503044Y-87250543D01*
X67515026Y-87230552D01*
X67528910Y-87211832D01*
X67544562Y-87194562D01*
X67561832Y-87178910D01*
X67580552Y-87165026D01*
X67600543Y-87153044D01*
X67621613Y-87143079D01*
X67643557Y-87135227D01*
X67666166Y-87129563D01*
X67689221Y-87126144D01*
X67712500Y-87125000D01*
X68287500Y-87125000D01*
X68310779Y-87126144D01*
G37*
G04 #@! TD.AperFunction*
G04 #@! TA.AperFunction,SMDPad,CuDef*
G36*
X70060779Y-87126144D02*
G01*
X70083834Y-87129563D01*
X70106443Y-87135227D01*
X70128387Y-87143079D01*
X70149457Y-87153044D01*
X70169448Y-87165026D01*
X70188168Y-87178910D01*
X70205438Y-87194562D01*
X70221090Y-87211832D01*
X70234974Y-87230552D01*
X70246956Y-87250543D01*
X70256921Y-87271613D01*
X70264773Y-87293557D01*
X70270437Y-87316166D01*
X70273856Y-87339221D01*
X70275000Y-87362500D01*
X70275000Y-87837500D01*
X70273856Y-87860779D01*
X70270437Y-87883834D01*
X70264773Y-87906443D01*
X70256921Y-87928387D01*
X70246956Y-87949457D01*
X70234974Y-87969448D01*
X70221090Y-87988168D01*
X70205438Y-88005438D01*
X70188168Y-88021090D01*
X70169448Y-88034974D01*
X70149457Y-88046956D01*
X70128387Y-88056921D01*
X70106443Y-88064773D01*
X70083834Y-88070437D01*
X70060779Y-88073856D01*
X70037500Y-88075000D01*
X69462500Y-88075000D01*
X69439221Y-88073856D01*
X69416166Y-88070437D01*
X69393557Y-88064773D01*
X69371613Y-88056921D01*
X69350543Y-88046956D01*
X69330552Y-88034974D01*
X69311832Y-88021090D01*
X69294562Y-88005438D01*
X69278910Y-87988168D01*
X69265026Y-87969448D01*
X69253044Y-87949457D01*
X69243079Y-87928387D01*
X69235227Y-87906443D01*
X69229563Y-87883834D01*
X69226144Y-87860779D01*
X69225000Y-87837500D01*
X69225000Y-87362500D01*
X69226144Y-87339221D01*
X69229563Y-87316166D01*
X69235227Y-87293557D01*
X69243079Y-87271613D01*
X69253044Y-87250543D01*
X69265026Y-87230552D01*
X69278910Y-87211832D01*
X69294562Y-87194562D01*
X69311832Y-87178910D01*
X69330552Y-87165026D01*
X69350543Y-87153044D01*
X69371613Y-87143079D01*
X69393557Y-87135227D01*
X69416166Y-87129563D01*
X69439221Y-87126144D01*
X69462500Y-87125000D01*
X70037500Y-87125000D01*
X70060779Y-87126144D01*
G37*
G04 #@! TD.AperFunction*
G04 #@! TA.AperFunction,SMDPad,CuDef*
G36*
X81360779Y-82051144D02*
G01*
X81383834Y-82054563D01*
X81406443Y-82060227D01*
X81428387Y-82068079D01*
X81449457Y-82078044D01*
X81469448Y-82090026D01*
X81488168Y-82103910D01*
X81505438Y-82119562D01*
X81521090Y-82136832D01*
X81534974Y-82155552D01*
X81546956Y-82175543D01*
X81556921Y-82196613D01*
X81564773Y-82218557D01*
X81570437Y-82241166D01*
X81573856Y-82264221D01*
X81575000Y-82287500D01*
X81575000Y-82862500D01*
X81573856Y-82885779D01*
X81570437Y-82908834D01*
X81564773Y-82931443D01*
X81556921Y-82953387D01*
X81546956Y-82974457D01*
X81534974Y-82994448D01*
X81521090Y-83013168D01*
X81505438Y-83030438D01*
X81488168Y-83046090D01*
X81469448Y-83059974D01*
X81449457Y-83071956D01*
X81428387Y-83081921D01*
X81406443Y-83089773D01*
X81383834Y-83095437D01*
X81360779Y-83098856D01*
X81337500Y-83100000D01*
X80862500Y-83100000D01*
X80839221Y-83098856D01*
X80816166Y-83095437D01*
X80793557Y-83089773D01*
X80771613Y-83081921D01*
X80750543Y-83071956D01*
X80730552Y-83059974D01*
X80711832Y-83046090D01*
X80694562Y-83030438D01*
X80678910Y-83013168D01*
X80665026Y-82994448D01*
X80653044Y-82974457D01*
X80643079Y-82953387D01*
X80635227Y-82931443D01*
X80629563Y-82908834D01*
X80626144Y-82885779D01*
X80625000Y-82862500D01*
X80625000Y-82287500D01*
X80626144Y-82264221D01*
X80629563Y-82241166D01*
X80635227Y-82218557D01*
X80643079Y-82196613D01*
X80653044Y-82175543D01*
X80665026Y-82155552D01*
X80678910Y-82136832D01*
X80694562Y-82119562D01*
X80711832Y-82103910D01*
X80730552Y-82090026D01*
X80750543Y-82078044D01*
X80771613Y-82068079D01*
X80793557Y-82060227D01*
X80816166Y-82054563D01*
X80839221Y-82051144D01*
X80862500Y-82050000D01*
X81337500Y-82050000D01*
X81360779Y-82051144D01*
G37*
G04 #@! TD.AperFunction*
G04 #@! TA.AperFunction,SMDPad,CuDef*
G36*
X81360779Y-83801144D02*
G01*
X81383834Y-83804563D01*
X81406443Y-83810227D01*
X81428387Y-83818079D01*
X81449457Y-83828044D01*
X81469448Y-83840026D01*
X81488168Y-83853910D01*
X81505438Y-83869562D01*
X81521090Y-83886832D01*
X81534974Y-83905552D01*
X81546956Y-83925543D01*
X81556921Y-83946613D01*
X81564773Y-83968557D01*
X81570437Y-83991166D01*
X81573856Y-84014221D01*
X81575000Y-84037500D01*
X81575000Y-84612500D01*
X81573856Y-84635779D01*
X81570437Y-84658834D01*
X81564773Y-84681443D01*
X81556921Y-84703387D01*
X81546956Y-84724457D01*
X81534974Y-84744448D01*
X81521090Y-84763168D01*
X81505438Y-84780438D01*
X81488168Y-84796090D01*
X81469448Y-84809974D01*
X81449457Y-84821956D01*
X81428387Y-84831921D01*
X81406443Y-84839773D01*
X81383834Y-84845437D01*
X81360779Y-84848856D01*
X81337500Y-84850000D01*
X80862500Y-84850000D01*
X80839221Y-84848856D01*
X80816166Y-84845437D01*
X80793557Y-84839773D01*
X80771613Y-84831921D01*
X80750543Y-84821956D01*
X80730552Y-84809974D01*
X80711832Y-84796090D01*
X80694562Y-84780438D01*
X80678910Y-84763168D01*
X80665026Y-84744448D01*
X80653044Y-84724457D01*
X80643079Y-84703387D01*
X80635227Y-84681443D01*
X80629563Y-84658834D01*
X80626144Y-84635779D01*
X80625000Y-84612500D01*
X80625000Y-84037500D01*
X80626144Y-84014221D01*
X80629563Y-83991166D01*
X80635227Y-83968557D01*
X80643079Y-83946613D01*
X80653044Y-83925543D01*
X80665026Y-83905552D01*
X80678910Y-83886832D01*
X80694562Y-83869562D01*
X80711832Y-83853910D01*
X80730552Y-83840026D01*
X80750543Y-83828044D01*
X80771613Y-83818079D01*
X80793557Y-83810227D01*
X80816166Y-83804563D01*
X80839221Y-83801144D01*
X80862500Y-83800000D01*
X81337500Y-83800000D01*
X81360779Y-83801144D01*
G37*
G04 #@! TD.AperFunction*
G04 #@! TA.AperFunction,SMDPad,CuDef*
G36*
X48060779Y-87126144D02*
G01*
X48083834Y-87129563D01*
X48106443Y-87135227D01*
X48128387Y-87143079D01*
X48149457Y-87153044D01*
X48169448Y-87165026D01*
X48188168Y-87178910D01*
X48205438Y-87194562D01*
X48221090Y-87211832D01*
X48234974Y-87230552D01*
X48246956Y-87250543D01*
X48256921Y-87271613D01*
X48264773Y-87293557D01*
X48270437Y-87316166D01*
X48273856Y-87339221D01*
X48275000Y-87362500D01*
X48275000Y-87837500D01*
X48273856Y-87860779D01*
X48270437Y-87883834D01*
X48264773Y-87906443D01*
X48256921Y-87928387D01*
X48246956Y-87949457D01*
X48234974Y-87969448D01*
X48221090Y-87988168D01*
X48205438Y-88005438D01*
X48188168Y-88021090D01*
X48169448Y-88034974D01*
X48149457Y-88046956D01*
X48128387Y-88056921D01*
X48106443Y-88064773D01*
X48083834Y-88070437D01*
X48060779Y-88073856D01*
X48037500Y-88075000D01*
X47462500Y-88075000D01*
X47439221Y-88073856D01*
X47416166Y-88070437D01*
X47393557Y-88064773D01*
X47371613Y-88056921D01*
X47350543Y-88046956D01*
X47330552Y-88034974D01*
X47311832Y-88021090D01*
X47294562Y-88005438D01*
X47278910Y-87988168D01*
X47265026Y-87969448D01*
X47253044Y-87949457D01*
X47243079Y-87928387D01*
X47235227Y-87906443D01*
X47229563Y-87883834D01*
X47226144Y-87860779D01*
X47225000Y-87837500D01*
X47225000Y-87362500D01*
X47226144Y-87339221D01*
X47229563Y-87316166D01*
X47235227Y-87293557D01*
X47243079Y-87271613D01*
X47253044Y-87250543D01*
X47265026Y-87230552D01*
X47278910Y-87211832D01*
X47294562Y-87194562D01*
X47311832Y-87178910D01*
X47330552Y-87165026D01*
X47350543Y-87153044D01*
X47371613Y-87143079D01*
X47393557Y-87135227D01*
X47416166Y-87129563D01*
X47439221Y-87126144D01*
X47462500Y-87125000D01*
X48037500Y-87125000D01*
X48060779Y-87126144D01*
G37*
G04 #@! TD.AperFunction*
G04 #@! TA.AperFunction,SMDPad,CuDef*
G36*
X49810779Y-87126144D02*
G01*
X49833834Y-87129563D01*
X49856443Y-87135227D01*
X49878387Y-87143079D01*
X49899457Y-87153044D01*
X49919448Y-87165026D01*
X49938168Y-87178910D01*
X49955438Y-87194562D01*
X49971090Y-87211832D01*
X49984974Y-87230552D01*
X49996956Y-87250543D01*
X50006921Y-87271613D01*
X50014773Y-87293557D01*
X50020437Y-87316166D01*
X50023856Y-87339221D01*
X50025000Y-87362500D01*
X50025000Y-87837500D01*
X50023856Y-87860779D01*
X50020437Y-87883834D01*
X50014773Y-87906443D01*
X50006921Y-87928387D01*
X49996956Y-87949457D01*
X49984974Y-87969448D01*
X49971090Y-87988168D01*
X49955438Y-88005438D01*
X49938168Y-88021090D01*
X49919448Y-88034974D01*
X49899457Y-88046956D01*
X49878387Y-88056921D01*
X49856443Y-88064773D01*
X49833834Y-88070437D01*
X49810779Y-88073856D01*
X49787500Y-88075000D01*
X49212500Y-88075000D01*
X49189221Y-88073856D01*
X49166166Y-88070437D01*
X49143557Y-88064773D01*
X49121613Y-88056921D01*
X49100543Y-88046956D01*
X49080552Y-88034974D01*
X49061832Y-88021090D01*
X49044562Y-88005438D01*
X49028910Y-87988168D01*
X49015026Y-87969448D01*
X49003044Y-87949457D01*
X48993079Y-87928387D01*
X48985227Y-87906443D01*
X48979563Y-87883834D01*
X48976144Y-87860779D01*
X48975000Y-87837500D01*
X48975000Y-87362500D01*
X48976144Y-87339221D01*
X48979563Y-87316166D01*
X48985227Y-87293557D01*
X48993079Y-87271613D01*
X49003044Y-87250543D01*
X49015026Y-87230552D01*
X49028910Y-87211832D01*
X49044562Y-87194562D01*
X49061832Y-87178910D01*
X49080552Y-87165026D01*
X49100543Y-87153044D01*
X49121613Y-87143079D01*
X49143557Y-87135227D01*
X49166166Y-87129563D01*
X49189221Y-87126144D01*
X49212500Y-87125000D01*
X49787500Y-87125000D01*
X49810779Y-87126144D01*
G37*
G04 #@! TD.AperFunction*
G04 #@! TA.AperFunction,SMDPad,CuDef*
G36*
X61510779Y-82051144D02*
G01*
X61533834Y-82054563D01*
X61556443Y-82060227D01*
X61578387Y-82068079D01*
X61599457Y-82078044D01*
X61619448Y-82090026D01*
X61638168Y-82103910D01*
X61655438Y-82119562D01*
X61671090Y-82136832D01*
X61684974Y-82155552D01*
X61696956Y-82175543D01*
X61706921Y-82196613D01*
X61714773Y-82218557D01*
X61720437Y-82241166D01*
X61723856Y-82264221D01*
X61725000Y-82287500D01*
X61725000Y-82862500D01*
X61723856Y-82885779D01*
X61720437Y-82908834D01*
X61714773Y-82931443D01*
X61706921Y-82953387D01*
X61696956Y-82974457D01*
X61684974Y-82994448D01*
X61671090Y-83013168D01*
X61655438Y-83030438D01*
X61638168Y-83046090D01*
X61619448Y-83059974D01*
X61599457Y-83071956D01*
X61578387Y-83081921D01*
X61556443Y-83089773D01*
X61533834Y-83095437D01*
X61510779Y-83098856D01*
X61487500Y-83100000D01*
X61012500Y-83100000D01*
X60989221Y-83098856D01*
X60966166Y-83095437D01*
X60943557Y-83089773D01*
X60921613Y-83081921D01*
X60900543Y-83071956D01*
X60880552Y-83059974D01*
X60861832Y-83046090D01*
X60844562Y-83030438D01*
X60828910Y-83013168D01*
X60815026Y-82994448D01*
X60803044Y-82974457D01*
X60793079Y-82953387D01*
X60785227Y-82931443D01*
X60779563Y-82908834D01*
X60776144Y-82885779D01*
X60775000Y-82862500D01*
X60775000Y-82287500D01*
X60776144Y-82264221D01*
X60779563Y-82241166D01*
X60785227Y-82218557D01*
X60793079Y-82196613D01*
X60803044Y-82175543D01*
X60815026Y-82155552D01*
X60828910Y-82136832D01*
X60844562Y-82119562D01*
X60861832Y-82103910D01*
X60880552Y-82090026D01*
X60900543Y-82078044D01*
X60921613Y-82068079D01*
X60943557Y-82060227D01*
X60966166Y-82054563D01*
X60989221Y-82051144D01*
X61012500Y-82050000D01*
X61487500Y-82050000D01*
X61510779Y-82051144D01*
G37*
G04 #@! TD.AperFunction*
G04 #@! TA.AperFunction,SMDPad,CuDef*
G36*
X61510779Y-83801144D02*
G01*
X61533834Y-83804563D01*
X61556443Y-83810227D01*
X61578387Y-83818079D01*
X61599457Y-83828044D01*
X61619448Y-83840026D01*
X61638168Y-83853910D01*
X61655438Y-83869562D01*
X61671090Y-83886832D01*
X61684974Y-83905552D01*
X61696956Y-83925543D01*
X61706921Y-83946613D01*
X61714773Y-83968557D01*
X61720437Y-83991166D01*
X61723856Y-84014221D01*
X61725000Y-84037500D01*
X61725000Y-84612500D01*
X61723856Y-84635779D01*
X61720437Y-84658834D01*
X61714773Y-84681443D01*
X61706921Y-84703387D01*
X61696956Y-84724457D01*
X61684974Y-84744448D01*
X61671090Y-84763168D01*
X61655438Y-84780438D01*
X61638168Y-84796090D01*
X61619448Y-84809974D01*
X61599457Y-84821956D01*
X61578387Y-84831921D01*
X61556443Y-84839773D01*
X61533834Y-84845437D01*
X61510779Y-84848856D01*
X61487500Y-84850000D01*
X61012500Y-84850000D01*
X60989221Y-84848856D01*
X60966166Y-84845437D01*
X60943557Y-84839773D01*
X60921613Y-84831921D01*
X60900543Y-84821956D01*
X60880552Y-84809974D01*
X60861832Y-84796090D01*
X60844562Y-84780438D01*
X60828910Y-84763168D01*
X60815026Y-84744448D01*
X60803044Y-84724457D01*
X60793079Y-84703387D01*
X60785227Y-84681443D01*
X60779563Y-84658834D01*
X60776144Y-84635779D01*
X60775000Y-84612500D01*
X60775000Y-84037500D01*
X60776144Y-84014221D01*
X60779563Y-83991166D01*
X60785227Y-83968557D01*
X60793079Y-83946613D01*
X60803044Y-83925543D01*
X60815026Y-83905552D01*
X60828910Y-83886832D01*
X60844562Y-83869562D01*
X60861832Y-83853910D01*
X60880552Y-83840026D01*
X60900543Y-83828044D01*
X60921613Y-83818079D01*
X60943557Y-83810227D01*
X60966166Y-83804563D01*
X60989221Y-83801144D01*
X61012500Y-83800000D01*
X61487500Y-83800000D01*
X61510779Y-83801144D01*
G37*
G04 #@! TD.AperFunction*
G04 #@! TA.AperFunction,SMDPad,CuDef*
G36*
X67910779Y-68526144D02*
G01*
X67933834Y-68529563D01*
X67956443Y-68535227D01*
X67978387Y-68543079D01*
X67999457Y-68553044D01*
X68019448Y-68565026D01*
X68038168Y-68578910D01*
X68055438Y-68594562D01*
X68071090Y-68611832D01*
X68084974Y-68630552D01*
X68096956Y-68650543D01*
X68106921Y-68671613D01*
X68114773Y-68693557D01*
X68120437Y-68716166D01*
X68123856Y-68739221D01*
X68125000Y-68762500D01*
X68125000Y-69237500D01*
X68123856Y-69260779D01*
X68120437Y-69283834D01*
X68114773Y-69306443D01*
X68106921Y-69328387D01*
X68096956Y-69349457D01*
X68084974Y-69369448D01*
X68071090Y-69388168D01*
X68055438Y-69405438D01*
X68038168Y-69421090D01*
X68019448Y-69434974D01*
X67999457Y-69446956D01*
X67978387Y-69456921D01*
X67956443Y-69464773D01*
X67933834Y-69470437D01*
X67910779Y-69473856D01*
X67887500Y-69475000D01*
X67312500Y-69475000D01*
X67289221Y-69473856D01*
X67266166Y-69470437D01*
X67243557Y-69464773D01*
X67221613Y-69456921D01*
X67200543Y-69446956D01*
X67180552Y-69434974D01*
X67161832Y-69421090D01*
X67144562Y-69405438D01*
X67128910Y-69388168D01*
X67115026Y-69369448D01*
X67103044Y-69349457D01*
X67093079Y-69328387D01*
X67085227Y-69306443D01*
X67079563Y-69283834D01*
X67076144Y-69260779D01*
X67075000Y-69237500D01*
X67075000Y-68762500D01*
X67076144Y-68739221D01*
X67079563Y-68716166D01*
X67085227Y-68693557D01*
X67093079Y-68671613D01*
X67103044Y-68650543D01*
X67115026Y-68630552D01*
X67128910Y-68611832D01*
X67144562Y-68594562D01*
X67161832Y-68578910D01*
X67180552Y-68565026D01*
X67200543Y-68553044D01*
X67221613Y-68543079D01*
X67243557Y-68535227D01*
X67266166Y-68529563D01*
X67289221Y-68526144D01*
X67312500Y-68525000D01*
X67887500Y-68525000D01*
X67910779Y-68526144D01*
G37*
G04 #@! TD.AperFunction*
G04 #@! TA.AperFunction,SMDPad,CuDef*
G36*
X69660779Y-68526144D02*
G01*
X69683834Y-68529563D01*
X69706443Y-68535227D01*
X69728387Y-68543079D01*
X69749457Y-68553044D01*
X69769448Y-68565026D01*
X69788168Y-68578910D01*
X69805438Y-68594562D01*
X69821090Y-68611832D01*
X69834974Y-68630552D01*
X69846956Y-68650543D01*
X69856921Y-68671613D01*
X69864773Y-68693557D01*
X69870437Y-68716166D01*
X69873856Y-68739221D01*
X69875000Y-68762500D01*
X69875000Y-69237500D01*
X69873856Y-69260779D01*
X69870437Y-69283834D01*
X69864773Y-69306443D01*
X69856921Y-69328387D01*
X69846956Y-69349457D01*
X69834974Y-69369448D01*
X69821090Y-69388168D01*
X69805438Y-69405438D01*
X69788168Y-69421090D01*
X69769448Y-69434974D01*
X69749457Y-69446956D01*
X69728387Y-69456921D01*
X69706443Y-69464773D01*
X69683834Y-69470437D01*
X69660779Y-69473856D01*
X69637500Y-69475000D01*
X69062500Y-69475000D01*
X69039221Y-69473856D01*
X69016166Y-69470437D01*
X68993557Y-69464773D01*
X68971613Y-69456921D01*
X68950543Y-69446956D01*
X68930552Y-69434974D01*
X68911832Y-69421090D01*
X68894562Y-69405438D01*
X68878910Y-69388168D01*
X68865026Y-69369448D01*
X68853044Y-69349457D01*
X68843079Y-69328387D01*
X68835227Y-69306443D01*
X68829563Y-69283834D01*
X68826144Y-69260779D01*
X68825000Y-69237500D01*
X68825000Y-68762500D01*
X68826144Y-68739221D01*
X68829563Y-68716166D01*
X68835227Y-68693557D01*
X68843079Y-68671613D01*
X68853044Y-68650543D01*
X68865026Y-68630552D01*
X68878910Y-68611832D01*
X68894562Y-68594562D01*
X68911832Y-68578910D01*
X68930552Y-68565026D01*
X68950543Y-68553044D01*
X68971613Y-68543079D01*
X68993557Y-68535227D01*
X69016166Y-68529563D01*
X69039221Y-68526144D01*
X69062500Y-68525000D01*
X69637500Y-68525000D01*
X69660779Y-68526144D01*
G37*
G04 #@! TD.AperFunction*
G04 #@! TA.AperFunction,SMDPad,CuDef*
G36*
X67935779Y-63226144D02*
G01*
X67958834Y-63229563D01*
X67981443Y-63235227D01*
X68003387Y-63243079D01*
X68024457Y-63253044D01*
X68044448Y-63265026D01*
X68063168Y-63278910D01*
X68080438Y-63294562D01*
X68096090Y-63311832D01*
X68109974Y-63330552D01*
X68121956Y-63350543D01*
X68131921Y-63371613D01*
X68139773Y-63393557D01*
X68145437Y-63416166D01*
X68148856Y-63439221D01*
X68150000Y-63462500D01*
X68150000Y-63937500D01*
X68148856Y-63960779D01*
X68145437Y-63983834D01*
X68139773Y-64006443D01*
X68131921Y-64028387D01*
X68121956Y-64049457D01*
X68109974Y-64069448D01*
X68096090Y-64088168D01*
X68080438Y-64105438D01*
X68063168Y-64121090D01*
X68044448Y-64134974D01*
X68024457Y-64146956D01*
X68003387Y-64156921D01*
X67981443Y-64164773D01*
X67958834Y-64170437D01*
X67935779Y-64173856D01*
X67912500Y-64175000D01*
X67337500Y-64175000D01*
X67314221Y-64173856D01*
X67291166Y-64170437D01*
X67268557Y-64164773D01*
X67246613Y-64156921D01*
X67225543Y-64146956D01*
X67205552Y-64134974D01*
X67186832Y-64121090D01*
X67169562Y-64105438D01*
X67153910Y-64088168D01*
X67140026Y-64069448D01*
X67128044Y-64049457D01*
X67118079Y-64028387D01*
X67110227Y-64006443D01*
X67104563Y-63983834D01*
X67101144Y-63960779D01*
X67100000Y-63937500D01*
X67100000Y-63462500D01*
X67101144Y-63439221D01*
X67104563Y-63416166D01*
X67110227Y-63393557D01*
X67118079Y-63371613D01*
X67128044Y-63350543D01*
X67140026Y-63330552D01*
X67153910Y-63311832D01*
X67169562Y-63294562D01*
X67186832Y-63278910D01*
X67205552Y-63265026D01*
X67225543Y-63253044D01*
X67246613Y-63243079D01*
X67268557Y-63235227D01*
X67291166Y-63229563D01*
X67314221Y-63226144D01*
X67337500Y-63225000D01*
X67912500Y-63225000D01*
X67935779Y-63226144D01*
G37*
G04 #@! TD.AperFunction*
G04 #@! TA.AperFunction,SMDPad,CuDef*
G36*
X69685779Y-63226144D02*
G01*
X69708834Y-63229563D01*
X69731443Y-63235227D01*
X69753387Y-63243079D01*
X69774457Y-63253044D01*
X69794448Y-63265026D01*
X69813168Y-63278910D01*
X69830438Y-63294562D01*
X69846090Y-63311832D01*
X69859974Y-63330552D01*
X69871956Y-63350543D01*
X69881921Y-63371613D01*
X69889773Y-63393557D01*
X69895437Y-63416166D01*
X69898856Y-63439221D01*
X69900000Y-63462500D01*
X69900000Y-63937500D01*
X69898856Y-63960779D01*
X69895437Y-63983834D01*
X69889773Y-64006443D01*
X69881921Y-64028387D01*
X69871956Y-64049457D01*
X69859974Y-64069448D01*
X69846090Y-64088168D01*
X69830438Y-64105438D01*
X69813168Y-64121090D01*
X69794448Y-64134974D01*
X69774457Y-64146956D01*
X69753387Y-64156921D01*
X69731443Y-64164773D01*
X69708834Y-64170437D01*
X69685779Y-64173856D01*
X69662500Y-64175000D01*
X69087500Y-64175000D01*
X69064221Y-64173856D01*
X69041166Y-64170437D01*
X69018557Y-64164773D01*
X68996613Y-64156921D01*
X68975543Y-64146956D01*
X68955552Y-64134974D01*
X68936832Y-64121090D01*
X68919562Y-64105438D01*
X68903910Y-64088168D01*
X68890026Y-64069448D01*
X68878044Y-64049457D01*
X68868079Y-64028387D01*
X68860227Y-64006443D01*
X68854563Y-63983834D01*
X68851144Y-63960779D01*
X68850000Y-63937500D01*
X68850000Y-63462500D01*
X68851144Y-63439221D01*
X68854563Y-63416166D01*
X68860227Y-63393557D01*
X68868079Y-63371613D01*
X68878044Y-63350543D01*
X68890026Y-63330552D01*
X68903910Y-63311832D01*
X68919562Y-63294562D01*
X68936832Y-63278910D01*
X68955552Y-63265026D01*
X68975543Y-63253044D01*
X68996613Y-63243079D01*
X69018557Y-63235227D01*
X69041166Y-63229563D01*
X69064221Y-63226144D01*
X69087500Y-63225000D01*
X69662500Y-63225000D01*
X69685779Y-63226144D01*
G37*
G04 #@! TD.AperFunction*
D13*
X85725000Y-80250000D03*
D14*
X85400000Y-81150000D03*
X86050000Y-81150000D03*
X86700000Y-81150000D03*
X86700000Y-79350000D03*
X86050000Y-79350000D03*
X85400000Y-79350000D03*
D15*
X86700000Y-80250000D03*
D13*
X85725000Y-85350000D03*
D14*
X85400000Y-86250000D03*
X86050000Y-86250000D03*
X86700000Y-86250000D03*
X86700000Y-84450000D03*
X86050000Y-84450000D03*
X85400000Y-84450000D03*
D15*
X86700000Y-85350000D03*
G04 #@! TA.AperFunction,SMDPad,CuDef*
D12*
G36*
X94414703Y-85055722D02*
G01*
X94429264Y-85057882D01*
X94443543Y-85061459D01*
X94457403Y-85066418D01*
X94470710Y-85072712D01*
X94483336Y-85080280D01*
X94495159Y-85089048D01*
X94506066Y-85098934D01*
X94515952Y-85109841D01*
X94524720Y-85121664D01*
X94532288Y-85134290D01*
X94538582Y-85147597D01*
X94543541Y-85161457D01*
X94547118Y-85175736D01*
X94549278Y-85190297D01*
X94550000Y-85205000D01*
X94550000Y-85505000D01*
X94549278Y-85519703D01*
X94547118Y-85534264D01*
X94543541Y-85548543D01*
X94538582Y-85562403D01*
X94532288Y-85575710D01*
X94524720Y-85588336D01*
X94515952Y-85600159D01*
X94506066Y-85611066D01*
X94495159Y-85620952D01*
X94483336Y-85629720D01*
X94470710Y-85637288D01*
X94457403Y-85643582D01*
X94443543Y-85648541D01*
X94429264Y-85652118D01*
X94414703Y-85654278D01*
X94400000Y-85655000D01*
X92750000Y-85655000D01*
X92735297Y-85654278D01*
X92720736Y-85652118D01*
X92706457Y-85648541D01*
X92692597Y-85643582D01*
X92679290Y-85637288D01*
X92666664Y-85629720D01*
X92654841Y-85620952D01*
X92643934Y-85611066D01*
X92634048Y-85600159D01*
X92625280Y-85588336D01*
X92617712Y-85575710D01*
X92611418Y-85562403D01*
X92606459Y-85548543D01*
X92602882Y-85534264D01*
X92600722Y-85519703D01*
X92600000Y-85505000D01*
X92600000Y-85205000D01*
X92600722Y-85190297D01*
X92602882Y-85175736D01*
X92606459Y-85161457D01*
X92611418Y-85147597D01*
X92617712Y-85134290D01*
X92625280Y-85121664D01*
X92634048Y-85109841D01*
X92643934Y-85098934D01*
X92654841Y-85089048D01*
X92666664Y-85080280D01*
X92679290Y-85072712D01*
X92692597Y-85066418D01*
X92706457Y-85061459D01*
X92720736Y-85057882D01*
X92735297Y-85055722D01*
X92750000Y-85055000D01*
X94400000Y-85055000D01*
X94414703Y-85055722D01*
G37*
G04 #@! TD.AperFunction*
G04 #@! TA.AperFunction,SMDPad,CuDef*
G36*
X94414703Y-83785722D02*
G01*
X94429264Y-83787882D01*
X94443543Y-83791459D01*
X94457403Y-83796418D01*
X94470710Y-83802712D01*
X94483336Y-83810280D01*
X94495159Y-83819048D01*
X94506066Y-83828934D01*
X94515952Y-83839841D01*
X94524720Y-83851664D01*
X94532288Y-83864290D01*
X94538582Y-83877597D01*
X94543541Y-83891457D01*
X94547118Y-83905736D01*
X94549278Y-83920297D01*
X94550000Y-83935000D01*
X94550000Y-84235000D01*
X94549278Y-84249703D01*
X94547118Y-84264264D01*
X94543541Y-84278543D01*
X94538582Y-84292403D01*
X94532288Y-84305710D01*
X94524720Y-84318336D01*
X94515952Y-84330159D01*
X94506066Y-84341066D01*
X94495159Y-84350952D01*
X94483336Y-84359720D01*
X94470710Y-84367288D01*
X94457403Y-84373582D01*
X94443543Y-84378541D01*
X94429264Y-84382118D01*
X94414703Y-84384278D01*
X94400000Y-84385000D01*
X92750000Y-84385000D01*
X92735297Y-84384278D01*
X92720736Y-84382118D01*
X92706457Y-84378541D01*
X92692597Y-84373582D01*
X92679290Y-84367288D01*
X92666664Y-84359720D01*
X92654841Y-84350952D01*
X92643934Y-84341066D01*
X92634048Y-84330159D01*
X92625280Y-84318336D01*
X92617712Y-84305710D01*
X92611418Y-84292403D01*
X92606459Y-84278543D01*
X92602882Y-84264264D01*
X92600722Y-84249703D01*
X92600000Y-84235000D01*
X92600000Y-83935000D01*
X92600722Y-83920297D01*
X92602882Y-83905736D01*
X92606459Y-83891457D01*
X92611418Y-83877597D01*
X92617712Y-83864290D01*
X92625280Y-83851664D01*
X92634048Y-83839841D01*
X92643934Y-83828934D01*
X92654841Y-83819048D01*
X92666664Y-83810280D01*
X92679290Y-83802712D01*
X92692597Y-83796418D01*
X92706457Y-83791459D01*
X92720736Y-83787882D01*
X92735297Y-83785722D01*
X92750000Y-83785000D01*
X94400000Y-83785000D01*
X94414703Y-83785722D01*
G37*
G04 #@! TD.AperFunction*
G04 #@! TA.AperFunction,SMDPad,CuDef*
G36*
X94414703Y-82515722D02*
G01*
X94429264Y-82517882D01*
X94443543Y-82521459D01*
X94457403Y-82526418D01*
X94470710Y-82532712D01*
X94483336Y-82540280D01*
X94495159Y-82549048D01*
X94506066Y-82558934D01*
X94515952Y-82569841D01*
X94524720Y-82581664D01*
X94532288Y-82594290D01*
X94538582Y-82607597D01*
X94543541Y-82621457D01*
X94547118Y-82635736D01*
X94549278Y-82650297D01*
X94550000Y-82665000D01*
X94550000Y-82965000D01*
X94549278Y-82979703D01*
X94547118Y-82994264D01*
X94543541Y-83008543D01*
X94538582Y-83022403D01*
X94532288Y-83035710D01*
X94524720Y-83048336D01*
X94515952Y-83060159D01*
X94506066Y-83071066D01*
X94495159Y-83080952D01*
X94483336Y-83089720D01*
X94470710Y-83097288D01*
X94457403Y-83103582D01*
X94443543Y-83108541D01*
X94429264Y-83112118D01*
X94414703Y-83114278D01*
X94400000Y-83115000D01*
X92750000Y-83115000D01*
X92735297Y-83114278D01*
X92720736Y-83112118D01*
X92706457Y-83108541D01*
X92692597Y-83103582D01*
X92679290Y-83097288D01*
X92666664Y-83089720D01*
X92654841Y-83080952D01*
X92643934Y-83071066D01*
X92634048Y-83060159D01*
X92625280Y-83048336D01*
X92617712Y-83035710D01*
X92611418Y-83022403D01*
X92606459Y-83008543D01*
X92602882Y-82994264D01*
X92600722Y-82979703D01*
X92600000Y-82965000D01*
X92600000Y-82665000D01*
X92600722Y-82650297D01*
X92602882Y-82635736D01*
X92606459Y-82621457D01*
X92611418Y-82607597D01*
X92617712Y-82594290D01*
X92625280Y-82581664D01*
X92634048Y-82569841D01*
X92643934Y-82558934D01*
X92654841Y-82549048D01*
X92666664Y-82540280D01*
X92679290Y-82532712D01*
X92692597Y-82526418D01*
X92706457Y-82521459D01*
X92720736Y-82517882D01*
X92735297Y-82515722D01*
X92750000Y-82515000D01*
X94400000Y-82515000D01*
X94414703Y-82515722D01*
G37*
G04 #@! TD.AperFunction*
G04 #@! TA.AperFunction,SMDPad,CuDef*
G36*
X94414703Y-81245722D02*
G01*
X94429264Y-81247882D01*
X94443543Y-81251459D01*
X94457403Y-81256418D01*
X94470710Y-81262712D01*
X94483336Y-81270280D01*
X94495159Y-81279048D01*
X94506066Y-81288934D01*
X94515952Y-81299841D01*
X94524720Y-81311664D01*
X94532288Y-81324290D01*
X94538582Y-81337597D01*
X94543541Y-81351457D01*
X94547118Y-81365736D01*
X94549278Y-81380297D01*
X94550000Y-81395000D01*
X94550000Y-81695000D01*
X94549278Y-81709703D01*
X94547118Y-81724264D01*
X94543541Y-81738543D01*
X94538582Y-81752403D01*
X94532288Y-81765710D01*
X94524720Y-81778336D01*
X94515952Y-81790159D01*
X94506066Y-81801066D01*
X94495159Y-81810952D01*
X94483336Y-81819720D01*
X94470710Y-81827288D01*
X94457403Y-81833582D01*
X94443543Y-81838541D01*
X94429264Y-81842118D01*
X94414703Y-81844278D01*
X94400000Y-81845000D01*
X92750000Y-81845000D01*
X92735297Y-81844278D01*
X92720736Y-81842118D01*
X92706457Y-81838541D01*
X92692597Y-81833582D01*
X92679290Y-81827288D01*
X92666664Y-81819720D01*
X92654841Y-81810952D01*
X92643934Y-81801066D01*
X92634048Y-81790159D01*
X92625280Y-81778336D01*
X92617712Y-81765710D01*
X92611418Y-81752403D01*
X92606459Y-81738543D01*
X92602882Y-81724264D01*
X92600722Y-81709703D01*
X92600000Y-81695000D01*
X92600000Y-81395000D01*
X92600722Y-81380297D01*
X92602882Y-81365736D01*
X92606459Y-81351457D01*
X92611418Y-81337597D01*
X92617712Y-81324290D01*
X92625280Y-81311664D01*
X92634048Y-81299841D01*
X92643934Y-81288934D01*
X92654841Y-81279048D01*
X92666664Y-81270280D01*
X92679290Y-81262712D01*
X92692597Y-81256418D01*
X92706457Y-81251459D01*
X92720736Y-81247882D01*
X92735297Y-81245722D01*
X92750000Y-81245000D01*
X94400000Y-81245000D01*
X94414703Y-81245722D01*
G37*
G04 #@! TD.AperFunction*
G04 #@! TA.AperFunction,SMDPad,CuDef*
G36*
X99364703Y-81245722D02*
G01*
X99379264Y-81247882D01*
X99393543Y-81251459D01*
X99407403Y-81256418D01*
X99420710Y-81262712D01*
X99433336Y-81270280D01*
X99445159Y-81279048D01*
X99456066Y-81288934D01*
X99465952Y-81299841D01*
X99474720Y-81311664D01*
X99482288Y-81324290D01*
X99488582Y-81337597D01*
X99493541Y-81351457D01*
X99497118Y-81365736D01*
X99499278Y-81380297D01*
X99500000Y-81395000D01*
X99500000Y-81695000D01*
X99499278Y-81709703D01*
X99497118Y-81724264D01*
X99493541Y-81738543D01*
X99488582Y-81752403D01*
X99482288Y-81765710D01*
X99474720Y-81778336D01*
X99465952Y-81790159D01*
X99456066Y-81801066D01*
X99445159Y-81810952D01*
X99433336Y-81819720D01*
X99420710Y-81827288D01*
X99407403Y-81833582D01*
X99393543Y-81838541D01*
X99379264Y-81842118D01*
X99364703Y-81844278D01*
X99350000Y-81845000D01*
X97700000Y-81845000D01*
X97685297Y-81844278D01*
X97670736Y-81842118D01*
X97656457Y-81838541D01*
X97642597Y-81833582D01*
X97629290Y-81827288D01*
X97616664Y-81819720D01*
X97604841Y-81810952D01*
X97593934Y-81801066D01*
X97584048Y-81790159D01*
X97575280Y-81778336D01*
X97567712Y-81765710D01*
X97561418Y-81752403D01*
X97556459Y-81738543D01*
X97552882Y-81724264D01*
X97550722Y-81709703D01*
X97550000Y-81695000D01*
X97550000Y-81395000D01*
X97550722Y-81380297D01*
X97552882Y-81365736D01*
X97556459Y-81351457D01*
X97561418Y-81337597D01*
X97567712Y-81324290D01*
X97575280Y-81311664D01*
X97584048Y-81299841D01*
X97593934Y-81288934D01*
X97604841Y-81279048D01*
X97616664Y-81270280D01*
X97629290Y-81262712D01*
X97642597Y-81256418D01*
X97656457Y-81251459D01*
X97670736Y-81247882D01*
X97685297Y-81245722D01*
X97700000Y-81245000D01*
X99350000Y-81245000D01*
X99364703Y-81245722D01*
G37*
G04 #@! TD.AperFunction*
G04 #@! TA.AperFunction,SMDPad,CuDef*
G36*
X99364703Y-82515722D02*
G01*
X99379264Y-82517882D01*
X99393543Y-82521459D01*
X99407403Y-82526418D01*
X99420710Y-82532712D01*
X99433336Y-82540280D01*
X99445159Y-82549048D01*
X99456066Y-82558934D01*
X99465952Y-82569841D01*
X99474720Y-82581664D01*
X99482288Y-82594290D01*
X99488582Y-82607597D01*
X99493541Y-82621457D01*
X99497118Y-82635736D01*
X99499278Y-82650297D01*
X99500000Y-82665000D01*
X99500000Y-82965000D01*
X99499278Y-82979703D01*
X99497118Y-82994264D01*
X99493541Y-83008543D01*
X99488582Y-83022403D01*
X99482288Y-83035710D01*
X99474720Y-83048336D01*
X99465952Y-83060159D01*
X99456066Y-83071066D01*
X99445159Y-83080952D01*
X99433336Y-83089720D01*
X99420710Y-83097288D01*
X99407403Y-83103582D01*
X99393543Y-83108541D01*
X99379264Y-83112118D01*
X99364703Y-83114278D01*
X99350000Y-83115000D01*
X97700000Y-83115000D01*
X97685297Y-83114278D01*
X97670736Y-83112118D01*
X97656457Y-83108541D01*
X97642597Y-83103582D01*
X97629290Y-83097288D01*
X97616664Y-83089720D01*
X97604841Y-83080952D01*
X97593934Y-83071066D01*
X97584048Y-83060159D01*
X97575280Y-83048336D01*
X97567712Y-83035710D01*
X97561418Y-83022403D01*
X97556459Y-83008543D01*
X97552882Y-82994264D01*
X97550722Y-82979703D01*
X97550000Y-82965000D01*
X97550000Y-82665000D01*
X97550722Y-82650297D01*
X97552882Y-82635736D01*
X97556459Y-82621457D01*
X97561418Y-82607597D01*
X97567712Y-82594290D01*
X97575280Y-82581664D01*
X97584048Y-82569841D01*
X97593934Y-82558934D01*
X97604841Y-82549048D01*
X97616664Y-82540280D01*
X97629290Y-82532712D01*
X97642597Y-82526418D01*
X97656457Y-82521459D01*
X97670736Y-82517882D01*
X97685297Y-82515722D01*
X97700000Y-82515000D01*
X99350000Y-82515000D01*
X99364703Y-82515722D01*
G37*
G04 #@! TD.AperFunction*
G04 #@! TA.AperFunction,SMDPad,CuDef*
G36*
X99364703Y-83785722D02*
G01*
X99379264Y-83787882D01*
X99393543Y-83791459D01*
X99407403Y-83796418D01*
X99420710Y-83802712D01*
X99433336Y-83810280D01*
X99445159Y-83819048D01*
X99456066Y-83828934D01*
X99465952Y-83839841D01*
X99474720Y-83851664D01*
X99482288Y-83864290D01*
X99488582Y-83877597D01*
X99493541Y-83891457D01*
X99497118Y-83905736D01*
X99499278Y-83920297D01*
X99500000Y-83935000D01*
X99500000Y-84235000D01*
X99499278Y-84249703D01*
X99497118Y-84264264D01*
X99493541Y-84278543D01*
X99488582Y-84292403D01*
X99482288Y-84305710D01*
X99474720Y-84318336D01*
X99465952Y-84330159D01*
X99456066Y-84341066D01*
X99445159Y-84350952D01*
X99433336Y-84359720D01*
X99420710Y-84367288D01*
X99407403Y-84373582D01*
X99393543Y-84378541D01*
X99379264Y-84382118D01*
X99364703Y-84384278D01*
X99350000Y-84385000D01*
X97700000Y-84385000D01*
X97685297Y-84384278D01*
X97670736Y-84382118D01*
X97656457Y-84378541D01*
X97642597Y-84373582D01*
X97629290Y-84367288D01*
X97616664Y-84359720D01*
X97604841Y-84350952D01*
X97593934Y-84341066D01*
X97584048Y-84330159D01*
X97575280Y-84318336D01*
X97567712Y-84305710D01*
X97561418Y-84292403D01*
X97556459Y-84278543D01*
X97552882Y-84264264D01*
X97550722Y-84249703D01*
X97550000Y-84235000D01*
X97550000Y-83935000D01*
X97550722Y-83920297D01*
X97552882Y-83905736D01*
X97556459Y-83891457D01*
X97561418Y-83877597D01*
X97567712Y-83864290D01*
X97575280Y-83851664D01*
X97584048Y-83839841D01*
X97593934Y-83828934D01*
X97604841Y-83819048D01*
X97616664Y-83810280D01*
X97629290Y-83802712D01*
X97642597Y-83796418D01*
X97656457Y-83791459D01*
X97670736Y-83787882D01*
X97685297Y-83785722D01*
X97700000Y-83785000D01*
X99350000Y-83785000D01*
X99364703Y-83785722D01*
G37*
G04 #@! TD.AperFunction*
G04 #@! TA.AperFunction,SMDPad,CuDef*
G36*
X99364703Y-85055722D02*
G01*
X99379264Y-85057882D01*
X99393543Y-85061459D01*
X99407403Y-85066418D01*
X99420710Y-85072712D01*
X99433336Y-85080280D01*
X99445159Y-85089048D01*
X99456066Y-85098934D01*
X99465952Y-85109841D01*
X99474720Y-85121664D01*
X99482288Y-85134290D01*
X99488582Y-85147597D01*
X99493541Y-85161457D01*
X99497118Y-85175736D01*
X99499278Y-85190297D01*
X99500000Y-85205000D01*
X99500000Y-85505000D01*
X99499278Y-85519703D01*
X99497118Y-85534264D01*
X99493541Y-85548543D01*
X99488582Y-85562403D01*
X99482288Y-85575710D01*
X99474720Y-85588336D01*
X99465952Y-85600159D01*
X99456066Y-85611066D01*
X99445159Y-85620952D01*
X99433336Y-85629720D01*
X99420710Y-85637288D01*
X99407403Y-85643582D01*
X99393543Y-85648541D01*
X99379264Y-85652118D01*
X99364703Y-85654278D01*
X99350000Y-85655000D01*
X97700000Y-85655000D01*
X97685297Y-85654278D01*
X97670736Y-85652118D01*
X97656457Y-85648541D01*
X97642597Y-85643582D01*
X97629290Y-85637288D01*
X97616664Y-85629720D01*
X97604841Y-85620952D01*
X97593934Y-85611066D01*
X97584048Y-85600159D01*
X97575280Y-85588336D01*
X97567712Y-85575710D01*
X97561418Y-85562403D01*
X97556459Y-85548543D01*
X97552882Y-85534264D01*
X97550722Y-85519703D01*
X97550000Y-85505000D01*
X97550000Y-85205000D01*
X97550722Y-85190297D01*
X97552882Y-85175736D01*
X97556459Y-85161457D01*
X97561418Y-85147597D01*
X97567712Y-85134290D01*
X97575280Y-85121664D01*
X97584048Y-85109841D01*
X97593934Y-85098934D01*
X97604841Y-85089048D01*
X97616664Y-85080280D01*
X97629290Y-85072712D01*
X97642597Y-85066418D01*
X97656457Y-85061459D01*
X97670736Y-85057882D01*
X97685297Y-85055722D01*
X97700000Y-85055000D01*
X99350000Y-85055000D01*
X99364703Y-85055722D01*
G37*
G04 #@! TD.AperFunction*
G04 #@! TA.AperFunction,SMDPad,CuDef*
G36*
X96969505Y-81951204D02*
G01*
X96993773Y-81954804D01*
X97017572Y-81960765D01*
X97040671Y-81969030D01*
X97062850Y-81979520D01*
X97083893Y-81992132D01*
X97103599Y-82006747D01*
X97121777Y-82023223D01*
X97138253Y-82041401D01*
X97152868Y-82061107D01*
X97165480Y-82082150D01*
X97175970Y-82104329D01*
X97184235Y-82127428D01*
X97190196Y-82151227D01*
X97193796Y-82175495D01*
X97195000Y-82199999D01*
X97195000Y-84700001D01*
X97193796Y-84724505D01*
X97190196Y-84748773D01*
X97184235Y-84772572D01*
X97175970Y-84795671D01*
X97165480Y-84817850D01*
X97152868Y-84838893D01*
X97138253Y-84858599D01*
X97121777Y-84876777D01*
X97103599Y-84893253D01*
X97083893Y-84907868D01*
X97062850Y-84920480D01*
X97040671Y-84930970D01*
X97017572Y-84939235D01*
X96993773Y-84945196D01*
X96969505Y-84948796D01*
X96945001Y-84950000D01*
X95154999Y-84950000D01*
X95130495Y-84948796D01*
X95106227Y-84945196D01*
X95082428Y-84939235D01*
X95059329Y-84930970D01*
X95037150Y-84920480D01*
X95016107Y-84907868D01*
X94996401Y-84893253D01*
X94978223Y-84876777D01*
X94961747Y-84858599D01*
X94947132Y-84838893D01*
X94934520Y-84817850D01*
X94924030Y-84795671D01*
X94915765Y-84772572D01*
X94909804Y-84748773D01*
X94906204Y-84724505D01*
X94905000Y-84700001D01*
X94905000Y-82199999D01*
X94906204Y-82175495D01*
X94909804Y-82151227D01*
X94915765Y-82127428D01*
X94924030Y-82104329D01*
X94934520Y-82082150D01*
X94947132Y-82061107D01*
X94961747Y-82041401D01*
X94978223Y-82023223D01*
X94996401Y-82006747D01*
X95016107Y-81992132D01*
X95037150Y-81979520D01*
X95059329Y-81969030D01*
X95082428Y-81960765D01*
X95106227Y-81954804D01*
X95130495Y-81951204D01*
X95154999Y-81950000D01*
X96945001Y-81950000D01*
X96969505Y-81951204D01*
G37*
G04 #@! TD.AperFunction*
D13*
X65075000Y-80250000D03*
D14*
X64750000Y-81150000D03*
X65400000Y-81150000D03*
X66050000Y-81150000D03*
X66050000Y-79350000D03*
X65400000Y-79350000D03*
X64750000Y-79350000D03*
D15*
X66050000Y-80250000D03*
D16*
X76710000Y-66610000D03*
D17*
X75960000Y-65060000D03*
X76460000Y-65060000D03*
X76960000Y-65060000D03*
X77460000Y-65060000D03*
D18*
X77960000Y-65360000D03*
D19*
X78260000Y-65860000D03*
X78260000Y-66360000D03*
X78260000Y-66860000D03*
X78260000Y-67360000D03*
D18*
X77960000Y-67860000D03*
D17*
X77460000Y-68160000D03*
X76960000Y-68160000D03*
X76460000Y-68160000D03*
X75960000Y-68160000D03*
D18*
X75460000Y-67860000D03*
D19*
X75160000Y-67360000D03*
X75160000Y-66860000D03*
X75160000Y-66360000D03*
X75160000Y-65860000D03*
D18*
X75460000Y-65360000D03*
D13*
X65000000Y-85350000D03*
D14*
X64675000Y-86250000D03*
X65325000Y-86250000D03*
X65975000Y-86250000D03*
X65975000Y-84450000D03*
X65325000Y-84450000D03*
X64675000Y-84450000D03*
D15*
X65975000Y-85350000D03*
G04 #@! TA.AperFunction,SMDPad,CuDef*
D12*
G36*
X73514703Y-85055722D02*
G01*
X73529264Y-85057882D01*
X73543543Y-85061459D01*
X73557403Y-85066418D01*
X73570710Y-85072712D01*
X73583336Y-85080280D01*
X73595159Y-85089048D01*
X73606066Y-85098934D01*
X73615952Y-85109841D01*
X73624720Y-85121664D01*
X73632288Y-85134290D01*
X73638582Y-85147597D01*
X73643541Y-85161457D01*
X73647118Y-85175736D01*
X73649278Y-85190297D01*
X73650000Y-85205000D01*
X73650000Y-85505000D01*
X73649278Y-85519703D01*
X73647118Y-85534264D01*
X73643541Y-85548543D01*
X73638582Y-85562403D01*
X73632288Y-85575710D01*
X73624720Y-85588336D01*
X73615952Y-85600159D01*
X73606066Y-85611066D01*
X73595159Y-85620952D01*
X73583336Y-85629720D01*
X73570710Y-85637288D01*
X73557403Y-85643582D01*
X73543543Y-85648541D01*
X73529264Y-85652118D01*
X73514703Y-85654278D01*
X73500000Y-85655000D01*
X71850000Y-85655000D01*
X71835297Y-85654278D01*
X71820736Y-85652118D01*
X71806457Y-85648541D01*
X71792597Y-85643582D01*
X71779290Y-85637288D01*
X71766664Y-85629720D01*
X71754841Y-85620952D01*
X71743934Y-85611066D01*
X71734048Y-85600159D01*
X71725280Y-85588336D01*
X71717712Y-85575710D01*
X71711418Y-85562403D01*
X71706459Y-85548543D01*
X71702882Y-85534264D01*
X71700722Y-85519703D01*
X71700000Y-85505000D01*
X71700000Y-85205000D01*
X71700722Y-85190297D01*
X71702882Y-85175736D01*
X71706459Y-85161457D01*
X71711418Y-85147597D01*
X71717712Y-85134290D01*
X71725280Y-85121664D01*
X71734048Y-85109841D01*
X71743934Y-85098934D01*
X71754841Y-85089048D01*
X71766664Y-85080280D01*
X71779290Y-85072712D01*
X71792597Y-85066418D01*
X71806457Y-85061459D01*
X71820736Y-85057882D01*
X71835297Y-85055722D01*
X71850000Y-85055000D01*
X73500000Y-85055000D01*
X73514703Y-85055722D01*
G37*
G04 #@! TD.AperFunction*
G04 #@! TA.AperFunction,SMDPad,CuDef*
G36*
X73514703Y-83785722D02*
G01*
X73529264Y-83787882D01*
X73543543Y-83791459D01*
X73557403Y-83796418D01*
X73570710Y-83802712D01*
X73583336Y-83810280D01*
X73595159Y-83819048D01*
X73606066Y-83828934D01*
X73615952Y-83839841D01*
X73624720Y-83851664D01*
X73632288Y-83864290D01*
X73638582Y-83877597D01*
X73643541Y-83891457D01*
X73647118Y-83905736D01*
X73649278Y-83920297D01*
X73650000Y-83935000D01*
X73650000Y-84235000D01*
X73649278Y-84249703D01*
X73647118Y-84264264D01*
X73643541Y-84278543D01*
X73638582Y-84292403D01*
X73632288Y-84305710D01*
X73624720Y-84318336D01*
X73615952Y-84330159D01*
X73606066Y-84341066D01*
X73595159Y-84350952D01*
X73583336Y-84359720D01*
X73570710Y-84367288D01*
X73557403Y-84373582D01*
X73543543Y-84378541D01*
X73529264Y-84382118D01*
X73514703Y-84384278D01*
X73500000Y-84385000D01*
X71850000Y-84385000D01*
X71835297Y-84384278D01*
X71820736Y-84382118D01*
X71806457Y-84378541D01*
X71792597Y-84373582D01*
X71779290Y-84367288D01*
X71766664Y-84359720D01*
X71754841Y-84350952D01*
X71743934Y-84341066D01*
X71734048Y-84330159D01*
X71725280Y-84318336D01*
X71717712Y-84305710D01*
X71711418Y-84292403D01*
X71706459Y-84278543D01*
X71702882Y-84264264D01*
X71700722Y-84249703D01*
X71700000Y-84235000D01*
X71700000Y-83935000D01*
X71700722Y-83920297D01*
X71702882Y-83905736D01*
X71706459Y-83891457D01*
X71711418Y-83877597D01*
X71717712Y-83864290D01*
X71725280Y-83851664D01*
X71734048Y-83839841D01*
X71743934Y-83828934D01*
X71754841Y-83819048D01*
X71766664Y-83810280D01*
X71779290Y-83802712D01*
X71792597Y-83796418D01*
X71806457Y-83791459D01*
X71820736Y-83787882D01*
X71835297Y-83785722D01*
X71850000Y-83785000D01*
X73500000Y-83785000D01*
X73514703Y-83785722D01*
G37*
G04 #@! TD.AperFunction*
G04 #@! TA.AperFunction,SMDPad,CuDef*
G36*
X73514703Y-82515722D02*
G01*
X73529264Y-82517882D01*
X73543543Y-82521459D01*
X73557403Y-82526418D01*
X73570710Y-82532712D01*
X73583336Y-82540280D01*
X73595159Y-82549048D01*
X73606066Y-82558934D01*
X73615952Y-82569841D01*
X73624720Y-82581664D01*
X73632288Y-82594290D01*
X73638582Y-82607597D01*
X73643541Y-82621457D01*
X73647118Y-82635736D01*
X73649278Y-82650297D01*
X73650000Y-82665000D01*
X73650000Y-82965000D01*
X73649278Y-82979703D01*
X73647118Y-82994264D01*
X73643541Y-83008543D01*
X73638582Y-83022403D01*
X73632288Y-83035710D01*
X73624720Y-83048336D01*
X73615952Y-83060159D01*
X73606066Y-83071066D01*
X73595159Y-83080952D01*
X73583336Y-83089720D01*
X73570710Y-83097288D01*
X73557403Y-83103582D01*
X73543543Y-83108541D01*
X73529264Y-83112118D01*
X73514703Y-83114278D01*
X73500000Y-83115000D01*
X71850000Y-83115000D01*
X71835297Y-83114278D01*
X71820736Y-83112118D01*
X71806457Y-83108541D01*
X71792597Y-83103582D01*
X71779290Y-83097288D01*
X71766664Y-83089720D01*
X71754841Y-83080952D01*
X71743934Y-83071066D01*
X71734048Y-83060159D01*
X71725280Y-83048336D01*
X71717712Y-83035710D01*
X71711418Y-83022403D01*
X71706459Y-83008543D01*
X71702882Y-82994264D01*
X71700722Y-82979703D01*
X71700000Y-82965000D01*
X71700000Y-82665000D01*
X71700722Y-82650297D01*
X71702882Y-82635736D01*
X71706459Y-82621457D01*
X71711418Y-82607597D01*
X71717712Y-82594290D01*
X71725280Y-82581664D01*
X71734048Y-82569841D01*
X71743934Y-82558934D01*
X71754841Y-82549048D01*
X71766664Y-82540280D01*
X71779290Y-82532712D01*
X71792597Y-82526418D01*
X71806457Y-82521459D01*
X71820736Y-82517882D01*
X71835297Y-82515722D01*
X71850000Y-82515000D01*
X73500000Y-82515000D01*
X73514703Y-82515722D01*
G37*
G04 #@! TD.AperFunction*
G04 #@! TA.AperFunction,SMDPad,CuDef*
G36*
X73514703Y-81245722D02*
G01*
X73529264Y-81247882D01*
X73543543Y-81251459D01*
X73557403Y-81256418D01*
X73570710Y-81262712D01*
X73583336Y-81270280D01*
X73595159Y-81279048D01*
X73606066Y-81288934D01*
X73615952Y-81299841D01*
X73624720Y-81311664D01*
X73632288Y-81324290D01*
X73638582Y-81337597D01*
X73643541Y-81351457D01*
X73647118Y-81365736D01*
X73649278Y-81380297D01*
X73650000Y-81395000D01*
X73650000Y-81695000D01*
X73649278Y-81709703D01*
X73647118Y-81724264D01*
X73643541Y-81738543D01*
X73638582Y-81752403D01*
X73632288Y-81765710D01*
X73624720Y-81778336D01*
X73615952Y-81790159D01*
X73606066Y-81801066D01*
X73595159Y-81810952D01*
X73583336Y-81819720D01*
X73570710Y-81827288D01*
X73557403Y-81833582D01*
X73543543Y-81838541D01*
X73529264Y-81842118D01*
X73514703Y-81844278D01*
X73500000Y-81845000D01*
X71850000Y-81845000D01*
X71835297Y-81844278D01*
X71820736Y-81842118D01*
X71806457Y-81838541D01*
X71792597Y-81833582D01*
X71779290Y-81827288D01*
X71766664Y-81819720D01*
X71754841Y-81810952D01*
X71743934Y-81801066D01*
X71734048Y-81790159D01*
X71725280Y-81778336D01*
X71717712Y-81765710D01*
X71711418Y-81752403D01*
X71706459Y-81738543D01*
X71702882Y-81724264D01*
X71700722Y-81709703D01*
X71700000Y-81695000D01*
X71700000Y-81395000D01*
X71700722Y-81380297D01*
X71702882Y-81365736D01*
X71706459Y-81351457D01*
X71711418Y-81337597D01*
X71717712Y-81324290D01*
X71725280Y-81311664D01*
X71734048Y-81299841D01*
X71743934Y-81288934D01*
X71754841Y-81279048D01*
X71766664Y-81270280D01*
X71779290Y-81262712D01*
X71792597Y-81256418D01*
X71806457Y-81251459D01*
X71820736Y-81247882D01*
X71835297Y-81245722D01*
X71850000Y-81245000D01*
X73500000Y-81245000D01*
X73514703Y-81245722D01*
G37*
G04 #@! TD.AperFunction*
G04 #@! TA.AperFunction,SMDPad,CuDef*
G36*
X78464703Y-81245722D02*
G01*
X78479264Y-81247882D01*
X78493543Y-81251459D01*
X78507403Y-81256418D01*
X78520710Y-81262712D01*
X78533336Y-81270280D01*
X78545159Y-81279048D01*
X78556066Y-81288934D01*
X78565952Y-81299841D01*
X78574720Y-81311664D01*
X78582288Y-81324290D01*
X78588582Y-81337597D01*
X78593541Y-81351457D01*
X78597118Y-81365736D01*
X78599278Y-81380297D01*
X78600000Y-81395000D01*
X78600000Y-81695000D01*
X78599278Y-81709703D01*
X78597118Y-81724264D01*
X78593541Y-81738543D01*
X78588582Y-81752403D01*
X78582288Y-81765710D01*
X78574720Y-81778336D01*
X78565952Y-81790159D01*
X78556066Y-81801066D01*
X78545159Y-81810952D01*
X78533336Y-81819720D01*
X78520710Y-81827288D01*
X78507403Y-81833582D01*
X78493543Y-81838541D01*
X78479264Y-81842118D01*
X78464703Y-81844278D01*
X78450000Y-81845000D01*
X76800000Y-81845000D01*
X76785297Y-81844278D01*
X76770736Y-81842118D01*
X76756457Y-81838541D01*
X76742597Y-81833582D01*
X76729290Y-81827288D01*
X76716664Y-81819720D01*
X76704841Y-81810952D01*
X76693934Y-81801066D01*
X76684048Y-81790159D01*
X76675280Y-81778336D01*
X76667712Y-81765710D01*
X76661418Y-81752403D01*
X76656459Y-81738543D01*
X76652882Y-81724264D01*
X76650722Y-81709703D01*
X76650000Y-81695000D01*
X76650000Y-81395000D01*
X76650722Y-81380297D01*
X76652882Y-81365736D01*
X76656459Y-81351457D01*
X76661418Y-81337597D01*
X76667712Y-81324290D01*
X76675280Y-81311664D01*
X76684048Y-81299841D01*
X76693934Y-81288934D01*
X76704841Y-81279048D01*
X76716664Y-81270280D01*
X76729290Y-81262712D01*
X76742597Y-81256418D01*
X76756457Y-81251459D01*
X76770736Y-81247882D01*
X76785297Y-81245722D01*
X76800000Y-81245000D01*
X78450000Y-81245000D01*
X78464703Y-81245722D01*
G37*
G04 #@! TD.AperFunction*
G04 #@! TA.AperFunction,SMDPad,CuDef*
G36*
X78464703Y-82515722D02*
G01*
X78479264Y-82517882D01*
X78493543Y-82521459D01*
X78507403Y-82526418D01*
X78520710Y-82532712D01*
X78533336Y-82540280D01*
X78545159Y-82549048D01*
X78556066Y-82558934D01*
X78565952Y-82569841D01*
X78574720Y-82581664D01*
X78582288Y-82594290D01*
X78588582Y-82607597D01*
X78593541Y-82621457D01*
X78597118Y-82635736D01*
X78599278Y-82650297D01*
X78600000Y-82665000D01*
X78600000Y-82965000D01*
X78599278Y-82979703D01*
X78597118Y-82994264D01*
X78593541Y-83008543D01*
X78588582Y-83022403D01*
X78582288Y-83035710D01*
X78574720Y-83048336D01*
X78565952Y-83060159D01*
X78556066Y-83071066D01*
X78545159Y-83080952D01*
X78533336Y-83089720D01*
X78520710Y-83097288D01*
X78507403Y-83103582D01*
X78493543Y-83108541D01*
X78479264Y-83112118D01*
X78464703Y-83114278D01*
X78450000Y-83115000D01*
X76800000Y-83115000D01*
X76785297Y-83114278D01*
X76770736Y-83112118D01*
X76756457Y-83108541D01*
X76742597Y-83103582D01*
X76729290Y-83097288D01*
X76716664Y-83089720D01*
X76704841Y-83080952D01*
X76693934Y-83071066D01*
X76684048Y-83060159D01*
X76675280Y-83048336D01*
X76667712Y-83035710D01*
X76661418Y-83022403D01*
X76656459Y-83008543D01*
X76652882Y-82994264D01*
X76650722Y-82979703D01*
X76650000Y-82965000D01*
X76650000Y-82665000D01*
X76650722Y-82650297D01*
X76652882Y-82635736D01*
X76656459Y-82621457D01*
X76661418Y-82607597D01*
X76667712Y-82594290D01*
X76675280Y-82581664D01*
X76684048Y-82569841D01*
X76693934Y-82558934D01*
X76704841Y-82549048D01*
X76716664Y-82540280D01*
X76729290Y-82532712D01*
X76742597Y-82526418D01*
X76756457Y-82521459D01*
X76770736Y-82517882D01*
X76785297Y-82515722D01*
X76800000Y-82515000D01*
X78450000Y-82515000D01*
X78464703Y-82515722D01*
G37*
G04 #@! TD.AperFunction*
G04 #@! TA.AperFunction,SMDPad,CuDef*
G36*
X78464703Y-83785722D02*
G01*
X78479264Y-83787882D01*
X78493543Y-83791459D01*
X78507403Y-83796418D01*
X78520710Y-83802712D01*
X78533336Y-83810280D01*
X78545159Y-83819048D01*
X78556066Y-83828934D01*
X78565952Y-83839841D01*
X78574720Y-83851664D01*
X78582288Y-83864290D01*
X78588582Y-83877597D01*
X78593541Y-83891457D01*
X78597118Y-83905736D01*
X78599278Y-83920297D01*
X78600000Y-83935000D01*
X78600000Y-84235000D01*
X78599278Y-84249703D01*
X78597118Y-84264264D01*
X78593541Y-84278543D01*
X78588582Y-84292403D01*
X78582288Y-84305710D01*
X78574720Y-84318336D01*
X78565952Y-84330159D01*
X78556066Y-84341066D01*
X78545159Y-84350952D01*
X78533336Y-84359720D01*
X78520710Y-84367288D01*
X78507403Y-84373582D01*
X78493543Y-84378541D01*
X78479264Y-84382118D01*
X78464703Y-84384278D01*
X78450000Y-84385000D01*
X76800000Y-84385000D01*
X76785297Y-84384278D01*
X76770736Y-84382118D01*
X76756457Y-84378541D01*
X76742597Y-84373582D01*
X76729290Y-84367288D01*
X76716664Y-84359720D01*
X76704841Y-84350952D01*
X76693934Y-84341066D01*
X76684048Y-84330159D01*
X76675280Y-84318336D01*
X76667712Y-84305710D01*
X76661418Y-84292403D01*
X76656459Y-84278543D01*
X76652882Y-84264264D01*
X76650722Y-84249703D01*
X76650000Y-84235000D01*
X76650000Y-83935000D01*
X76650722Y-83920297D01*
X76652882Y-83905736D01*
X76656459Y-83891457D01*
X76661418Y-83877597D01*
X76667712Y-83864290D01*
X76675280Y-83851664D01*
X76684048Y-83839841D01*
X76693934Y-83828934D01*
X76704841Y-83819048D01*
X76716664Y-83810280D01*
X76729290Y-83802712D01*
X76742597Y-83796418D01*
X76756457Y-83791459D01*
X76770736Y-83787882D01*
X76785297Y-83785722D01*
X76800000Y-83785000D01*
X78450000Y-83785000D01*
X78464703Y-83785722D01*
G37*
G04 #@! TD.AperFunction*
G04 #@! TA.AperFunction,SMDPad,CuDef*
G36*
X78464703Y-85055722D02*
G01*
X78479264Y-85057882D01*
X78493543Y-85061459D01*
X78507403Y-85066418D01*
X78520710Y-85072712D01*
X78533336Y-85080280D01*
X78545159Y-85089048D01*
X78556066Y-85098934D01*
X78565952Y-85109841D01*
X78574720Y-85121664D01*
X78582288Y-85134290D01*
X78588582Y-85147597D01*
X78593541Y-85161457D01*
X78597118Y-85175736D01*
X78599278Y-85190297D01*
X78600000Y-85205000D01*
X78600000Y-85505000D01*
X78599278Y-85519703D01*
X78597118Y-85534264D01*
X78593541Y-85548543D01*
X78588582Y-85562403D01*
X78582288Y-85575710D01*
X78574720Y-85588336D01*
X78565952Y-85600159D01*
X78556066Y-85611066D01*
X78545159Y-85620952D01*
X78533336Y-85629720D01*
X78520710Y-85637288D01*
X78507403Y-85643582D01*
X78493543Y-85648541D01*
X78479264Y-85652118D01*
X78464703Y-85654278D01*
X78450000Y-85655000D01*
X76800000Y-85655000D01*
X76785297Y-85654278D01*
X76770736Y-85652118D01*
X76756457Y-85648541D01*
X76742597Y-85643582D01*
X76729290Y-85637288D01*
X76716664Y-85629720D01*
X76704841Y-85620952D01*
X76693934Y-85611066D01*
X76684048Y-85600159D01*
X76675280Y-85588336D01*
X76667712Y-85575710D01*
X76661418Y-85562403D01*
X76656459Y-85548543D01*
X76652882Y-85534264D01*
X76650722Y-85519703D01*
X76650000Y-85505000D01*
X76650000Y-85205000D01*
X76650722Y-85190297D01*
X76652882Y-85175736D01*
X76656459Y-85161457D01*
X76661418Y-85147597D01*
X76667712Y-85134290D01*
X76675280Y-85121664D01*
X76684048Y-85109841D01*
X76693934Y-85098934D01*
X76704841Y-85089048D01*
X76716664Y-85080280D01*
X76729290Y-85072712D01*
X76742597Y-85066418D01*
X76756457Y-85061459D01*
X76770736Y-85057882D01*
X76785297Y-85055722D01*
X76800000Y-85055000D01*
X78450000Y-85055000D01*
X78464703Y-85055722D01*
G37*
G04 #@! TD.AperFunction*
G04 #@! TA.AperFunction,SMDPad,CuDef*
G36*
X76069505Y-81951204D02*
G01*
X76093773Y-81954804D01*
X76117572Y-81960765D01*
X76140671Y-81969030D01*
X76162850Y-81979520D01*
X76183893Y-81992132D01*
X76203599Y-82006747D01*
X76221777Y-82023223D01*
X76238253Y-82041401D01*
X76252868Y-82061107D01*
X76265480Y-82082150D01*
X76275970Y-82104329D01*
X76284235Y-82127428D01*
X76290196Y-82151227D01*
X76293796Y-82175495D01*
X76295000Y-82199999D01*
X76295000Y-84700001D01*
X76293796Y-84724505D01*
X76290196Y-84748773D01*
X76284235Y-84772572D01*
X76275970Y-84795671D01*
X76265480Y-84817850D01*
X76252868Y-84838893D01*
X76238253Y-84858599D01*
X76221777Y-84876777D01*
X76203599Y-84893253D01*
X76183893Y-84907868D01*
X76162850Y-84920480D01*
X76140671Y-84930970D01*
X76117572Y-84939235D01*
X76093773Y-84945196D01*
X76069505Y-84948796D01*
X76045001Y-84950000D01*
X74254999Y-84950000D01*
X74230495Y-84948796D01*
X74206227Y-84945196D01*
X74182428Y-84939235D01*
X74159329Y-84930970D01*
X74137150Y-84920480D01*
X74116107Y-84907868D01*
X74096401Y-84893253D01*
X74078223Y-84876777D01*
X74061747Y-84858599D01*
X74047132Y-84838893D01*
X74034520Y-84817850D01*
X74024030Y-84795671D01*
X74015765Y-84772572D01*
X74009804Y-84748773D01*
X74006204Y-84724505D01*
X74005000Y-84700001D01*
X74005000Y-82199999D01*
X74006204Y-82175495D01*
X74009804Y-82151227D01*
X74015765Y-82127428D01*
X74024030Y-82104329D01*
X74034520Y-82082150D01*
X74047132Y-82061107D01*
X74061747Y-82041401D01*
X74078223Y-82023223D01*
X74096401Y-82006747D01*
X74116107Y-81992132D01*
X74137150Y-81979520D01*
X74159329Y-81969030D01*
X74182428Y-81960765D01*
X74206227Y-81954804D01*
X74230495Y-81951204D01*
X74254999Y-81950000D01*
X76045001Y-81950000D01*
X76069505Y-81951204D01*
G37*
G04 #@! TD.AperFunction*
D13*
X44675000Y-80250000D03*
D14*
X44350000Y-81150000D03*
X45000000Y-81150000D03*
X45650000Y-81150000D03*
X45650000Y-79350000D03*
X45000000Y-79350000D03*
X44350000Y-79350000D03*
D15*
X45650000Y-80250000D03*
D13*
X44500000Y-85350000D03*
D14*
X44175000Y-86250000D03*
X44825000Y-86250000D03*
X45475000Y-86250000D03*
X45475000Y-84450000D03*
X44825000Y-84450000D03*
X44175000Y-84450000D03*
D15*
X45475000Y-85350000D03*
G04 #@! TA.AperFunction,SMDPad,CuDef*
D12*
G36*
X53394703Y-85055722D02*
G01*
X53409264Y-85057882D01*
X53423543Y-85061459D01*
X53437403Y-85066418D01*
X53450710Y-85072712D01*
X53463336Y-85080280D01*
X53475159Y-85089048D01*
X53486066Y-85098934D01*
X53495952Y-85109841D01*
X53504720Y-85121664D01*
X53512288Y-85134290D01*
X53518582Y-85147597D01*
X53523541Y-85161457D01*
X53527118Y-85175736D01*
X53529278Y-85190297D01*
X53530000Y-85205000D01*
X53530000Y-85505000D01*
X53529278Y-85519703D01*
X53527118Y-85534264D01*
X53523541Y-85548543D01*
X53518582Y-85562403D01*
X53512288Y-85575710D01*
X53504720Y-85588336D01*
X53495952Y-85600159D01*
X53486066Y-85611066D01*
X53475159Y-85620952D01*
X53463336Y-85629720D01*
X53450710Y-85637288D01*
X53437403Y-85643582D01*
X53423543Y-85648541D01*
X53409264Y-85652118D01*
X53394703Y-85654278D01*
X53380000Y-85655000D01*
X51730000Y-85655000D01*
X51715297Y-85654278D01*
X51700736Y-85652118D01*
X51686457Y-85648541D01*
X51672597Y-85643582D01*
X51659290Y-85637288D01*
X51646664Y-85629720D01*
X51634841Y-85620952D01*
X51623934Y-85611066D01*
X51614048Y-85600159D01*
X51605280Y-85588336D01*
X51597712Y-85575710D01*
X51591418Y-85562403D01*
X51586459Y-85548543D01*
X51582882Y-85534264D01*
X51580722Y-85519703D01*
X51580000Y-85505000D01*
X51580000Y-85205000D01*
X51580722Y-85190297D01*
X51582882Y-85175736D01*
X51586459Y-85161457D01*
X51591418Y-85147597D01*
X51597712Y-85134290D01*
X51605280Y-85121664D01*
X51614048Y-85109841D01*
X51623934Y-85098934D01*
X51634841Y-85089048D01*
X51646664Y-85080280D01*
X51659290Y-85072712D01*
X51672597Y-85066418D01*
X51686457Y-85061459D01*
X51700736Y-85057882D01*
X51715297Y-85055722D01*
X51730000Y-85055000D01*
X53380000Y-85055000D01*
X53394703Y-85055722D01*
G37*
G04 #@! TD.AperFunction*
G04 #@! TA.AperFunction,SMDPad,CuDef*
G36*
X53394703Y-83785722D02*
G01*
X53409264Y-83787882D01*
X53423543Y-83791459D01*
X53437403Y-83796418D01*
X53450710Y-83802712D01*
X53463336Y-83810280D01*
X53475159Y-83819048D01*
X53486066Y-83828934D01*
X53495952Y-83839841D01*
X53504720Y-83851664D01*
X53512288Y-83864290D01*
X53518582Y-83877597D01*
X53523541Y-83891457D01*
X53527118Y-83905736D01*
X53529278Y-83920297D01*
X53530000Y-83935000D01*
X53530000Y-84235000D01*
X53529278Y-84249703D01*
X53527118Y-84264264D01*
X53523541Y-84278543D01*
X53518582Y-84292403D01*
X53512288Y-84305710D01*
X53504720Y-84318336D01*
X53495952Y-84330159D01*
X53486066Y-84341066D01*
X53475159Y-84350952D01*
X53463336Y-84359720D01*
X53450710Y-84367288D01*
X53437403Y-84373582D01*
X53423543Y-84378541D01*
X53409264Y-84382118D01*
X53394703Y-84384278D01*
X53380000Y-84385000D01*
X51730000Y-84385000D01*
X51715297Y-84384278D01*
X51700736Y-84382118D01*
X51686457Y-84378541D01*
X51672597Y-84373582D01*
X51659290Y-84367288D01*
X51646664Y-84359720D01*
X51634841Y-84350952D01*
X51623934Y-84341066D01*
X51614048Y-84330159D01*
X51605280Y-84318336D01*
X51597712Y-84305710D01*
X51591418Y-84292403D01*
X51586459Y-84278543D01*
X51582882Y-84264264D01*
X51580722Y-84249703D01*
X51580000Y-84235000D01*
X51580000Y-83935000D01*
X51580722Y-83920297D01*
X51582882Y-83905736D01*
X51586459Y-83891457D01*
X51591418Y-83877597D01*
X51597712Y-83864290D01*
X51605280Y-83851664D01*
X51614048Y-83839841D01*
X51623934Y-83828934D01*
X51634841Y-83819048D01*
X51646664Y-83810280D01*
X51659290Y-83802712D01*
X51672597Y-83796418D01*
X51686457Y-83791459D01*
X51700736Y-83787882D01*
X51715297Y-83785722D01*
X51730000Y-83785000D01*
X53380000Y-83785000D01*
X53394703Y-83785722D01*
G37*
G04 #@! TD.AperFunction*
G04 #@! TA.AperFunction,SMDPad,CuDef*
G36*
X53394703Y-82515722D02*
G01*
X53409264Y-82517882D01*
X53423543Y-82521459D01*
X53437403Y-82526418D01*
X53450710Y-82532712D01*
X53463336Y-82540280D01*
X53475159Y-82549048D01*
X53486066Y-82558934D01*
X53495952Y-82569841D01*
X53504720Y-82581664D01*
X53512288Y-82594290D01*
X53518582Y-82607597D01*
X53523541Y-82621457D01*
X53527118Y-82635736D01*
X53529278Y-82650297D01*
X53530000Y-82665000D01*
X53530000Y-82965000D01*
X53529278Y-82979703D01*
X53527118Y-82994264D01*
X53523541Y-83008543D01*
X53518582Y-83022403D01*
X53512288Y-83035710D01*
X53504720Y-83048336D01*
X53495952Y-83060159D01*
X53486066Y-83071066D01*
X53475159Y-83080952D01*
X53463336Y-83089720D01*
X53450710Y-83097288D01*
X53437403Y-83103582D01*
X53423543Y-83108541D01*
X53409264Y-83112118D01*
X53394703Y-83114278D01*
X53380000Y-83115000D01*
X51730000Y-83115000D01*
X51715297Y-83114278D01*
X51700736Y-83112118D01*
X51686457Y-83108541D01*
X51672597Y-83103582D01*
X51659290Y-83097288D01*
X51646664Y-83089720D01*
X51634841Y-83080952D01*
X51623934Y-83071066D01*
X51614048Y-83060159D01*
X51605280Y-83048336D01*
X51597712Y-83035710D01*
X51591418Y-83022403D01*
X51586459Y-83008543D01*
X51582882Y-82994264D01*
X51580722Y-82979703D01*
X51580000Y-82965000D01*
X51580000Y-82665000D01*
X51580722Y-82650297D01*
X51582882Y-82635736D01*
X51586459Y-82621457D01*
X51591418Y-82607597D01*
X51597712Y-82594290D01*
X51605280Y-82581664D01*
X51614048Y-82569841D01*
X51623934Y-82558934D01*
X51634841Y-82549048D01*
X51646664Y-82540280D01*
X51659290Y-82532712D01*
X51672597Y-82526418D01*
X51686457Y-82521459D01*
X51700736Y-82517882D01*
X51715297Y-82515722D01*
X51730000Y-82515000D01*
X53380000Y-82515000D01*
X53394703Y-82515722D01*
G37*
G04 #@! TD.AperFunction*
G04 #@! TA.AperFunction,SMDPad,CuDef*
G36*
X53394703Y-81245722D02*
G01*
X53409264Y-81247882D01*
X53423543Y-81251459D01*
X53437403Y-81256418D01*
X53450710Y-81262712D01*
X53463336Y-81270280D01*
X53475159Y-81279048D01*
X53486066Y-81288934D01*
X53495952Y-81299841D01*
X53504720Y-81311664D01*
X53512288Y-81324290D01*
X53518582Y-81337597D01*
X53523541Y-81351457D01*
X53527118Y-81365736D01*
X53529278Y-81380297D01*
X53530000Y-81395000D01*
X53530000Y-81695000D01*
X53529278Y-81709703D01*
X53527118Y-81724264D01*
X53523541Y-81738543D01*
X53518582Y-81752403D01*
X53512288Y-81765710D01*
X53504720Y-81778336D01*
X53495952Y-81790159D01*
X53486066Y-81801066D01*
X53475159Y-81810952D01*
X53463336Y-81819720D01*
X53450710Y-81827288D01*
X53437403Y-81833582D01*
X53423543Y-81838541D01*
X53409264Y-81842118D01*
X53394703Y-81844278D01*
X53380000Y-81845000D01*
X51730000Y-81845000D01*
X51715297Y-81844278D01*
X51700736Y-81842118D01*
X51686457Y-81838541D01*
X51672597Y-81833582D01*
X51659290Y-81827288D01*
X51646664Y-81819720D01*
X51634841Y-81810952D01*
X51623934Y-81801066D01*
X51614048Y-81790159D01*
X51605280Y-81778336D01*
X51597712Y-81765710D01*
X51591418Y-81752403D01*
X51586459Y-81738543D01*
X51582882Y-81724264D01*
X51580722Y-81709703D01*
X51580000Y-81695000D01*
X51580000Y-81395000D01*
X51580722Y-81380297D01*
X51582882Y-81365736D01*
X51586459Y-81351457D01*
X51591418Y-81337597D01*
X51597712Y-81324290D01*
X51605280Y-81311664D01*
X51614048Y-81299841D01*
X51623934Y-81288934D01*
X51634841Y-81279048D01*
X51646664Y-81270280D01*
X51659290Y-81262712D01*
X51672597Y-81256418D01*
X51686457Y-81251459D01*
X51700736Y-81247882D01*
X51715297Y-81245722D01*
X51730000Y-81245000D01*
X53380000Y-81245000D01*
X53394703Y-81245722D01*
G37*
G04 #@! TD.AperFunction*
G04 #@! TA.AperFunction,SMDPad,CuDef*
G36*
X58344703Y-81245722D02*
G01*
X58359264Y-81247882D01*
X58373543Y-81251459D01*
X58387403Y-81256418D01*
X58400710Y-81262712D01*
X58413336Y-81270280D01*
X58425159Y-81279048D01*
X58436066Y-81288934D01*
X58445952Y-81299841D01*
X58454720Y-81311664D01*
X58462288Y-81324290D01*
X58468582Y-81337597D01*
X58473541Y-81351457D01*
X58477118Y-81365736D01*
X58479278Y-81380297D01*
X58480000Y-81395000D01*
X58480000Y-81695000D01*
X58479278Y-81709703D01*
X58477118Y-81724264D01*
X58473541Y-81738543D01*
X58468582Y-81752403D01*
X58462288Y-81765710D01*
X58454720Y-81778336D01*
X58445952Y-81790159D01*
X58436066Y-81801066D01*
X58425159Y-81810952D01*
X58413336Y-81819720D01*
X58400710Y-81827288D01*
X58387403Y-81833582D01*
X58373543Y-81838541D01*
X58359264Y-81842118D01*
X58344703Y-81844278D01*
X58330000Y-81845000D01*
X56680000Y-81845000D01*
X56665297Y-81844278D01*
X56650736Y-81842118D01*
X56636457Y-81838541D01*
X56622597Y-81833582D01*
X56609290Y-81827288D01*
X56596664Y-81819720D01*
X56584841Y-81810952D01*
X56573934Y-81801066D01*
X56564048Y-81790159D01*
X56555280Y-81778336D01*
X56547712Y-81765710D01*
X56541418Y-81752403D01*
X56536459Y-81738543D01*
X56532882Y-81724264D01*
X56530722Y-81709703D01*
X56530000Y-81695000D01*
X56530000Y-81395000D01*
X56530722Y-81380297D01*
X56532882Y-81365736D01*
X56536459Y-81351457D01*
X56541418Y-81337597D01*
X56547712Y-81324290D01*
X56555280Y-81311664D01*
X56564048Y-81299841D01*
X56573934Y-81288934D01*
X56584841Y-81279048D01*
X56596664Y-81270280D01*
X56609290Y-81262712D01*
X56622597Y-81256418D01*
X56636457Y-81251459D01*
X56650736Y-81247882D01*
X56665297Y-81245722D01*
X56680000Y-81245000D01*
X58330000Y-81245000D01*
X58344703Y-81245722D01*
G37*
G04 #@! TD.AperFunction*
G04 #@! TA.AperFunction,SMDPad,CuDef*
G36*
X58344703Y-82515722D02*
G01*
X58359264Y-82517882D01*
X58373543Y-82521459D01*
X58387403Y-82526418D01*
X58400710Y-82532712D01*
X58413336Y-82540280D01*
X58425159Y-82549048D01*
X58436066Y-82558934D01*
X58445952Y-82569841D01*
X58454720Y-82581664D01*
X58462288Y-82594290D01*
X58468582Y-82607597D01*
X58473541Y-82621457D01*
X58477118Y-82635736D01*
X58479278Y-82650297D01*
X58480000Y-82665000D01*
X58480000Y-82965000D01*
X58479278Y-82979703D01*
X58477118Y-82994264D01*
X58473541Y-83008543D01*
X58468582Y-83022403D01*
X58462288Y-83035710D01*
X58454720Y-83048336D01*
X58445952Y-83060159D01*
X58436066Y-83071066D01*
X58425159Y-83080952D01*
X58413336Y-83089720D01*
X58400710Y-83097288D01*
X58387403Y-83103582D01*
X58373543Y-83108541D01*
X58359264Y-83112118D01*
X58344703Y-83114278D01*
X58330000Y-83115000D01*
X56680000Y-83115000D01*
X56665297Y-83114278D01*
X56650736Y-83112118D01*
X56636457Y-83108541D01*
X56622597Y-83103582D01*
X56609290Y-83097288D01*
X56596664Y-83089720D01*
X56584841Y-83080952D01*
X56573934Y-83071066D01*
X56564048Y-83060159D01*
X56555280Y-83048336D01*
X56547712Y-83035710D01*
X56541418Y-83022403D01*
X56536459Y-83008543D01*
X56532882Y-82994264D01*
X56530722Y-82979703D01*
X56530000Y-82965000D01*
X56530000Y-82665000D01*
X56530722Y-82650297D01*
X56532882Y-82635736D01*
X56536459Y-82621457D01*
X56541418Y-82607597D01*
X56547712Y-82594290D01*
X56555280Y-82581664D01*
X56564048Y-82569841D01*
X56573934Y-82558934D01*
X56584841Y-82549048D01*
X56596664Y-82540280D01*
X56609290Y-82532712D01*
X56622597Y-82526418D01*
X56636457Y-82521459D01*
X56650736Y-82517882D01*
X56665297Y-82515722D01*
X56680000Y-82515000D01*
X58330000Y-82515000D01*
X58344703Y-82515722D01*
G37*
G04 #@! TD.AperFunction*
G04 #@! TA.AperFunction,SMDPad,CuDef*
G36*
X58344703Y-83785722D02*
G01*
X58359264Y-83787882D01*
X58373543Y-83791459D01*
X58387403Y-83796418D01*
X58400710Y-83802712D01*
X58413336Y-83810280D01*
X58425159Y-83819048D01*
X58436066Y-83828934D01*
X58445952Y-83839841D01*
X58454720Y-83851664D01*
X58462288Y-83864290D01*
X58468582Y-83877597D01*
X58473541Y-83891457D01*
X58477118Y-83905736D01*
X58479278Y-83920297D01*
X58480000Y-83935000D01*
X58480000Y-84235000D01*
X58479278Y-84249703D01*
X58477118Y-84264264D01*
X58473541Y-84278543D01*
X58468582Y-84292403D01*
X58462288Y-84305710D01*
X58454720Y-84318336D01*
X58445952Y-84330159D01*
X58436066Y-84341066D01*
X58425159Y-84350952D01*
X58413336Y-84359720D01*
X58400710Y-84367288D01*
X58387403Y-84373582D01*
X58373543Y-84378541D01*
X58359264Y-84382118D01*
X58344703Y-84384278D01*
X58330000Y-84385000D01*
X56680000Y-84385000D01*
X56665297Y-84384278D01*
X56650736Y-84382118D01*
X56636457Y-84378541D01*
X56622597Y-84373582D01*
X56609290Y-84367288D01*
X56596664Y-84359720D01*
X56584841Y-84350952D01*
X56573934Y-84341066D01*
X56564048Y-84330159D01*
X56555280Y-84318336D01*
X56547712Y-84305710D01*
X56541418Y-84292403D01*
X56536459Y-84278543D01*
X56532882Y-84264264D01*
X56530722Y-84249703D01*
X56530000Y-84235000D01*
X56530000Y-83935000D01*
X56530722Y-83920297D01*
X56532882Y-83905736D01*
X56536459Y-83891457D01*
X56541418Y-83877597D01*
X56547712Y-83864290D01*
X56555280Y-83851664D01*
X56564048Y-83839841D01*
X56573934Y-83828934D01*
X56584841Y-83819048D01*
X56596664Y-83810280D01*
X56609290Y-83802712D01*
X56622597Y-83796418D01*
X56636457Y-83791459D01*
X56650736Y-83787882D01*
X56665297Y-83785722D01*
X56680000Y-83785000D01*
X58330000Y-83785000D01*
X58344703Y-83785722D01*
G37*
G04 #@! TD.AperFunction*
G04 #@! TA.AperFunction,SMDPad,CuDef*
G36*
X58344703Y-85055722D02*
G01*
X58359264Y-85057882D01*
X58373543Y-85061459D01*
X58387403Y-85066418D01*
X58400710Y-85072712D01*
X58413336Y-85080280D01*
X58425159Y-85089048D01*
X58436066Y-85098934D01*
X58445952Y-85109841D01*
X58454720Y-85121664D01*
X58462288Y-85134290D01*
X58468582Y-85147597D01*
X58473541Y-85161457D01*
X58477118Y-85175736D01*
X58479278Y-85190297D01*
X58480000Y-85205000D01*
X58480000Y-85505000D01*
X58479278Y-85519703D01*
X58477118Y-85534264D01*
X58473541Y-85548543D01*
X58468582Y-85562403D01*
X58462288Y-85575710D01*
X58454720Y-85588336D01*
X58445952Y-85600159D01*
X58436066Y-85611066D01*
X58425159Y-85620952D01*
X58413336Y-85629720D01*
X58400710Y-85637288D01*
X58387403Y-85643582D01*
X58373543Y-85648541D01*
X58359264Y-85652118D01*
X58344703Y-85654278D01*
X58330000Y-85655000D01*
X56680000Y-85655000D01*
X56665297Y-85654278D01*
X56650736Y-85652118D01*
X56636457Y-85648541D01*
X56622597Y-85643582D01*
X56609290Y-85637288D01*
X56596664Y-85629720D01*
X56584841Y-85620952D01*
X56573934Y-85611066D01*
X56564048Y-85600159D01*
X56555280Y-85588336D01*
X56547712Y-85575710D01*
X56541418Y-85562403D01*
X56536459Y-85548543D01*
X56532882Y-85534264D01*
X56530722Y-85519703D01*
X56530000Y-85505000D01*
X56530000Y-85205000D01*
X56530722Y-85190297D01*
X56532882Y-85175736D01*
X56536459Y-85161457D01*
X56541418Y-85147597D01*
X56547712Y-85134290D01*
X56555280Y-85121664D01*
X56564048Y-85109841D01*
X56573934Y-85098934D01*
X56584841Y-85089048D01*
X56596664Y-85080280D01*
X56609290Y-85072712D01*
X56622597Y-85066418D01*
X56636457Y-85061459D01*
X56650736Y-85057882D01*
X56665297Y-85055722D01*
X56680000Y-85055000D01*
X58330000Y-85055000D01*
X58344703Y-85055722D01*
G37*
G04 #@! TD.AperFunction*
G04 #@! TA.AperFunction,SMDPad,CuDef*
G36*
X55949505Y-81951204D02*
G01*
X55973773Y-81954804D01*
X55997572Y-81960765D01*
X56020671Y-81969030D01*
X56042850Y-81979520D01*
X56063893Y-81992132D01*
X56083599Y-82006747D01*
X56101777Y-82023223D01*
X56118253Y-82041401D01*
X56132868Y-82061107D01*
X56145480Y-82082150D01*
X56155970Y-82104329D01*
X56164235Y-82127428D01*
X56170196Y-82151227D01*
X56173796Y-82175495D01*
X56175000Y-82199999D01*
X56175000Y-84700001D01*
X56173796Y-84724505D01*
X56170196Y-84748773D01*
X56164235Y-84772572D01*
X56155970Y-84795671D01*
X56145480Y-84817850D01*
X56132868Y-84838893D01*
X56118253Y-84858599D01*
X56101777Y-84876777D01*
X56083599Y-84893253D01*
X56063893Y-84907868D01*
X56042850Y-84920480D01*
X56020671Y-84930970D01*
X55997572Y-84939235D01*
X55973773Y-84945196D01*
X55949505Y-84948796D01*
X55925001Y-84950000D01*
X54134999Y-84950000D01*
X54110495Y-84948796D01*
X54086227Y-84945196D01*
X54062428Y-84939235D01*
X54039329Y-84930970D01*
X54017150Y-84920480D01*
X53996107Y-84907868D01*
X53976401Y-84893253D01*
X53958223Y-84876777D01*
X53941747Y-84858599D01*
X53927132Y-84838893D01*
X53914520Y-84817850D01*
X53904030Y-84795671D01*
X53895765Y-84772572D01*
X53889804Y-84748773D01*
X53886204Y-84724505D01*
X53885000Y-84700001D01*
X53885000Y-82199999D01*
X53886204Y-82175495D01*
X53889804Y-82151227D01*
X53895765Y-82127428D01*
X53904030Y-82104329D01*
X53914520Y-82082150D01*
X53927132Y-82061107D01*
X53941747Y-82041401D01*
X53958223Y-82023223D01*
X53976401Y-82006747D01*
X53996107Y-81992132D01*
X54017150Y-81979520D01*
X54039329Y-81969030D01*
X54062428Y-81960765D01*
X54086227Y-81954804D01*
X54110495Y-81951204D01*
X54134999Y-81950000D01*
X55925001Y-81950000D01*
X55949505Y-81951204D01*
G37*
G04 #@! TD.AperFunction*
D20*
X66660000Y-67560000D03*
X68560000Y-67560000D03*
X66660000Y-65160000D03*
X67610000Y-65160000D03*
X68560000Y-65160000D03*
D21*
X72410000Y-73360000D03*
X69160000Y-73360000D03*
D22*
X58280000Y-61030000D03*
X58280000Y-63570000D03*
X58280000Y-66110000D03*
X58280000Y-68650000D03*
D23*
X58280000Y-71190000D03*
D24*
X92000000Y-91850000D03*
X76075001Y-91850000D03*
X55955001Y-91850000D03*
D25*
X47093274Y-59413274D03*
X46610000Y-60580000D03*
X47093274Y-61746726D03*
X48260000Y-62230000D03*
X49426726Y-61746726D03*
X49910000Y-60580000D03*
X49426726Y-59413274D03*
X48260000Y-58930000D03*
D26*
X48260000Y-60580000D03*
D25*
X46963274Y-65063274D03*
X46480000Y-66230000D03*
X46963274Y-67396726D03*
X48130000Y-67880000D03*
X49296726Y-67396726D03*
X49780000Y-66230000D03*
X49296726Y-65063274D03*
X48130000Y-64580000D03*
D26*
X48130000Y-66230000D03*
D25*
X46793274Y-70653274D03*
X46310000Y-71820000D03*
X46793274Y-72986726D03*
X47960000Y-73470000D03*
X49126726Y-72986726D03*
X49610000Y-71820000D03*
X49126726Y-70653274D03*
X47960000Y-70170000D03*
D26*
X47960000Y-71820000D03*
D24*
X96975001Y-91850000D03*
X71100000Y-91850000D03*
X51000000Y-91850000D03*
D27*
X97300000Y-88800000D03*
X94800000Y-88800000D03*
X76400000Y-88800000D03*
X73900000Y-88800000D03*
X56280000Y-88800000D03*
X53780000Y-88800000D03*
D28*
X58300000Y-77544997D03*
X58707108Y-80707108D03*
X78330720Y-80324149D03*
X78800000Y-77544997D03*
X99200000Y-80200000D03*
X99800000Y-77574997D03*
X66300000Y-63700000D03*
X66200000Y-69000000D03*
X79339834Y-67585000D03*
X73000000Y-64700000D03*
X46600000Y-78900000D03*
X62700000Y-82500000D03*
X67200000Y-78800000D03*
X82500000Y-82600000D03*
X88000000Y-78800000D03*
X100700000Y-62100000D03*
X96800000Y-66800000D03*
X100450000Y-71500000D03*
X79300000Y-71300000D03*
D29*
X63100000Y-85300000D03*
X64000000Y-73600000D03*
X75600000Y-74100000D03*
X74800000Y-87200000D03*
D28*
X75500000Y-76575010D03*
D29*
X64600000Y-62400000D03*
D28*
X73882400Y-66797659D03*
X73900000Y-71200000D03*
X65100000Y-66100000D03*
X65100000Y-70400000D03*
X102900000Y-60700000D03*
D29*
X46400000Y-82900000D03*
X47000000Y-91300000D03*
X46400000Y-87600000D03*
D28*
X59600000Y-91800000D03*
X59600000Y-94800000D03*
X102700000Y-94800000D03*
X50519147Y-78006080D03*
X50500000Y-86600000D03*
X101900000Y-65900000D03*
D29*
X66700000Y-82700000D03*
X66700000Y-91200000D03*
X66700000Y-89000000D03*
D28*
X79600000Y-91700000D03*
X79600000Y-94075000D03*
X101900000Y-93900000D03*
X70919350Y-78045000D03*
X70900000Y-86500000D03*
X101175000Y-90900000D03*
X101000000Y-70000000D03*
D29*
X87600000Y-82600000D03*
X87500000Y-91300000D03*
X87600000Y-88600000D03*
D28*
X91929231Y-78045000D03*
X91900000Y-86500000D03*
X62600000Y-68600000D03*
X62700000Y-59900000D03*
X76800000Y-60100000D03*
X77700000Y-63400000D03*
X61800000Y-71200000D03*
X61875000Y-60900000D03*
X76775000Y-61100003D03*
X76706114Y-63289569D03*
X49600000Y-78400000D03*
X49600000Y-85800000D03*
X92300000Y-71300000D03*
X92300000Y-58124990D03*
X74702667Y-58502005D03*
X74825000Y-62800000D03*
X74100000Y-59300000D03*
X74117683Y-64982317D03*
X75700000Y-58575000D03*
X75500000Y-63600000D03*
X57250846Y-77495847D03*
X58000000Y-80000000D03*
X69935037Y-78572975D03*
X69900000Y-85700000D03*
X77500000Y-77545000D03*
X77386441Y-79995000D03*
X90994855Y-78545147D03*
X90900000Y-85600000D03*
X98700000Y-77500000D03*
X98215430Y-80025000D03*
X59472347Y-79997653D03*
X58300000Y-78545000D03*
X80900000Y-66400000D03*
X80900000Y-76200000D03*
X81625000Y-67107870D03*
X81625000Y-75400000D03*
X60300000Y-75475000D03*
X60300000Y-78400000D03*
X78800000Y-78545000D03*
X79275000Y-79995000D03*
X80175000Y-68135000D03*
X80000000Y-78600000D03*
X82350000Y-68600000D03*
X82300000Y-78900000D03*
X100375000Y-80175153D03*
X99800000Y-78575000D03*
X83075000Y-69424043D03*
X83100000Y-74800000D03*
X100400000Y-74800000D03*
X83900000Y-70100000D03*
X83900000Y-75525000D03*
X96300000Y-75700000D03*
X96300000Y-87000000D03*
X100400000Y-87000000D03*
X100300000Y-83200000D03*
D30*
X45650000Y-80250000D02*
X45650000Y-79350000D01*
X58227001Y-77544997D02*
X58300000Y-77544997D01*
X56500000Y-78270000D02*
X57501998Y-78270000D01*
X57501998Y-78270000D02*
X58227001Y-77544997D01*
X57505000Y-81545000D02*
X57869216Y-81545000D01*
X57869216Y-81545000D02*
X58707108Y-80707108D01*
X77625000Y-81545000D02*
X77625000Y-81029869D01*
X77625000Y-81029869D02*
X78330720Y-80324149D01*
X76600000Y-78270000D02*
X78001998Y-78270000D01*
X78727001Y-77544997D02*
X78800000Y-77544997D01*
X78001998Y-78270000D02*
X78727001Y-77544997D01*
X66050000Y-80250000D02*
X66050000Y-79350000D01*
X86700000Y-80250000D02*
X86700000Y-79350000D01*
X98525000Y-81545000D02*
X98525000Y-80875000D01*
X98525000Y-80875000D02*
X99200000Y-80200000D01*
X99770002Y-77574997D02*
X99800000Y-77574997D01*
X97500000Y-78270000D02*
X99074999Y-78270000D01*
X99074999Y-78270000D02*
X99770002Y-77574997D01*
X97500000Y-78270000D02*
X96300000Y-78270000D01*
X76600000Y-78270000D02*
X75400000Y-78270000D01*
X56500000Y-78270000D02*
X55300000Y-78270000D01*
X76460000Y-66360000D02*
X75160000Y-66360000D01*
X76710000Y-66610000D02*
X76460000Y-66360000D01*
X77460000Y-67360000D02*
X78260000Y-67360000D01*
X76710000Y-66610000D02*
X77460000Y-67360000D01*
X67600000Y-65170000D02*
X67610000Y-65160000D01*
X67600000Y-69000000D02*
X67600000Y-65170000D01*
X67610000Y-63715000D02*
X67625000Y-63700000D01*
X67610000Y-65160000D02*
X67610000Y-63715000D01*
X67625000Y-63700000D02*
X66300000Y-63700000D01*
X67600000Y-69000000D02*
X66200000Y-69000000D01*
X78260000Y-67360000D02*
X79114834Y-67360000D01*
X79114834Y-67360000D02*
X79339834Y-67585000D01*
X45650000Y-79350000D02*
X46150000Y-79350000D01*
X46150000Y-79350000D02*
X46600000Y-78900000D01*
X61250000Y-82575000D02*
X62625000Y-82575000D01*
X62625000Y-82575000D02*
X62700000Y-82500000D01*
X66050000Y-79350000D02*
X66650000Y-79350000D01*
X66650000Y-79350000D02*
X67200000Y-78800000D01*
X81100000Y-82575000D02*
X82475000Y-82575000D01*
X82475000Y-82575000D02*
X82500000Y-82600000D01*
X86700000Y-79350000D02*
X87450000Y-79350000D01*
X87450000Y-79350000D02*
X88000000Y-78800000D01*
X100365685Y-77574997D02*
X99800000Y-77574997D01*
X102050000Y-79259312D02*
X100365685Y-77574997D01*
X102050000Y-82575000D02*
X102050000Y-79259312D01*
X99240000Y-62080000D02*
X100680000Y-62080000D01*
X100680000Y-62080000D02*
X100700000Y-62100000D01*
X95370000Y-66780000D02*
X96780000Y-66780000D01*
X96780000Y-66780000D02*
X96800000Y-66800000D01*
X99240000Y-71530000D02*
X100420000Y-71530000D01*
X100420000Y-71530000D02*
X100450000Y-71500000D01*
X77560000Y-71310000D02*
X79290000Y-71310000D01*
X79290000Y-71310000D02*
X79300000Y-71300000D01*
X74470047Y-66360000D02*
X73000000Y-64889953D01*
X75160000Y-66360000D02*
X74470047Y-66360000D01*
X73000000Y-64889953D02*
X73000000Y-64700000D01*
X44825000Y-85675000D02*
X44500000Y-85350000D01*
X44825000Y-86250000D02*
X44825000Y-85675000D01*
X44175000Y-85675000D02*
X44500000Y-85350000D01*
X44175000Y-86250000D02*
X44175000Y-85675000D01*
X44175000Y-85025000D02*
X44500000Y-85350000D01*
X44175000Y-84450000D02*
X44175000Y-85025000D01*
X44825000Y-85025000D02*
X44500000Y-85350000D01*
X44825000Y-84450000D02*
X44825000Y-85025000D01*
X64675000Y-85675000D02*
X65000000Y-85350000D01*
X64675000Y-86250000D02*
X64675000Y-85675000D01*
X65325000Y-85675000D02*
X65000000Y-85350000D01*
X65325000Y-86250000D02*
X65325000Y-85675000D01*
X64675000Y-85025000D02*
X65000000Y-85350000D01*
X64675000Y-84450000D02*
X64675000Y-85025000D01*
X65325000Y-85025000D02*
X65000000Y-85350000D01*
X65325000Y-84450000D02*
X65325000Y-85025000D01*
X85400000Y-85025000D02*
X85725000Y-85350000D01*
X85400000Y-84450000D02*
X85400000Y-85025000D01*
X86050000Y-85025000D02*
X85725000Y-85350000D01*
X86050000Y-84450000D02*
X86050000Y-85025000D01*
X85400000Y-85675000D02*
X85725000Y-85350000D01*
X85400000Y-86250000D02*
X85400000Y-85675000D01*
X86050000Y-85675000D02*
X85725000Y-85350000D01*
X86050000Y-86250000D02*
X86050000Y-85675000D01*
D31*
X44500000Y-83812500D02*
X44500000Y-85350000D01*
X43449999Y-82762499D02*
X44500000Y-83812500D01*
X43449999Y-76330001D02*
X43449999Y-82762499D01*
X47960000Y-71820000D02*
X43449999Y-76330001D01*
X65000000Y-85350000D02*
X63150000Y-85350000D01*
X63150000Y-85350000D02*
X63100000Y-85300000D01*
X49740000Y-73600000D02*
X47960000Y-71820000D01*
X64000000Y-73600000D02*
X64960001Y-74560001D01*
X75139999Y-74560001D02*
X75600000Y-74100000D01*
X64960001Y-74560001D02*
X75139999Y-74560001D01*
X85725000Y-86887500D02*
X85725000Y-85350000D01*
X85412500Y-87200000D02*
X85725000Y-86887500D01*
D30*
X62225000Y-85300000D02*
X61250000Y-84325000D01*
X63100000Y-85300000D02*
X62225000Y-85300000D01*
X61250000Y-84325000D02*
X61250000Y-84350000D01*
X57560000Y-85300000D02*
X57505000Y-85355000D01*
X61200000Y-87200000D02*
X61200000Y-85300000D01*
X59600000Y-88800000D02*
X61200000Y-87200000D01*
X56280000Y-88800000D02*
X59600000Y-88800000D01*
X63100000Y-85300000D02*
X61200000Y-85300000D01*
X61200000Y-85300000D02*
X57560000Y-85300000D01*
X54100000Y-74400000D02*
X53300000Y-73600000D01*
X54100000Y-77270000D02*
X54100000Y-74400000D01*
D31*
X64000000Y-73600000D02*
X53300000Y-73600000D01*
X53300000Y-73600000D02*
X49740000Y-73600000D01*
D30*
X74519990Y-76575010D02*
X75500000Y-76575010D01*
X74200000Y-77270000D02*
X74200000Y-76895000D01*
X74200000Y-76895000D02*
X74519990Y-76575010D01*
X76400000Y-88050000D02*
X77250000Y-87200000D01*
X77250000Y-87200000D02*
X77900000Y-87200000D01*
X76400000Y-88800000D02*
X76400000Y-88050000D01*
D31*
X74800000Y-87200000D02*
X77900000Y-87200000D01*
D30*
X79000000Y-87030000D02*
X79000000Y-87200000D01*
X77625000Y-85655000D02*
X79000000Y-87030000D01*
D31*
X77900000Y-87200000D02*
X79000000Y-87200000D01*
D30*
X77625000Y-85355000D02*
X77625000Y-85655000D01*
X79000000Y-85950000D02*
X79000000Y-87200000D01*
X80625000Y-84325000D02*
X79000000Y-85950000D01*
X81100000Y-84325000D02*
X80625000Y-84325000D01*
X97300000Y-89550000D02*
X97300000Y-88800000D01*
X97174999Y-89675001D02*
X97300000Y-89550000D01*
X85412500Y-88003502D02*
X87083999Y-89675001D01*
X85412500Y-87200000D02*
X85412500Y-88003502D01*
X102050000Y-84850000D02*
X102050000Y-84325000D01*
X102050000Y-86423002D02*
X102050000Y-84850000D01*
X98798001Y-89675001D02*
X102050000Y-86423002D01*
X96924999Y-89675001D02*
X98798001Y-89675001D01*
X87083999Y-89675001D02*
X96924999Y-89675001D01*
X96924999Y-89675001D02*
X97174999Y-89675001D01*
X101281998Y-85655000D02*
X102050000Y-86423002D01*
X98825000Y-85655000D02*
X101281998Y-85655000D01*
X98525000Y-85355000D02*
X98825000Y-85655000D01*
X86444998Y-77270000D02*
X83600000Y-80114998D01*
X95100000Y-77270000D02*
X86444998Y-77270000D01*
X83600000Y-80114998D02*
X83600000Y-87200000D01*
D31*
X79000000Y-87200000D02*
X83600000Y-87200000D01*
X83600000Y-87200000D02*
X85412500Y-87200000D01*
X69375000Y-63225000D02*
X69375000Y-63700000D01*
X68550000Y-62400000D02*
X69375000Y-63225000D01*
X64600000Y-62400000D02*
X68550000Y-62400000D01*
X69375000Y-64370001D02*
X68585001Y-65160000D01*
X69375000Y-63700000D02*
X69375000Y-64370001D01*
D30*
X72335000Y-66385000D02*
X72810000Y-66385000D01*
X71490000Y-66385000D02*
X72335000Y-66385000D01*
X69350000Y-68525000D02*
X71490000Y-66385000D01*
X69350000Y-69000000D02*
X69350000Y-68525000D01*
X68560000Y-68210000D02*
X69350000Y-69000000D01*
X68560000Y-67560000D02*
X68560000Y-68210000D01*
X75160000Y-66860000D02*
X73944741Y-66860000D01*
X73944741Y-66860000D02*
X73882400Y-66797659D01*
X75700000Y-71200000D02*
X75810000Y-71310000D01*
X73900000Y-71200000D02*
X75700000Y-71200000D01*
X73222659Y-66797659D02*
X72810000Y-66385000D01*
X73882400Y-66797659D02*
X73222659Y-66797659D01*
X58280000Y-66110000D02*
X65090000Y-66110000D01*
X65090000Y-66110000D02*
X65100000Y-66100000D01*
X68425000Y-70400000D02*
X69350000Y-69475000D01*
X69350000Y-69475000D02*
X69350000Y-69000000D01*
X65100000Y-70400000D02*
X68425000Y-70400000D01*
X45475000Y-85350000D02*
X45475000Y-84450000D01*
X44350000Y-79925000D02*
X44675000Y-80250000D01*
X44350000Y-79350000D02*
X44350000Y-79925000D01*
X45000000Y-79925000D02*
X44675000Y-80250000D01*
X45000000Y-79350000D02*
X45000000Y-79925000D01*
X44350000Y-80575000D02*
X44675000Y-80250000D01*
X44350000Y-81150000D02*
X44350000Y-80575000D01*
X45000000Y-80575000D02*
X44675000Y-80250000D01*
X45000000Y-81150000D02*
X45000000Y-80575000D01*
X49714490Y-82815000D02*
X51580000Y-82815000D01*
X51580000Y-82815000D02*
X52555000Y-82815000D01*
X48749990Y-83779500D02*
X49714490Y-82815000D01*
X48749990Y-86125010D02*
X48749990Y-83779500D01*
X47750000Y-87125000D02*
X48749990Y-86125010D01*
X47750000Y-87600000D02*
X47750000Y-87125000D01*
X48749990Y-81850500D02*
X49714490Y-82815000D01*
X48749990Y-80429500D02*
X48749990Y-81850500D01*
X49909490Y-79270000D02*
X48749990Y-80429500D01*
X54100000Y-79270000D02*
X49909490Y-79270000D01*
X102900000Y-60700000D02*
X99460000Y-60700000D01*
X99460000Y-60700000D02*
X99240000Y-60480000D01*
D31*
X45689998Y-82900000D02*
X46400000Y-82900000D01*
X44675000Y-80250000D02*
X44675000Y-81885002D01*
X44675000Y-81885002D02*
X45689998Y-82900000D01*
X50450000Y-91300000D02*
X51000000Y-91850000D01*
X47000000Y-91300000D02*
X50450000Y-91300000D01*
X47750000Y-87600000D02*
X46400000Y-87600000D01*
D30*
X49629490Y-82900000D02*
X46400000Y-82900000D01*
X49714490Y-82815000D02*
X49629490Y-82900000D01*
D31*
X45725001Y-84635659D02*
X45725001Y-85299999D01*
X46400000Y-82900000D02*
X46400000Y-83960660D01*
X46400000Y-83960660D02*
X45725001Y-84635659D01*
X51000000Y-91850000D02*
X55955001Y-91850000D01*
D30*
X55955001Y-91850000D02*
X59550000Y-91850000D01*
X59550000Y-91850000D02*
X59600000Y-91800000D01*
X59600000Y-94800000D02*
X102700000Y-94800000D01*
X51830000Y-87600000D02*
X49500000Y-87600000D01*
X52555000Y-86875000D02*
X51830000Y-87600000D01*
X52555000Y-85355000D02*
X52555000Y-86875000D01*
X53030000Y-88800000D02*
X53780000Y-88800000D01*
X52555000Y-88325000D02*
X53030000Y-88800000D01*
X52555000Y-86875000D02*
X52555000Y-88325000D01*
X54100000Y-78270000D02*
X50783067Y-78270000D01*
X50783067Y-78270000D02*
X50519147Y-78006080D01*
X50500000Y-86600000D02*
X49500000Y-87600000D01*
X64750000Y-80575000D02*
X65075000Y-80250000D01*
X64750000Y-81150000D02*
X64750000Y-80575000D01*
X65400000Y-80575000D02*
X65075000Y-80250000D01*
X65400000Y-81150000D02*
X65400000Y-80575000D01*
X64750000Y-79925000D02*
X65075000Y-80250000D01*
X64750000Y-79350000D02*
X64750000Y-79925000D01*
X65400000Y-79925000D02*
X65075000Y-80250000D01*
X65400000Y-79350000D02*
X65400000Y-79925000D01*
X68850010Y-83779500D02*
X68850010Y-86049990D01*
X72675000Y-82815000D02*
X72375000Y-83115000D01*
X68000000Y-86900000D02*
X68000000Y-87600000D01*
X68850010Y-86049990D02*
X68000000Y-86900000D01*
X72375000Y-83115000D02*
X69514510Y-83115000D01*
X69215000Y-82815490D02*
X69514510Y-83115000D01*
X74200000Y-79270000D02*
X70134490Y-79270000D01*
X68974990Y-82574990D02*
X69215000Y-82815000D01*
X70134490Y-79270000D02*
X68974990Y-80429500D01*
X68974990Y-80429500D02*
X68974990Y-82574990D01*
X69215000Y-82815000D02*
X69215000Y-82815490D01*
X65975000Y-85350000D02*
X65975000Y-84450000D01*
X95665000Y-65900000D02*
X95370000Y-65605000D01*
X95370000Y-65605000D02*
X95370000Y-65130000D01*
X101900000Y-65900000D02*
X95665000Y-65900000D01*
D31*
X65889998Y-82700000D02*
X66700000Y-82700000D01*
X65075000Y-80250000D02*
X65075000Y-81885002D01*
X65075000Y-81885002D02*
X65889998Y-82700000D01*
X70450000Y-91200000D02*
X71100000Y-91850000D01*
X66700000Y-91200000D02*
X70450000Y-91200000D01*
X68000000Y-87600000D02*
X68000000Y-87700000D01*
X68000000Y-87700000D02*
X66700000Y-89000000D01*
X66700000Y-83975001D02*
X66225001Y-84450000D01*
X66700000Y-82700000D02*
X66700000Y-83975001D01*
X66225001Y-84450000D02*
X66225001Y-85300000D01*
D30*
X69100000Y-82700000D02*
X69500000Y-83100000D01*
X69514510Y-83115000D02*
X69500000Y-83100000D01*
X66700000Y-82700000D02*
X69100000Y-82700000D01*
X69500000Y-83100000D02*
X68850010Y-83779500D01*
D31*
X71100000Y-91850000D02*
X76075001Y-91850000D01*
D30*
X76075001Y-91850000D02*
X79450000Y-91850000D01*
X79450000Y-91850000D02*
X79600000Y-91700000D01*
X79600000Y-94075000D02*
X101725000Y-94075000D01*
X101725000Y-94075000D02*
X101900000Y-93900000D01*
X73150000Y-88800000D02*
X73900000Y-88800000D01*
X72675000Y-88325000D02*
X73150000Y-88800000D01*
X72675000Y-85355000D02*
X72675000Y-88325000D01*
X71950000Y-87600000D02*
X69750000Y-87600000D01*
X72675000Y-88325000D02*
X71950000Y-87600000D01*
X74200000Y-78270000D02*
X71144350Y-78270000D01*
X71144350Y-78270000D02*
X70919350Y-78045000D01*
X70850000Y-86500000D02*
X69750000Y-87600000D01*
X70900000Y-86500000D02*
X70850000Y-86500000D01*
X85400000Y-79925000D02*
X85725000Y-80250000D01*
X85400000Y-79350000D02*
X85400000Y-79925000D01*
X86050000Y-79925000D02*
X85725000Y-80250000D01*
X86050000Y-79350000D02*
X86050000Y-79925000D01*
X85400000Y-80575000D02*
X85725000Y-80250000D01*
X85400000Y-81150000D02*
X85400000Y-80575000D01*
X86050000Y-80575000D02*
X85725000Y-80250000D01*
X86050000Y-81150000D02*
X86050000Y-80575000D01*
X86700000Y-85350000D02*
X86700000Y-84450000D01*
X92600000Y-82815000D02*
X93575000Y-82815000D01*
X90889490Y-82815000D02*
X92600000Y-82815000D01*
X89924990Y-84670520D02*
X89924990Y-83779500D01*
X88900000Y-85695510D02*
X89924990Y-84670520D01*
X88900000Y-87600000D02*
X88900000Y-85695510D01*
X89849990Y-80429500D02*
X89849990Y-81749990D01*
X91009490Y-79270000D02*
X89849990Y-80429500D01*
X90900000Y-82800000D02*
X90889490Y-82815000D01*
X95100000Y-79270000D02*
X91009490Y-79270000D01*
X89924990Y-83779500D02*
X90900000Y-82800000D01*
X90800000Y-82700000D02*
X90900000Y-82800000D01*
X89849990Y-81749990D02*
X90800000Y-82700000D01*
X96975001Y-91850000D02*
X100225000Y-91850000D01*
X100225000Y-91850000D02*
X101175000Y-90900000D01*
X99410000Y-70000000D02*
X99240000Y-69830000D01*
X101000000Y-70000000D02*
X99410000Y-70000000D01*
D31*
X86439998Y-82600000D02*
X87600000Y-82600000D01*
X85725000Y-80250000D02*
X85725000Y-81885002D01*
X85725000Y-81885002D02*
X86439998Y-82600000D01*
X91450000Y-91300000D02*
X92000000Y-91850000D01*
X87500000Y-91300000D02*
X91450000Y-91300000D01*
X88600000Y-87600000D02*
X87600000Y-88600000D01*
X88900000Y-87600000D02*
X88600000Y-87600000D01*
X87600000Y-83660660D02*
X86950001Y-84310659D01*
X87600000Y-82600000D02*
X87600000Y-83660660D01*
X86950001Y-84310659D02*
X86950001Y-85299999D01*
D30*
X90700000Y-82600000D02*
X90800000Y-82700000D01*
X87600000Y-82600000D02*
X90700000Y-82600000D01*
D31*
X92000000Y-91850000D02*
X96975001Y-91850000D01*
D30*
X93575000Y-85355000D02*
X93575000Y-86825000D01*
X92800000Y-87600000D02*
X90650000Y-87600000D01*
X93575000Y-86825000D02*
X92800000Y-87600000D01*
X94800000Y-88050000D02*
X94800000Y-88800000D01*
X93575000Y-86825000D02*
X94800000Y-88050000D01*
X95100000Y-78270000D02*
X92154231Y-78270000D01*
X92154231Y-78270000D02*
X91929231Y-78045000D01*
X91750000Y-86500000D02*
X90650000Y-87600000D01*
X91900000Y-86500000D02*
X91750000Y-86500000D01*
X52830000Y-66230000D02*
X52850000Y-66210000D01*
X48130000Y-66230000D02*
X52830000Y-66230000D01*
X54600000Y-66210000D02*
X54600000Y-68200000D01*
X55050000Y-68650000D02*
X58280000Y-68650000D01*
X54600000Y-68200000D02*
X55050000Y-68650000D01*
X58280000Y-68650000D02*
X62550000Y-68650000D01*
X62550000Y-68650000D02*
X62600000Y-68600000D01*
X76600001Y-60299999D02*
X76800000Y-60100000D01*
X62700000Y-59900000D02*
X63099999Y-60299999D01*
X63099999Y-60299999D02*
X76600001Y-60299999D01*
X77700000Y-64820000D02*
X77460000Y-65060000D01*
X77700000Y-63400000D02*
X77700000Y-64820000D01*
X58280000Y-71190000D02*
X61790000Y-71190000D01*
X61790000Y-71190000D02*
X61800000Y-71200000D01*
X61875000Y-60900000D02*
X76574997Y-60900000D01*
X76574997Y-60900000D02*
X76775000Y-61100003D01*
X76706114Y-63855254D02*
X76984999Y-64134139D01*
X76706114Y-63289569D02*
X76706114Y-63855254D01*
X76960000Y-64159138D02*
X76960000Y-65060000D01*
X76984999Y-64134139D02*
X76960000Y-64159138D01*
X49765000Y-84085000D02*
X49600000Y-84250000D01*
X52555000Y-84085000D02*
X49765000Y-84085000D01*
X54100000Y-78770000D02*
X49970000Y-78770000D01*
X49970000Y-78770000D02*
X49600000Y-78400000D01*
X49600000Y-85800000D02*
X49600000Y-84250000D01*
X46325000Y-86250000D02*
X45925000Y-86250000D01*
X45925000Y-86250000D02*
X45475000Y-86250000D01*
X47850000Y-84725000D02*
X46325000Y-86250000D01*
X47850000Y-84250000D02*
X47850000Y-84725000D01*
X93095000Y-61110000D02*
X93620000Y-61110000D01*
X89725000Y-64480000D02*
X93095000Y-61110000D01*
X89725000Y-66000000D02*
X89725000Y-64480000D01*
X93095000Y-70550000D02*
X93620000Y-70550000D01*
X89725000Y-67180000D02*
X93095000Y-70550000D01*
X89725000Y-66000000D02*
X89725000Y-67180000D01*
X95370000Y-71025000D02*
X95370000Y-70550000D01*
X95875000Y-71530000D02*
X95370000Y-71025000D01*
X97490000Y-71530000D02*
X95875000Y-71530000D01*
X95370000Y-70075000D02*
X95370000Y-70550000D01*
X95615000Y-69830000D02*
X95370000Y-70075000D01*
X97490000Y-69830000D02*
X95615000Y-69830000D01*
X97490000Y-69830000D02*
X97490000Y-71530000D01*
X95370000Y-71025000D02*
X94595000Y-71800000D01*
X94595000Y-71800000D02*
X92800000Y-71800000D01*
X92800000Y-71800000D02*
X92300000Y-71300000D01*
X75479681Y-57724991D02*
X74702667Y-58502005D01*
X92300000Y-58124990D02*
X91900001Y-57724991D01*
X91900001Y-57724991D02*
X75479681Y-57724991D01*
X75460000Y-64960000D02*
X75460000Y-65360000D01*
X74425001Y-63925001D02*
X75460000Y-64960000D01*
X74425001Y-63199999D02*
X74425001Y-63925001D01*
X74825000Y-62800000D02*
X74425001Y-63199999D01*
X91475000Y-65525000D02*
X91475000Y-66000000D01*
X91870000Y-65130000D02*
X91475000Y-65525000D01*
X93620000Y-65130000D02*
X91870000Y-65130000D01*
X91475000Y-66475000D02*
X91475000Y-66000000D01*
X91780000Y-66780000D02*
X91475000Y-66475000D01*
X93620000Y-66780000D02*
X91780000Y-66780000D01*
X93620000Y-66780000D02*
X93620000Y-65130000D01*
X94470010Y-60639500D02*
X93130510Y-59300000D01*
X91475000Y-65525000D02*
X94470010Y-62529990D01*
X94470010Y-62529990D02*
X94470010Y-60639500D01*
X93130510Y-59300000D02*
X76400000Y-59300000D01*
X76400000Y-59300000D02*
X74100000Y-59300000D01*
X74860000Y-65860000D02*
X74117683Y-65117683D01*
X74117683Y-65117683D02*
X74117683Y-64982317D01*
X75160000Y-65860000D02*
X74860000Y-65860000D01*
X97490000Y-62080000D02*
X97490000Y-60480000D01*
X95370000Y-60635000D02*
X95370000Y-61110000D01*
X95525000Y-60480000D02*
X95370000Y-60635000D01*
X97490000Y-60480000D02*
X95525000Y-60480000D01*
X95370000Y-61585000D02*
X95370000Y-61110000D01*
X95865000Y-62080000D02*
X95370000Y-61585000D01*
X97490000Y-62080000D02*
X95865000Y-62080000D01*
X95370000Y-60903080D02*
X93316910Y-58849990D01*
X95370000Y-61110000D02*
X95370000Y-60903080D01*
X93316910Y-58849990D02*
X77200000Y-58849990D01*
X77200000Y-58849990D02*
X75974990Y-58849990D01*
X75974990Y-58849990D02*
X75700000Y-58575000D01*
X75500000Y-63600000D02*
X75984999Y-64084999D01*
X75960000Y-64740000D02*
X75960000Y-65060000D01*
X75984999Y-64715001D02*
X75960000Y-64740000D01*
X75984999Y-64084999D02*
X75984999Y-64715001D01*
X49600000Y-81800000D02*
X49600000Y-80900000D01*
X49800000Y-82000000D02*
X49600000Y-81800000D01*
X52400000Y-82000000D02*
X49800000Y-82000000D01*
X52555000Y-81545000D02*
X52555000Y-81845000D01*
X52555000Y-81845000D02*
X52400000Y-82000000D01*
X56500000Y-77770000D02*
X56976693Y-77770000D01*
X56976693Y-77770000D02*
X57250846Y-77495847D01*
X54100000Y-80000000D02*
X52555000Y-81545000D01*
X58000000Y-80000000D02*
X54100000Y-80000000D01*
X47600000Y-81150000D02*
X45650000Y-81150000D01*
X47850000Y-80900000D02*
X47600000Y-81150000D01*
X72810000Y-68135000D02*
X73565000Y-68135000D01*
X74340000Y-67360000D02*
X75160000Y-67360000D01*
X73565000Y-68135000D02*
X74340000Y-67360000D01*
X72810000Y-68660000D02*
X70700000Y-70770000D01*
X72810000Y-68135000D02*
X72810000Y-68660000D01*
X70700000Y-71820000D02*
X69160000Y-73360000D01*
X70700000Y-70770000D02*
X70700000Y-71820000D01*
X69915000Y-84085000D02*
X69750000Y-84250000D01*
X72675000Y-84085000D02*
X69915000Y-84085000D01*
X74200000Y-78770000D02*
X70132062Y-78770000D01*
X70132062Y-78770000D02*
X69935037Y-78572975D01*
X69900000Y-84400000D02*
X69750000Y-84250000D01*
X69900000Y-85700000D02*
X69900000Y-84400000D01*
X66425000Y-86250000D02*
X65975000Y-86250000D01*
X66475000Y-86250000D02*
X66425000Y-86250000D01*
X68000000Y-84725000D02*
X66475000Y-86250000D01*
X68000000Y-84250000D02*
X68000000Y-84725000D01*
X76600000Y-77770000D02*
X77275000Y-77770000D01*
X77275000Y-77770000D02*
X77500000Y-77545000D01*
X76820756Y-79995000D02*
X76815756Y-80000000D01*
X77386441Y-79995000D02*
X76820756Y-79995000D01*
X74220000Y-80000000D02*
X72675000Y-81545000D01*
X76815756Y-80000000D02*
X74220000Y-80000000D01*
X72030000Y-80900000D02*
X69825000Y-80900000D01*
X72675000Y-81545000D02*
X72030000Y-80900000D01*
X67825000Y-81150000D02*
X66050000Y-81150000D01*
X68075000Y-80900000D02*
X67825000Y-81150000D01*
X90940000Y-84085000D02*
X90775000Y-84250000D01*
X93575000Y-84085000D02*
X90940000Y-84085000D01*
X95100000Y-78770000D02*
X91219708Y-78770000D01*
X91219708Y-78770000D02*
X90994855Y-78545147D01*
X90900000Y-84375000D02*
X90775000Y-84250000D01*
X90900000Y-85600000D02*
X90900000Y-84375000D01*
X87500000Y-86250000D02*
X87150000Y-86250000D01*
X89025000Y-84725000D02*
X87500000Y-86250000D01*
X87150000Y-86250000D02*
X86700000Y-86250000D01*
X89025000Y-84250000D02*
X89025000Y-84725000D01*
X90700000Y-81375000D02*
X90700000Y-80900000D01*
X90870000Y-81545000D02*
X90700000Y-81375000D01*
X93575000Y-81545000D02*
X90870000Y-81545000D01*
X97500000Y-77770000D02*
X98430000Y-77770000D01*
X98430000Y-77770000D02*
X98700000Y-77500000D01*
X95095000Y-80025000D02*
X93575000Y-81545000D01*
X98215430Y-80025000D02*
X95095000Y-80025000D01*
X88700000Y-81150000D02*
X86700000Y-81150000D01*
X88950000Y-80900000D02*
X88700000Y-81150000D01*
X72909999Y-72860001D02*
X72909999Y-69590001D01*
X72410000Y-73360000D02*
X72909999Y-72860001D01*
X74640000Y-67860000D02*
X75460000Y-67860000D01*
X72909999Y-69590001D02*
X74640000Y-67860000D01*
X59472347Y-81822653D02*
X59472347Y-79997653D01*
X57505000Y-82815000D02*
X58480000Y-82815000D01*
X58480000Y-82815000D02*
X59472347Y-81822653D01*
X58075000Y-78770000D02*
X56500000Y-78770000D01*
X58300000Y-78545000D02*
X58075000Y-78770000D01*
X78260000Y-66360000D02*
X80860000Y-66360000D01*
X80860000Y-66360000D02*
X80900000Y-66400000D01*
X80149990Y-76200000D02*
X80900000Y-76200000D01*
X79800000Y-75850010D02*
X80149990Y-76200000D01*
X60800000Y-76200000D02*
X61149990Y-75850010D01*
X58865685Y-78545000D02*
X59200000Y-78210685D01*
X58300000Y-78545000D02*
X58865685Y-78545000D01*
X61149990Y-75850010D02*
X79800000Y-75850010D01*
X59800000Y-76200000D02*
X60800000Y-76200000D01*
X59200000Y-78210685D02*
X59200000Y-76800000D01*
X59200000Y-76800000D02*
X59800000Y-76200000D01*
X60200000Y-79700000D02*
X60200000Y-83500000D01*
X60200000Y-83500000D02*
X59615000Y-84085000D01*
X56500000Y-79270000D02*
X59770000Y-79270000D01*
X59615000Y-84085000D02*
X57505000Y-84085000D01*
X59770000Y-79270000D02*
X60200000Y-79700000D01*
X81607869Y-67125001D02*
X81625000Y-67107870D01*
X80551999Y-67125001D02*
X81607869Y-67125001D01*
X78260000Y-66860000D02*
X80286998Y-66860000D01*
X80286998Y-66860000D02*
X80551999Y-67125001D01*
X81625000Y-75400000D02*
X60375000Y-75400000D01*
X60375000Y-75400000D02*
X60300000Y-75475000D01*
X60300000Y-78965685D02*
X59995685Y-79270000D01*
X59995685Y-79270000D02*
X59770000Y-79270000D01*
X60300000Y-78400000D02*
X60300000Y-78965685D01*
X76600000Y-78770000D02*
X78575000Y-78770000D01*
X78575000Y-78770000D02*
X78800000Y-78545000D01*
X78600000Y-82815000D02*
X77625000Y-82815000D01*
X79275000Y-82140000D02*
X78600000Y-82815000D01*
X79275000Y-79995000D02*
X79275000Y-82140000D01*
X77960000Y-68260000D02*
X78100000Y-68400000D01*
X77960000Y-67860000D02*
X77960000Y-68260000D01*
X78100000Y-68400000D02*
X79910000Y-68400000D01*
X79910000Y-68400000D02*
X80175000Y-68135000D01*
X78855000Y-78600000D02*
X78800000Y-78545000D01*
X80000000Y-78600000D02*
X78855000Y-78600000D01*
X80000000Y-83600000D02*
X79515000Y-84085000D01*
X80000000Y-79600000D02*
X80000000Y-83600000D01*
X76600000Y-79270000D02*
X79670000Y-79270000D01*
X79515000Y-84085000D02*
X77625000Y-84085000D01*
X79670000Y-79270000D02*
X80000000Y-79600000D01*
X82090000Y-68860000D02*
X82350000Y-68600000D01*
X77860000Y-68860000D02*
X82090000Y-68860000D01*
X77460000Y-68160000D02*
X77460000Y-68460000D01*
X77460000Y-68460000D02*
X77860000Y-68860000D01*
X81600000Y-79600000D02*
X80000000Y-79600000D01*
X82300000Y-78900000D02*
X81600000Y-79600000D01*
X100375000Y-81940000D02*
X100375000Y-80175153D01*
X98525000Y-82815000D02*
X99500000Y-82815000D01*
X99500000Y-82815000D02*
X100375000Y-81940000D01*
X99605000Y-78770000D02*
X97500000Y-78770000D01*
X99800000Y-78575000D02*
X99605000Y-78770000D01*
X77524043Y-69424043D02*
X83075000Y-69424043D01*
X76960000Y-68160000D02*
X76960000Y-68860000D01*
X76960000Y-68860000D02*
X77524043Y-69424043D01*
X83100000Y-74800000D02*
X100400000Y-74800000D01*
X97630000Y-79270000D02*
X97660000Y-79300000D01*
X97500000Y-79270000D02*
X97630000Y-79270000D01*
X97660000Y-79300000D02*
X100700000Y-79300000D01*
X100700000Y-79300000D02*
X101100000Y-79700000D01*
X101100000Y-79700000D02*
X101100000Y-83800000D01*
X101100000Y-83800000D02*
X100815000Y-84085000D01*
X83850956Y-70149044D02*
X83900000Y-70100000D01*
X77612634Y-70149044D02*
X83850956Y-70149044D01*
X76460000Y-68160000D02*
X76460000Y-68996410D01*
X76460000Y-68996410D02*
X77612634Y-70149044D01*
X83900000Y-75525000D02*
X96125000Y-75525000D01*
X96125000Y-75525000D02*
X96300000Y-75700000D01*
X96300000Y-87000000D02*
X100400000Y-87000000D01*
X100100000Y-83965685D02*
X100100000Y-84100000D01*
X100300000Y-83765685D02*
X100100000Y-83965685D01*
X100300000Y-83200000D02*
X100300000Y-83765685D01*
X100815000Y-84085000D02*
X100100000Y-84100000D01*
X100100000Y-84100000D02*
X98525000Y-84085000D01*
M02*
